<mxfile host="app.diagrams.net" modified="2022-09-22T05:57:17.635Z" agent="5.0 (Windows NT 10.0; Win64; x64) AppleWebKit/537.36 (KHTML, like Gecko) Chrome/105.0.0.0 Safari/537.36" etag="eZYx-mf2yUJ_R_8JCd4f" version="20.2.8" type="github">
  <diagram id="JSPlBbgD8YEVDK6D39cZ" name="페이지-1">
    <mxGraphModel dx="1483" dy="699" grid="1" gridSize="10" guides="1" tooltips="1" connect="1" arrows="1" fold="1" page="1" pageScale="1" pageWidth="827" pageHeight="1169" math="0" shadow="0">
      <root>
        <mxCell id="0" />
        <mxCell id="1" parent="0" />
        <mxCell id="flliIf5FsEkTjVaYl4Cn-12" value="" style="rounded=0;whiteSpace=wrap;html=1;" vertex="1" parent="1">
          <mxGeometry x="80" y="170" width="260" height="320" as="geometry" />
        </mxCell>
        <mxCell id="flliIf5FsEkTjVaYl4Cn-14" value="" style="rounded=0;whiteSpace=wrap;html=1;" vertex="1" parent="1">
          <mxGeometry x="484" y="170" width="260" height="320" as="geometry" />
        </mxCell>
        <mxCell id="flliIf5FsEkTjVaYl4Cn-16" value="" style="shape=image;verticalLabelPosition=bottom;labelBackgroundColor=default;verticalAlign=top;aspect=fixed;imageAspect=0;image=data:image/png,iVBORw0KGgoAAAANSUhEUgAAAJkAAACnCAYAAAACLP5nAAAAAXNSR0IArs4c6QAAAARnQU1BAACxjwv8YQUAAAAJcEhZcwAADsQAAA7EAZUrDhsAABYtSURBVHhe7Z0JeBRF2sdfkUggCUJIwikgeKzHmriABkQBFQR3A/txBORQOeRQg+H6SIwogiEgoECWQ1ghEnAxIILoAsKuiCxkMUj4BFdAV4JrWBMSjgQ5IvL1v6gOk56eTPekazIzXb/n6SddPT2ZPv5V9b5vvV193RUFkkgEUoP/lUiEIUUmEY4UmUQ4UmQS4UiRSYQjvUsdPvtPDm3K20FHzuVT0+AG1Kt5J+resiP/VGIWKTIH8s6eoIE7X6bdZw4SBdWjsOuup5Irl4kuX6A2oS3o7dhkio68ne8tMYoUmcLJ86dp5pd/prnH3qewGxpQLUVcWi4qYiu5VESjb/oDTW/3HEXUrsc/kbjD9iJbdnAdjTwwl7VcETVu4Ftdc/LXS0Rlp+mNu56lcTFD+FZJZdhWZLC7+mZPp5O/nKOImiF8q3HwPaoRRJvvS5H2mhtsJzLYXQnZs2lT4R6XXaMZTpadpQ5ht9Ci+ydKe80FthLZi9kLKO27v1giLkekvVY5thBZxtcbaeiBeUTXBxuyuzxFtdeWRk+gZ+7uy7dKAlpke04coEHZqfT9hUKKCKrLt4pHtfPWxU6hTs3a8q32JSBF9t9zJ2ns7lm0tmCX5V2jUdQuNC6yPaXHTqIWdRvzT+xHwIlsRs4ySjm83HBIQjSq2Ca3GkBT7x1FwcHB/BP7EDAie//bbdQ3ZxZb9yQkIRpmr12+QCuiE+npO3vxrfbA70WWW/gNjcieSftK87xqd3kKQh43B0fS6tgUat84mm8NbPxWZBgKmvLFQlryw0fVZnd5itqF9o7qSAs7TKZGIRH8k8DEL0X2Zm4mjT+0yGfsLk9RQx6ptw+jF9s+w7cGHn4lsi3HdlGPvalEv5b5pN3lKWyISiGrzSTqd+tjbD2Q8AuRHSg8TM/+cw7tLvnWL+wuT1HttfUdp1FM5G/4Vv/Hp0Xmz3aXp6j2Wj/FXlvUMSUghqh8VmRmU3ACjUBKKfI5kSEFJ27PVCq5fCGg7C5PUe21zbFT/TalyGdEZnUKTqDhzylF1S6yCxcu0NT9b9Gsf6+R4nKDv6YUVavIvJWCE2io9lr63Qn0fPRAvtV3qRaRwWu8b8tIr6fgBBqw18KUCnrk8QyfHjWoFpG1+iCevi8rka2XBbAuVHGSrgzYzrf4Hl5/ghzZEqwFkwKzBNWGRcjHV/G6yLbn72U2mEhQu2G3qEt14XgcIkGXuSl/Ny/5Hl4XWdHF0+zJbBGwG3qxgDrfeBtNvqk7JTfvQaMbdby6vewsu+negImLH0dqq97XjoHHvESQf7GYr/keXrfJ4rdNorWnDlreXUJEE5r/npJ+N0LXtcf455T9b9Gmov1CnQ2IKa7eHbT8wZedjoN50/tnUkStKL7FGiDq24IjKCcug2/xLQJiVh+0EKm3DqQ5D0x0GTtCAPPDbm9QVtsk1sqIADe7Q51m7Hf0jgMZsevun8YqhJ3we5Hhxt5cK9xwPhZSaXZ0ShciNARK331oGi/p0+eWrixy762u2xfwe5HBfR/f6o+8ZAw8poZnI61uUdANGnkqKfH2vuy47UJAdJcN6zTga8bBw7ew4awyxtEyta/bmpcqJ6q2cryyJbMHsOHiwu8RHmKwO7YWGWBGuuLp2slG8ja2Fxn4qsfbVCIwhmV3pMgUMLi8/9HFwkIbdkeKjIMHN1bcKy6GZmekyBxAsDS59RNCh3/siBSZhhmxY6XHaTFSZDrA47w5KEx6nBYhReaCvd2XSo/TImwlMswZaxQMcOc+ukQ6AhZgK5GdulRCPT8Zz0vuQeYGy5qQQqsSthJZyPW12HOdZlo0ZE1g1h27pedYif1ssqB6bJr1tUe38g3uQRpR74i20uP0EFsa/kjJid87lc3SaJT3u86WHqeH2FJkAEK7d/sY9gyoUaTH6Rm2FRkIqxnCHjI2ivQ4PcPWIsMzi3jI2KzHufmB2VJoJrC1yAByyTYV/x8l7ZnPt7gHUzhJj9M4thcZwDxomFUIj6wZBR5nP3ic0kZzixQZB44AnonE+5iMkqV4nG1CmkmP0w1SZA5AaB12JLJ3Mxlly6Pz2JNH7F3lEl2kyDTA4/zt5uG85B54nMcez2TzhUn0kSLTAI8Tkf0HPjL+8gY8awmP05fno6hOpMh0gMe5u/R7mviPOXyLe+BxJt8xiJckjkiRuQAe59zjH5ua9wuD6RJnpMgqAbP/4F0CmPZd4jlSZG6Ax9n5swQ2BbzEM6TIDICp31tuGcamg5eYR4rMAOq8rI9sT2B/JeaQIjOI6nGO2ZnKt0iMIkVmAnicS37cTn868C7fIjGCFJlJ4HEmHExnL3iVGCMgRFbjOu+eBjzOHv+YJD1OgwSEyEou/czXKufc5Yt8reowj/OvQ0ylb9sV/xdZjSA6eOooL1TO1qIDlr1DAB4nXtLQfXsi32Kcr4qOEFl0HP6A34sMXh+Gf9zFsBC1x+t21HCEFeB/7Tv/E/XZNolvMUbC4UxbvTA2ILpLvEYnfueLvOAMurTOu5KEvCQCIl9/6iDL2jBio5l5niBQCAiRsTz90/9ib59Di6W2ahAXHuKN3PA/rGsTBX7/q/MnqOWm3iyOhuxaR1sN63hxWeS6Xuw4sb+dCJjX3gCkQbPnIn9VRFZDERX+Xh/i1a6JPWWOOfrx28DhOCB0K7trFZy3fO2NA7eE3cTXrAc3EF0iQgzlf71s+6DylP+25jhECAwg9bvdjbfyku/hdZH1b/2YTFW2GuV6DmilXFcfxesiw8OxE1r2kc8sWgSuY7+ojuxVPr5Ktb3oHuN/GJ7BLDt2M4StgNmfl4rYQ8ZGX15WXVSbyAC8rmd3pdLagl0sgi7KZgkkVHHFRban9NhJhl4YVt1Uq8hUMIXTiOyZtK80T0gsK1DA0+pwINbFTvHp7lGLT4hMBTGt+JyZylEpXqKNIuLuYGERxbjH6xPxdjt/w6dEpjIjZxmlHF5ue3tN7RrhKLl67bU/4JMiA5gq4Lnds2i9De01NaiMN/ziTcD+YHdVhs+KTAVDNIOyU9ngth3sNdhdGBnIapfEHhgOBHxeZCqY1mnogXlsMDwQu1DV7kq/O4Gejx7ItwYGfiMyFUxWh7nEAqULVe2u0Tf9gaa3e85v7a7K8DuRAaTUJGTPZnPy+7PYEK2H3bXo/olsJMQMX+7bx9eI7rzrLgoOFpdlUlX8UmQqSOvpmz29PH7kL7DZGWsE0eb7Ujyyu3bs+JRiY9vTqVOnqHHjxpSdnU0xMTE+KzS/zidDQLKw70ZaevdoNlGwr7/MAceH43zjN0/RlfjNHgkMLVjnzl1o1+efU/369WltVpYiuFjKzc3le/geAZG0iABlYe/NNKHpI+wmws7xJXA8OK7RjTqy4xwXM4R/UjW+PnSIbmrenK3fEBTE/voiASEyAIN5zgMT6Vjcevpt7cbM3vEFseE4kFCY2y2DFj+UYqlh/7s2bai0pIStXyorY399Eb+2ySoDD9/22JtK9GtZtdhr6qzY69pOtnTeMqSWo2tUbTCU0aL5svEfsCJT8XZKkRrvEpmCowoLoAXzZaMfBLzIAFKKpnyxkJb88JGwkIca70IC4YIOk6lRSAT/RGILkakcKDxMw7PTLE8pgt11c3AkrY5NofaNo/lWiYqtRKZilb3GusbLFyirbRL1u9V3c+yrG1uKTOXN3Ewaf2iRaXtNtbuSWz9BM2LH8q0SV9haZMBMCrhqd/lT6rMvYHuRqbhLAZd2l+dIkWlgKeD7ZhMhkItWjQd0V0Qn0tN39mLrEnNIkbkAyZL55wqoSUiUbLmqiBSZRDgBM3Yp8V2kyCTCkSKTCEeKTCIcKTKJcKTIJMKRIpMIR4pMIhwpMolwpMgkwpEikwhHikwiHCkyiXCkyCTCkSKTCEeKTCIcKTKJcKTIJMKRIpMIR4pMIhy/fpAEs9scz8uj/BP5VFhQSBcvXqRatWqxGQjDw8N9fi5Vu2BYZBPGjaP9+7+kWg43rXnz5vTW0mW8ZAxMR/ncmDFUL7w+30KKQApo1+49hgRx4sQJ2rplC721eDFlf/EF30oU6jDRYKnDfHCtW7agocNH0JAnn2THa4QhgwbRyaKTvHSViAYRlLl6NS9dZf68ebRxwwcVrglEvmHjh7xkDJxT7169KlyT08Wn6L1168qPOWPFClr5TkaF3wLY79OdO01XpuPHj1P/vn0r/CbAvdj08V/ZXLSWAZEZYfDAgVfqh9a50qJZ0/IFX9+zZw/fwxj7cnLY97T/5/z583wP17w2fTrbVxEU+54iILcL9sNx43s4h/z8fP7fXNPm3pgrUeH1rjRtGMUWrGObluSkpPJjcTyXzJUr+R7GyMvL070mh7/5hu9xFZwHjsdxP2wb+cwIvodxunR6iJ2X4//Cb+IaW40pm6xOSCjVrFmzfFEOjAY/MYB/ag7H/+MO1PRmjRrS3FlprGVq2LSFoe8B7BceEcm+9+nftlOTJk3YbNHuqF0nhIJr12YL1oNq6s/JWiesXoVzwe+g1VRftm8Gx/+jx/pNH9GPPxVU2A/ntnTZnytMue4OTGb86Wc7KazujRV+TxEspbz0Elu3kioZ/ji4747lsaZcFBAYhFEzKIhdUFf88ssv5YsrIBiIoH379oaE5im4WdNefZWXrAOzXiutMV04f55vuQoqe3zfPrxUORB/fP/+7Do4kvefH5mIRVBl7xIHO3TYMI9qrhFgqyhdRHltc6T4ZCETOZaIyEi6QzH0W7VuXb7tpx/z+J4VUYUm6phRGdJmzmR2j9W8PmcOa80cUSs7bER3PDt6NCndJC9dBaKFeCFiEVgSwsBBpyQn85J1oFmHcY8WyBG0VrioEyYnk2K3wK6knC/30+YtW+nvOz5jZcX2osVvr2RCLDl7hn/zGmht5io3TBSoGKNGWj9nLAzyFcuXs/N3BBUnUXHO0PK7Ai+ZWPHOO6ybdASihXhFYYnIcNBvKLXoyOHDfIs1LF60kHUFjkBgqLkQEeyH227Xf10MbsbgIUOouOQcdev+uJPQ0Nq8NGUKL1kPKsaWrZ/Q9m3b+BbreHroUFIcESfTAML+34kTecmZ/n16O11PiBWitdSb1GCJyABO8IUXrJt1EF0ZjFNtNwnb4fPde0xdFIQeUBH07DWRthlu6NNDBvOStcDYx7VwBMJe9e67usJOfe01Krt0qcL1xPWAWCFakVgmMqtrrjqFuCNojZKTkjyqdWmzXqeinyreFMTWvj16lJesBzf0THGBIVvJLHhRxPjERKcWmjkBvf/IS1dBD4NWW+s4QaQQq2gsExnACQ4aEM9LVaO4uJivXaOg+DQ9/PDDvGSO+2NjKwRpQVCtOlRUVMRLYkC4BbaSCCcjNS2NXRNH1JYKLZfKwCcGOHWTECdECrGKpkoi09YinODPJaeF1FyV0LAwvmaOqKgovlaR0tJSvmYN8NS03TIcoxfGJvCSdSDKn/Xee05OgGpvwglAeGnf/lwnswPihEi9gccig8DGjpvAS9dQa25lXk51ghuiLqdKf+ZbrQEC+33PniyU4ig02IPolqx2jEC/+Hjq0ukh3djZIKUFmzxxvFNMDOcOcXprXNdjkcGIbNq0KS1ZusypJqHmTn3lZV7yDXBBEdrQLlZHuENDQmn+/AVORjlu+uhRI3nJWjJWZurGzv793XdO4QqIsftj3Zg4vUWVusszZ87Qo127Umy7dro118xQR6BQeq6UhVWGPvVUBXMCNx3esoiQBgbRX5s+ncUEHdF2kQBiNJvUUFUsMfzfyczUrbnItrArekY5uq2u3brxkrUYaZExAjLvzTcNZ6NYhSUiQ80d+cwIp5qLaD2i9t4CwziIe5lZRNhJAGEW3FDt0BZGGkQ5RlnrNziZLiroaW4Mj6IXFI/S21giMjB/QbpuzcVgrLf4YP16NiZpZsnIyODfth7cUGRpOJoS8PxEOUYwXRAU1wM9zboNG3nJu1gmMhjWGJ7Qq7mOMRvR4PcgbiML9g0JEfvC1dVrspxMCXfDP54Ce0/rAKgg8PyDgAF7I1gmMoDhiQYNmzrVXDVmY0fQusCbcwwxqMM/VjtGiPRrg64qCC2hVxGVeVIZlooMZOg4AaJqrr8Ab07bwkAMsGOtQu0t9DxKFVFBYXdYLjLkJPXqGeeVmqsHAqxqsFW7VBfw5jDm6hhigBgQiYdjFBSkn3VrFDg8emOTWtTQEhweb2K5yMCC9D+5rLmhoaF8i/XA0NYLuGI5r4i+OoX28iuvOI0wwC4cNri/4pWf5Vs8A3lrega/3vniPniaMu8pQkSmFxxEzf1vfj5LB3JlNwQycIwyV650uvEsrFCFawJjH9kv6C0cwe/sy8lx+j3cBzhnIseXtQgRGZig2GDamosL8a9Dhyq1GwIZJFFqkw2rek1g7KNFdEQNuiLDQm8A3dvjy8JE5ipDwOjFrBnkvF9V8r/wELAeIrtvPfSSDT0VmF5oCAKGiNSgK8YotcN+AN3rmNGjeEkswkQGXJ2gEVq1as3XroHwyML0dF4yB4Ku2gco0NLiSShvgtZF74kjs7gy9iHgVX9Zw0tX0Rv2Qwu68cNNQsZStQgVGVi4eLHTCRpBb3wNNR5DVWbtCXi1eHpIm5EAkMzobfSeODLL2ITnnYx9DOvBuYrVnBOG/bTeLUA3q82iNYLZWJtwkaHmasc1jaKXWYALA3vixeRkQyeLpL02bds62S1oXdHKenuwGLga1zQKWh+0QlpjH8N6GN7TY0ZaGpVd1M+fMzoig3FeVNiCggL212hISrjIwNRXpzmNaxph2PDhuomFEMzbS5dQbeUiY46OVUp3gMe9cNL4i9gTRBgeFkIJo4Y5CQygdU17fRYveR/YTEj/9sSU0Ivsw/Z1l4j4wcefONnI6oiMu0QBOAmqqNHVw5bFhDZGEgy8IjJPay6+p+c8AHR9EM+qlRk0ZviT1KXLw6zFwl/EniBCXEAYwVpwHGhdRT3MahRkTZg1JfQi+7jpyI51l4ioN8QFIFh3CZUn8vNZq49nL9D9wiaEoI2kr3tFZAA1FzEhszUXFw7dpp7QAMQGIUFw6oKynv0F8H8e6RHn9cQ9PVzddFe4MvZh3yE71gjLV2Q42YMQLBIqjaZlocfQ8/5d4TWRgVVr1njkBCAhT23RtDaaUWAT4vsQrNmpnUSCVG2jToBeZF+NiRm1LV31KqiclQ2gYxoIfIYHeWBnBwdXtAcr5YpBevWMY1MLOS7KDeOfGkepuU7/B4uRqaOwD35T/U59h6mUlItUYboobMfn6r5K98imaDICvq9+T13wf7WMT0x02g/TU5lF7/9gcZw6SqlkuvtEhdfje5jD8do4LpUdP6b9wjXEfcAUXEanDTM8CR4MPG3/C3Wb9c5QG7QP7l4qK3Nyu92BQd5/KsvXXx+io0eOsOZeBVH1e+6JpuiYGLpLMU47PvhgpQaxFr0B5BuCgpyeUUT3dbKwYssKg9jV1AmuwDXJzc1lv6GCaxKjHL963K48ucZNmrDWySww5GFnaXF3L3CsCGyH1a1r+Hf9ejpPiX/gVZtMYk+kyCTCkSKTCEeKTCIcKTKJYIj+Hzdp+Vi9wOazAAAAAElFTkSuQmCC;" vertex="1" parent="1">
          <mxGeometry x="450" y="216" width="64.13" height="70" as="geometry" />
        </mxCell>
        <mxCell id="flliIf5FsEkTjVaYl4Cn-19" value="&lt;font style=&quot;font-size: 16px;&quot;&gt;Controller&lt;/font&gt;" style="rounded=0;whiteSpace=wrap;html=1;" vertex="1" parent="1">
          <mxGeometry x="554" y="220" width="120" height="60" as="geometry" />
        </mxCell>
        <mxCell id="flliIf5FsEkTjVaYl4Cn-20" value="&lt;font style=&quot;font-size: 16px;&quot;&gt;Service&lt;/font&gt;" style="rounded=0;whiteSpace=wrap;html=1;" vertex="1" parent="1">
          <mxGeometry x="553.22" y="310" width="120" height="60" as="geometry" />
        </mxCell>
        <mxCell id="flliIf5FsEkTjVaYl4Cn-21" value="&lt;font style=&quot;font-size: 16px;&quot;&gt;Mapper&lt;/font&gt;&lt;span style=&quot;color: rgba(0, 0, 0, 0); font-family: monospace; font-size: 0px; text-align: start;&quot;&gt;%3CmxGraphModel%3E%3Croot%3E%3CmxCell%20id%3D%220%22%2F%3E%3CmxCell%20id%3D%221%22%20parent%3D%220%22%2F%3E%3CmxCell%20id%3D%222%22%20value%3D%22%26lt%3Bfont%20style%3D%26quot%3Bfont-size%3A%2016px%3B%26quot%3B%26gt%3BService%26lt%3B%2Ffont%26gt%3B%22%20style%3D%22rounded%3D0%3BwhiteSpace%3Dwrap%3Bhtml%3D1%3B%22%20vertex%3D%221%22%20parent%3D%221%22%3E%3CmxGeometry%20x%3D%22554%22%20y%3D%22290%22%20width%3D%22120%22%20height%3D%2260%22%20as%3D%22geometry%22%2F%3E%3C%2FmxCell%3E%3C%2Froot%3E%3C%2FmxGraphModel%3E&lt;/span&gt;" style="rounded=0;whiteSpace=wrap;html=1;" vertex="1" parent="1">
          <mxGeometry x="554" y="400" width="120" height="60" as="geometry" />
        </mxCell>
        <mxCell id="flliIf5FsEkTjVaYl4Cn-22" value="&lt;span style=&quot;font-size: 16px;&quot;&gt;Router&lt;/span&gt;" style="rounded=0;whiteSpace=wrap;html=1;" vertex="1" parent="1">
          <mxGeometry x="150" y="400" width="120" height="60" as="geometry" />
        </mxCell>
        <mxCell id="flliIf5FsEkTjVaYl4Cn-23" value="&lt;span style=&quot;font-size: 16px;&quot;&gt;Components&lt;/span&gt;" style="rounded=0;whiteSpace=wrap;html=1;" vertex="1" parent="1">
          <mxGeometry x="150" y="310" width="120" height="60" as="geometry" />
        </mxCell>
        <mxCell id="flliIf5FsEkTjVaYl4Cn-24" value="&lt;span style=&quot;font-size: 16px;&quot;&gt;Service&lt;/span&gt;" style="rounded=0;whiteSpace=wrap;html=1;" vertex="1" parent="1">
          <mxGeometry x="150" y="220" width="120" height="60" as="geometry" />
        </mxCell>
        <mxCell id="flliIf5FsEkTjVaYl4Cn-25" value="Front End" style="text;html=1;strokeColor=none;fillColor=none;align=center;verticalAlign=middle;whiteSpace=wrap;rounded=0;fontSize=16;" vertex="1" parent="1">
          <mxGeometry x="160" y="130" width="100" height="30" as="geometry" />
        </mxCell>
        <mxCell id="flliIf5FsEkTjVaYl4Cn-26" value="Back end(API Server" style="text;html=1;strokeColor=none;fillColor=none;align=center;verticalAlign=middle;whiteSpace=wrap;rounded=0;fontSize=16;" vertex="1" parent="1">
          <mxGeometry x="536" y="130" width="166" height="30" as="geometry" />
        </mxCell>
        <mxCell id="flliIf5FsEkTjVaYl4Cn-29" value="database" style="text;html=1;strokeColor=none;fillColor=none;align=center;verticalAlign=middle;whiteSpace=wrap;rounded=0;fontSize=16;" vertex="1" parent="1">
          <mxGeometry x="567" y="567" width="100" height="30" as="geometry" />
        </mxCell>
        <mxCell id="flliIf5FsEkTjVaYl4Cn-30" value="" style="shape=image;verticalLabelPosition=bottom;labelBackgroundColor=default;verticalAlign=top;aspect=fixed;imageAspect=0;image=data:image/png,iVBORw0KGgoAAAANSUhEUgAAAfQAAADPCAYAAAADHCNQAAAACXBIWXMAAAsTAAALEwEAmpwYAAA4KmlUWHRYTUw6Y29tLmFkb2JlLnhtcAAAAAAAPD94cGFja2V0IGJlZ2luPSLvu78iIGlkPSJXNU0wTXBDZWhpSHpyZVN6TlRjemtjOWQiPz4KPHg6eG1wbWV0YSB4bWxuczp4PSJhZG9iZTpuczptZXRhLyIgeDp4bXB0az0iQWRvYmUgWE1QIENvcmUgNS42LWMxMzIgNzkuMTU5Mjg0LCAyMDE2LzA0LzE5LTEzOjEzOjQwICAgICAgICAiPgogICA8cmRmOlJERiB4bWxuczpyZGY9Imh0dHA6Ly93d3cudzMub3JnLzE5OTkvMDIvMjItcmRmLXN5bnRheC1ucyMiPgogICAgICA8cmRmOkRlc2NyaXB0aW9uIHJkZjphYm91dD0iIgogICAgICAgICAgICB4bWxuczp4bXA9Imh0dHA6Ly9ucy5hZG9iZS5jb20veGFwLzEuMC8iCiAgICAgICAgICAgIHhtbG5zOmRjPSJodHRwOi8vcHVybC5vcmcvZGMvZWxlbWVudHMvMS4xLyIKICAgICAgICAgICAgeG1sbnM6cGhvdG9zaG9wPSJodHRwOi8vbnMuYWRvYmUuY29tL3Bob3Rvc2hvcC8xLjAvIgogICAgICAgICAgICB4bWxuczp4bXBNTT0iaHR0cDovL25zLmFkb2JlLmNvbS94YXAvMS4wL21tLyIKICAgICAgICAgICAgeG1sbnM6c3RFdnQ9Imh0dHA6Ly9ucy5hZG9iZS5jb20veGFwLzEuMC9zVHlwZS9SZXNvdXJjZUV2ZW50IyIKICAgICAgICAgICAgeG1sbnM6dGlmZj0iaHR0cDovL25zLmFkb2JlLmNvbS90aWZmLzEuMC8iCiAgICAgICAgICAgIHhtbG5zOmV4aWY9Imh0dHA6Ly9ucy5hZG9iZS5jb20vZXhpZi8xLjAvIj4KICAgICAgICAgPHhtcDpDcmVhdG9yVG9vbD5BZG9iZSBQaG90b3Nob3AgQ0MgMjAxNS41IChXaW5kb3dzKTwveG1wOkNyZWF0b3JUb29sPgogICAgICAgICA8eG1wOkNyZWF0ZURhdGU+MjAxNy0wOS0yNlQyMjo1Mzo1NCswOTowMDwveG1wOkNyZWF0ZURhdGU+CiAgICAgICAgIDx4bXA6TW9kaWZ5RGF0ZT4yMDE3LTA5LTI2VDIyOjU1OjUzKzA5OjAwPC94bXA6TW9kaWZ5RGF0ZT4KICAgICAgICAgPHhtcDpNZXRhZGF0YURhdGU+MjAxNy0wOS0yNlQyMjo1NTo1MyswOTowMDwveG1wOk1ldGFkYXRhRGF0ZT4KICAgICAgICAgPGRjOmZvcm1hdD5pbWFnZS9wbmc8L2RjOmZvcm1hdD4KICAgICAgICAgPHBob3Rvc2hvcDpDb2xvck1vZGU+MzwvcGhvdG9zaG9wOkNvbG9yTW9kZT4KICAgICAgICAgPHhtcE1NOkluc3RhbmNlSUQ+eG1wLmlpZDphZjdjZGEyYi1hNjM5LTM3NGMtYTRmYi00YTEwM2IzYmVmMDE8L3htcE1NOkluc3RhbmNlSUQ+CiAgICAgICAgIDx4bXBNTTpEb2N1bWVudElEPnhtcC5kaWQ6YWY3Y2RhMmItYTYzOS0zNzRjLWE0ZmItNGExMDNiM2JlZjAxPC94bXBNTTpEb2N1bWVudElEPgogICAgICAgICA8eG1wTU06T3JpZ2luYWxEb2N1bWVudElEPnhtcC5kaWQ6YWY3Y2RhMmItYTYzOS0zNzRjLWE0ZmItNGExMDNiM2JlZjAxPC94bXBNTTpPcmlnaW5hbERvY3VtZW50SUQ+CiAgICAgICAgIDx4bXBNTTpIaXN0b3J5PgogICAgICAgICAgICA8cmRmOlNlcT4KICAgICAgICAgICAgICAgPHJkZjpsaSByZGY6cGFyc2VUeXBlPSJSZXNvdXJjZSI+CiAgICAgICAgICAgICAgICAgIDxzdEV2dDphY3Rpb24+Y3JlYXRlZDwvc3RFdnQ6YWN0aW9uPgogICAgICAgICAgICAgICAgICA8c3RFdnQ6aW5zdGFuY2VJRD54bXAuaWlkOmFmN2NkYTJiLWE2MzktMzc0Yy1hNGZiLTRhMTAzYjNiZWYwMTwvc3RFdnQ6aW5zdGFuY2VJRD4KICAgICAgICAgICAgICAgICAgPHN0RXZ0OndoZW4+MjAxNy0wOS0yNlQyMjo1Mzo1NCswOTowMDwvc3RFdnQ6d2hlbj4KICAgICAgICAgICAgICAgICAgPHN0RXZ0OnNvZnR3YXJlQWdlbnQ+QWRvYmUgUGhvdG9zaG9wIENDIDIwMTUuNSAoV2luZG93cyk8L3N0RXZ0OnNvZnR3YXJlQWdlbnQ+CiAgICAgICAgICAgICAgIDwvcmRmOmxpPgogICAgICAgICAgICA8L3JkZjpTZXE+CiAgICAgICAgIDwveG1wTU06SGlzdG9yeT4KICAgICAgICAgPHRpZmY6T3JpZW50YXRpb24+MTwvdGlmZjpPcmllbnRhdGlvbj4KICAgICAgICAgPHRpZmY6WFJlc29sdXRpb24+NzIwMDAwLzEwMDAwPC90aWZmOlhSZXNvbHV0aW9uPgogICAgICAgICA8dGlmZjpZUmVzb2x1dGlvbj43MjAwMDAvMTAwMDA8L3RpZmY6WVJlc29sdXRpb24+CiAgICAgICAgIDx0aWZmOlJlc29sdXRpb25Vbml0PjI8L3RpZmY6UmVzb2x1dGlvblVuaXQ+CiAgICAgICAgIDxleGlmOkNvbG9yU3BhY2U+NjU1MzU8L2V4aWY6Q29sb3JTcGFjZT4KICAgICAgICAgPGV4aWY6UGl4ZWxYRGltZW5zaW9uPjUwMDwvZXhpZjpQaXhlbFhEaW1lbnNpb24+CiAgICAgICAgIDxleGlmOlBpeGVsWURpbWVuc2lvbj4yMDc8L2V4aWY6UGl4ZWxZRGltZW5zaW9uPgogICAgICA8L3JkZjpEZXNjcmlwdGlvbj4KICAgPC9yZGY6UkRGPgo8L3g6eG1wbWV0YT4KICAgICAgICAgICAgICAgICAgICAgICAgICAgICAgICAgICAgICAgICAgICAgICAgICAgICAgICAgICAgICAgICAgICAgICAgICAgICAgICAgICAgICAgICAgICAgICAgICAgIAogICAgICAgICAgICAgICAgICAgICAgICAgICAgICAgICAgICAgICAgICAgICAgICAgICAgICAgICAgICAgICAgICAgICAgICAgICAgICAgICAgICAgICAgICAgICAgICAgICAgCiAgICAgICAgICAgICAgICAgICAgICAgICAgICAgICAgICAgICAgICAgICAgICAgICAgICAgICAgICAgICAgICAgICAgICAgICAgICAgICAgICAgICAgICAgICAgICAgICAgICAKICAgICAgICAgICAgICAgICAgICAgICAgICAgICAgICAgICAgICAgICAgICAgICAgICAgICAgICAgICAgICAgICAgICAgICAgICAgICAgICAgICAgICAgICAgICAgICAgICAgIAogICAgICAgICAgICAgICAgICAgICAgICAgICAgICAgICAgICAgICAgICAgICAgICAgICAgICAgICAgICAgICAgICAgICAgICAgICAgICAgICAgICAgICAgICAgICAgICAgICAgCiAgICAgICAgICAgICAgICAgICAgICAgICAgICAgICAgICAgICAgICAgICAgICAgICAgICAgICAgICAgICAgICAgICAgICAgICAgICAgICAgICAgICAgICAgICAgICAgICAgICAKICAgICAgICAgICAgICAgICAgICAgICAgICAgICAgICAgICAgICAgICAgICAgICAgICAgICAgICAgICAgICAgICAgICAgICAgICAgICAgICAgICAgICAgICAgICAgICAgICAgIAogICAgICAgICAgICAgICAgICAgICAgICAgICAgICAgICAgICAgICAgICAgICAgICAgICAgICAgICAgICAgICAgICAgICAgICAgICAgICAgICAgICAgICAgICAgICAgICAgICAgCiAgICAgICAgICAgICAgICAgICAgICAgICAgICAgICAgICAgICAgICAgICAgICAgICAgICAgICAgICAgICAgICAgICAgICAgICAgICAgICAgICAgICAgICAgICAgICAgICAgICAKICAgICAgICAgICAgICAgICAgICAgICAgICAgICAgICAgICAgICAgICAgICAgICAgICAgICAgICAgICAgICAgICAgICAgICAgICAgICAgICAgICAgICAgICAgICAgICAgICAgIAogICAgICAgICAgICAgICAgICAgICAgICAgICAgICAgICAgICAgICAgICAgICAgICAgICAgICAgICAgICAgICAgICAgICAgICAgICAgICAgICAgICAgICAgICAgICAgICAgICAgCiAgICAgICAgICAgICAgICAgICAgICAgICAgICAgICAgICAgICAgICAgICAgICAgICAgICAgICAgICAgICAgICAgICAgICAgICAgICAgICAgICAgICAgICAgICAgICAgICAgICAKICAgICAgICAgICAgICAgICAgICAgICAgICAgICAgICAgICAgICAgICAgICAgICAgICAgICAgICAgICAgICAgICAgICAgICAgICAgICAgICAgICAgICAgICAgICAgICAgICAgIAogICAgICAgICAgICAgICAgICAgICAgICAgICAgICAgICAgICAgICAgICAgICAgICAgICAgICAgICAgICAgICAgICAgICAgICAgICAgICAgICAgICAgICAgICAgICAgICAgICAgCiAgICAgICAgICAgICAgICAgICAgICAgICAgICAgICAgICAgICAgICAgICAgICAgICAgICAgICAgICAgICAgICAgICAgICAgICAgICAgICAgICAgICAgICAgICAgICAgICAgICAKICAgICAgICAgICAgICAgICAgICAgICAgICAgICAgICAgICAgICAgICAgICAgICAgICAgICAgICAgICAgICAgICAgICAgICAgICAgICAgICAgICAgICAgICAgICAgICAgICAgIAogICAgICAgICAgICAgICAgICAgICAgICAgICAgICAgICAgICAgICAgICAgICAgICAgICAgICAgICAgICAgICAgICAgICAgICAgICAgICAgICAgICAgICAgICAgICAgICAgICAgCiAgICAgICAgICAgICAgICAgICAgICAgICAgICAgICAgICAgICAgICAgICAgICAgICAgICAgICAgICAgICAgICAgICAgICAgICAgICAgICAgICAgICAgICAgICAgICAgICAgICAKICAgICAgICAgICAgICAgICAgICAgICAgICAgICAgICAgICAgICAgICAgICAgICAgICAgICAgICAgICAgICAgICAgICAgICAgICAgICAgICAgICAgICAgICAgICAgICAgICAgIAogICAgICAgICAgICAgICAgICAgICAgICAgICAgICAgICAgICAgICAgICAgICAgICAgICAgICAgICAgICAgICAgICAgICAgICAgICAgICAgICAgICAgICAgICAgICAgICAgICAgCiAgICAgICAgICAgICAgICAgICAgICAgICAgICAgICAgICAgICAgICAgICAgICAgICAgICAgICAgICAgICAgICAgICAgICAgICAgICAgICAgICAgICAgICAgICAgICAgICAgICAKICAgICAgICAgICAgICAgICAgICAgICAgICAgICAgICAgICAgICAgICAgICAgICAgICAgICAgICAgICAgICAgICAgICAgICAgICAgICAgICAgICAgICAgICAgICAgICAgICAgIAogICAgICAgICAgICAgICAgICAgICAgICAgICAgICAgICAgICAgICAgICAgICAgICAgICAgICAgICAgICAgICAgICAgICAgICAgICAgICAgICAgICAgICAgICAgICAgICAgICAgCiAgICAgICAgICAgICAgICAgICAgICAgICAgICAgICAgICAgICAgICAgICAgICAgICAgICAgICAgICAgICAgICAgICAgICAgICAgICAgICAgICAgICAgICAgICAgICAgICAgICAKICAgICAgICAgICAgICAgICAgICAgICAgICAgICAgICAgICAgICAgICAgICAgICAgICAgICAgICAgICAgICAgICAgICAgICAgICAgICAgICAgICAgICAgICAgICAgICAgICAgIAogICAgICAgICAgICAgICAgICAgICAgICAgICAgICAgICAgICAgICAgICAgICAgICAgICAgICAgICAgICAgICAgICAgICAgICAgICAgICAgICAgICAgICAgICAgICAgICAgICAgCiAgICAgICAgICAgICAgICAgICAgICAgICAgICAgICAgICAgICAgICAgICAgICAgICAgICAgICAgICAgICAgICAgICAgICAgICAgICAgICAgICAgICAgICAgICAgICAgICAgICAKICAgICAgICAgICAgICAgICAgICAgICAgICAgICAgICAgICAgICAgICAgICAgICAgICAgICAgICAgICAgICAgICAgICAgICAgICAgICAgICAgICAgICAgICAgICAgICAgICAgIAogICAgICAgICAgICAgICAgICAgICAgICAgICAgICAgICAgICAgICAgICAgICAgICAgICAgICAgICAgICAgICAgICAgICAgICAgICAgICAgICAgICAgICAgICAgICAgICAgICAgCiAgICAgICAgICAgICAgICAgICAgICAgICAgICAgICAgICAgICAgICAgICAgICAgICAgICAgICAgICAgICAgICAgICAgICAgICAgICAgICAgICAgICAgICAgICAgICAgICAgICAKICAgICAgICAgICAgICAgICAgICAgICAgICAgICAgICAgICAgICAgICAgICAgICAgICAgICAgICAgICAgICAgICAgICAgICAgICAgICAgICAgICAgICAgICAgICAgICAgICAgIAogICAgICAgICAgICAgICAgICAgICAgICAgICAgICAgICAgICAgICAgICAgICAgICAgICAgICAgICAgICAgICAgICAgICAgICAgICAgICAgICAgICAgICAgICAgICAgICAgICAgCiAgICAgICAgICAgICAgICAgICAgICAgICAgICAgICAgICAgICAgICAgICAgICAgICAgICAgICAgICAgICAgICAgICAgICAgICAgICAgICAgICAgICAgICAgICAgICAgICAgICAKICAgICAgICAgICAgICAgICAgICAgICAgICAgICAgICAgICAgICAgICAgICAgICAgICAgICAgICAgICAgICAgICAgICAgICAgICAgICAgICAgICAgICAgICAgICAgICAgICAgIAogICAgICAgICAgICAgICAgICAgICAgICAgICAgICAgICAgICAgICAgICAgICAgICAgICAgICAgICAgICAgICAgICAgICAgICAgICAgICAgICAgICAgICAgICAgICAgICAgICAgCiAgICAgICAgICAgICAgICAgICAgICAgICAgICAgICAgICAgICAgICAgICAgICAgICAgICAgICAgICAgICAgICAgICAgICAgICAgICAgICAgICAgICAgICAgICAgICAgICAgICAKICAgICAgICAgICAgICAgICAgICAgICAgICAgICAgICAgICAgICAgICAgICAgICAgICAgICAgICAgICAgICAgICAgICAgICAgICAgICAgICAgICAgICAgICAgICAgICAgICAgIAogICAgICAgICAgICAgICAgICAgICAgICAgICAgICAgICAgICAgICAgICAgICAgICAgICAgICAgICAgICAgICAgICAgICAgICAgICAgICAgICAgICAgICAgICAgICAgICAgICAgCiAgICAgICAgICAgICAgICAgICAgICAgICAgICAgICAgICAgICAgICAgICAgICAgICAgICAgICAgICAgICAgICAgICAgICAgICAgICAgICAgICAgICAgICAgICAgICAgICAgICAKICAgICAgICAgICAgICAgICAgICAgICAgICAgICAgICAgICAgICAgICAgICAgICAgICAgICAgICAgICAgICAgICAgICAgICAgICAgICAgICAgICAgICAgICAgICAgICAgICAgIAogICAgICAgICAgICAgICAgICAgICAgICAgICAgICAgICAgICAgICAgICAgICAgICAgICAgICAgICAgICAgICAgICAgICAgICAgICAgICAgICAgICAgICAgICAgICAgICAgICAgCiAgICAgICAgICAgICAgICAgICAgICAgICAgICAgICAgICAgICAgICAgICAgICAgICAgICAgICAgICAgICAgICAgICAgICAgICAgICAgICAgICAgICAgICAgICAgICAgICAgICAKICAgICAgICAgICAgICAgICAgICAgICAgICAgICAgICAgICAgICAgICAgICAgICAgICAgICAgICAgICAgICAgICAgICAgICAgICAgICAgICAgICAgICAgICAgICAgICAgICAgIAogICAgICAgICAgICAgICAgICAgICAgICAgICAgICAgICAgICAgICAgICAgICAgICAgICAgICAgICAgICAgICAgICAgICAgICAgICAgICAgICAgICAgICAgICAgICAgICAgICAgCiAgICAgICAgICAgICAgICAgICAgICAgICAgICAgICAgICAgICAgICAgICAgICAgICAgICAgICAgICAgICAgICAgICAgICAgICAgICAgICAgICAgICAgICAgICAgICAgICAgICAKICAgICAgICAgICAgICAgICAgICAgICAgICAgICAgICAgICAgICAgICAgICAgICAgICAgICAgICAgICAgICAgICAgICAgICAgICAgICAgICAgICAgICAgICAgICAgICAgICAgIAogICAgICAgICAgICAgICAgICAgICAgICAgICAgICAgICAgICAgICAgICAgICAgICAgICAgICAgICAgICAgICAgICAgICAgICAgICAgICAgICAgICAgICAgICAgICAgICAgICAgCiAgICAgICAgICAgICAgICAgICAgICAgICAgICAgICAgICAgICAgICAgICAgICAgICAgICAgICAgICAgICAgICAgICAgICAgICAgICAgICAgICAgICAgICAgICAgICAgICAgICAKICAgICAgICAgICAgICAgICAgICAgICAgICAgICAgICAgICAgICAgICAgICAgICAgICAgICAgICAgICAgICAgICAgICAgICAgICAgICAgICAgICAgICAgICAgICAgICAgICAgIAogICAgICAgICAgICAgICAgICAgICAgICAgICAgICAgICAgICAgICAgICAgICAgICAgICAgICAgICAgICAgICAgICAgICAgICAgICAgICAgICAgICAgICAgICAgICAgICAgICAgCiAgICAgICAgICAgICAgICAgICAgICAgICAgICAgICAgICAgICAgICAgICAgICAgICAgICAgICAgICAgICAgICAgICAgICAgICAgICAgICAgICAgICAgICAgICAgICAgICAgICAKICAgICAgICAgICAgICAgICAgICAgICAgICAgICAgICAgICAgICAgICAgICAgICAgICAgICAgICAgICAgICAgICAgICAgICAgICAgICAgICAgICAgICAgICAgICAgICAgICAgIAogICAgICAgICAgICAgICAgICAgICAgICAgICAgICAgICAgICAgICAgICAgICAgICAgICAgICAgICAgICAgICAgICAgICAgICAgICAgICAgICAgICAgICAgICAgICAgICAgICAgCiAgICAgICAgICAgICAgICAgICAgICAgICAgICAgICAgICAgICAgICAgICAgICAgICAgICAgICAgICAgICAgICAgICAgICAgICAgICAgICAgICAgICAgICAgICAgICAgICAgICAKICAgICAgICAgICAgICAgICAgICAgICAgICAgICAgICAgICAgICAgICAgICAgICAgICAgICAgICAgICAgICAgICAgICAgICAgICAgICAgICAgICAgICAgICAgICAgICAgICAgIAogICAgICAgICAgICAgICAgICAgICAgICAgICAgICAgICAgICAgICAgICAgICAgICAgICAgICAgICAgICAgICAgICAgICAgICAgICAgICAgICAgICAgICAgICAgICAgICAgICAgCiAgICAgICAgICAgICAgICAgICAgICAgICAgICAgICAgICAgICAgICAgICAgICAgICAgICAgICAgICAgICAgICAgICAgICAgICAgICAgICAgICAgICAgICAgICAgICAgICAgICAKICAgICAgICAgICAgICAgICAgICAgICAgICAgICAgICAgICAgICAgICAgICAgICAgICAgICAgICAgICAgICAgICAgICAgICAgICAgICAgICAgICAgICAgICAgICAgICAgICAgIAogICAgICAgICAgICAgICAgICAgICAgICAgICAgICAgICAgICAgICAgICAgICAgICAgICAgICAgICAgICAgICAgICAgICAgICAgICAgICAgICAgICAgICAgICAgICAgICAgICAgCiAgICAgICAgICAgICAgICAgICAgICAgICAgICAgICAgICAgICAgICAgICAgICAgICAgICAgICAgICAgICAgICAgICAgICAgICAgICAgICAgICAgICAgICAgICAgICAgICAgICAKICAgICAgICAgICAgICAgICAgICAgICAgICAgICAgICAgICAgICAgICAgICAgICAgICAgICAgICAgICAgICAgICAgICAgICAgICAgICAgICAgICAgICAgICAgICAgICAgICAgIAogICAgICAgICAgICAgICAgICAgICAgICAgICAgICAgICAgICAgICAgICAgICAgICAgICAgICAgICAgICAgICAgICAgICAgICAgICAgICAgICAgICAgICAgICAgICAgICAgICAgCiAgICAgICAgICAgICAgICAgICAgICAgICAgICAgICAgICAgICAgICAgICAgICAgICAgICAgICAgICAgICAgICAgICAgICAgICAgICAgICAgICAgICAgICAgICAgICAgICAgICAKICAgICAgICAgICAgICAgICAgICAgICAgICAgICAgICAgICAgICAgICAgICAgICAgICAgICAgICAgICAgICAgICAgICAgICAgICAgICAgICAgICAgICAgICAgICAgICAgICAgIAogICAgICAgICAgICAgICAgICAgICAgICAgICAgICAgICAgICAgICAgICAgICAgICAgICAgICAgICAgICAgICAgICAgICAgICAgICAgICAgICAgICAgICAgICAgICAgICAgICAgCiAgICAgICAgICAgICAgICAgICAgICAgICAgICAgICAgICAgICAgICAgICAgICAgICAgICAgICAgICAgICAgICAgICAgICAgICAgICAgICAgICAgICAgICAgICAgICAgICAgICAKICAgICAgICAgICAgICAgICAgICAgICAgICAgICAgICAgICAgICAgICAgICAgICAgICAgICAgICAgICAgICAgICAgICAgICAgICAgICAgICAgICAgICAgICAgICAgICAgICAgIAogICAgICAgICAgICAgICAgICAgICAgICAgICAgICAgICAgICAgICAgICAgICAgICAgICAgICAgICAgICAgICAgICAgICAgICAgICAgICAgICAgICAgICAgICAgICAgICAgICAgCiAgICAgICAgICAgICAgICAgICAgICAgICAgICAgICAgICAgICAgICAgICAgICAgICAgICAgICAgICAgICAgICAgICAgICAgICAgICAgICAgICAgICAgICAgICAgICAgICAgICAKICAgICAgICAgICAgICAgICAgICAgICAgICAgICAgICAgICAgICAgICAgICAgICAgICAgICAgICAgICAgICAgICAgICAgICAgICAgICAgICAgICAgICAgICAgICAgICAgICAgIAogICAgICAgICAgICAgICAgICAgICAgICAgICAgICAgICAgICAgICAgICAgICAgICAgICAgICAgICAgICAgICAgICAgICAgICAgICAgICAgICAgICAgICAgICAgICAgICAgICAgCiAgICAgICAgICAgICAgICAgICAgICAgICAgICAgICAgICAgICAgICAgICAgICAgICAgICAgICAgICAgICAgICAgICAgICAgICAgICAgICAgICAgICAgICAgICAgICAgICAgICAKICAgICAgICAgICAgICAgICAgICAgICAgICAgICAgICAgICAgICAgICAgICAgICAgICAgICAgICAgICAgICAgICAgICAgICAgICAgICAgICAgICAgICAgICAgICAgICAgICAgIAogICAgICAgICAgICAgICAgICAgICAgICAgICAgICAgICAgICAgICAgICAgICAgICAgICAgICAgICAgICAgICAgICAgICAgICAgICAgICAgICAgICAgICAgICAgICAgICAgICAgCiAgICAgICAgICAgICAgICAgICAgICAgICAgICAgICAgICAgICAgICAgICAgICAgICAgICAgICAgICAgICAgICAgICAgICAgICAgICAgICAgICAgICAgICAgICAgICAgICAgICAKICAgICAgICAgICAgICAgICAgICAgICAgICAgICAgICAgICAgICAgICAgICAgICAgICAgICAgICAgICAgICAgICAgICAgICAgICAgICAgICAgICAgICAgICAgICAgICAgICAgIAogICAgICAgICAgICAgICAgICAgICAgICAgICAgICAgICAgICAgICAgICAgICAgICAgICAgICAgICAgICAgICAgICAgICAgICAgICAgICAgICAgICAgICAgICAgICAgICAgICAgCiAgICAgICAgICAgICAgICAgICAgICAgICAgICAgICAgICAgICAgICAgICAgICAgICAgICAgICAgICAgICAgICAgICAgICAgICAgICAgICAgICAgICAgICAgICAgICAgICAgICAKICAgICAgICAgICAgICAgICAgICAgICAgICAgICAgICAgICAgICAgICAgICAgICAgICAgICAgICAgICAgICAgICAgICAgICAgICAgICAgICAgICAgICAgICAgICAgICAgICAgIAogICAgICAgICAgICAgICAgICAgICAgICAgICAgICAgICAgICAgICAgICAgICAgICAgICAgICAgICAgICAgICAgICAgICAgICAgICAgICAgICAgICAgICAgICAgICAgICAgICAgCiAgICAgICAgICAgICAgICAgICAgICAgICAgICAgICAgICAgICAgICAgICAgICAgICAgICAgICAgICAgICAgICAgICAgICAgICAgICAgICAgICAgICAgICAgICAgICAgICAgICAKICAgICAgICAgICAgICAgICAgICAgICAgICAgICAgICAgICAgICAgICAgICAgICAgICAgICAgICAgICAgICAgICAgICAgICAgICAgICAgICAgICAgICAgICAgICAgICAgICAgIAogICAgICAgICAgICAgICAgICAgICAgICAgICAgICAgICAgICAgICAgICAgICAgICAgICAgICAgICAgICAgICAgICAgICAgICAgICAgICAgICAgICAgICAgICAgICAgICAgICAgCiAgICAgICAgICAgICAgICAgICAgICAgICAgICAgICAgICAgICAgICAgICAgICAgICAgICAgICAgICAgICAgICAgICAgICAgICAgICAgICAgICAgICAgICAgICAgICAgICAgICAKICAgICAgICAgICAgICAgICAgICAgICAgICAgICAgICAgICAgICAgICAgICAgICAgICAgICAgICAgICAgICAgICAgICAgICAgICAgICAgICAgICAgICAgICAgICAgICAgICAgIAogICAgICAgICAgICAgICAgICAgICAgICAgICAgICAgICAgICAgICAgICAgICAgICAgICAgICAgICAgICAgICAgICAgICAgICAgICAgICAgICAgICAgICAgICAgICAgICAgICAgCiAgICAgICAgICAgICAgICAgICAgICAgICAgICAgICAgICAgICAgICAgICAgICAgICAgICAgICAgICAgICAgICAgICAgICAgICAgICAgICAgICAgICAgICAgICAgICAgICAgICAKICAgICAgICAgICAgICAgICAgICAgICAgICAgICAgICAgICAgICAgICAgICAgICAgICAgICAgICAgICAgICAgICAgICAgICAgICAgICAgICAgICAgICAgICAgICAgICAgICAgIAogICAgICAgICAgICAgICAgICAgICAgICAgICAgICAgICAgICAgICAgICAgICAgICAgICAgICAgICAgICAgICAgICAgICAgICAgICAgICAgICAgICAgICAgICAgICAgICAgICAgCiAgICAgICAgICAgICAgICAgICAgICAgICAgICAgICAgICAgICAgICAgICAgICAgICAgICAgICAgICAgICAgICAgICAgICAgICAgICAgICAgICAgICAgICAgICAgICAgICAgICAKICAgICAgICAgICAgICAgICAgICAgICAgICAgICAgICAgICAgICAgICAgICAgICAgICAgICAgICAgICAgICAgICAgICAgICAgICAgICAgICAgICAgICAgICAgICAgICAgICAgIAogICAgICAgICAgICAgICAgICAgICAgICAgICAgICAgICAgICAgICAgICAgICAgICAgICAgICAgICAgICAgICAgICAgICAgICAgICAgICAgICAgICAgICAgICAgICAgICAgICAgCiAgICAgICAgICAgICAgICAgICAgICAgICAgICAgICAgICAgICAgICAgICAgICAgICAgICAgICAgICAgICAgICAgICAgICAgICAgICAgICAgICAgICAgICAgICAgICAgICAgICAKICAgICAgICAgICAgICAgICAgICAgICAgICAgICAgICAgICAgICAgICAgICAgICAgICAgICAgICAgICAgICAgICAgICAgICAgICAgICAgICAgICAgICAgICAgICAgICAgICAgIAogICAgICAgICAgICAgICAgICAgICAgICAgICAgICAgICAgICAgICAgICAgICAgICAgICAgICAgICAgICAgICAgICAgICAgICAgICAgICAgICAgICAgICAgICAgICAgICAgICAgCiAgICAgICAgICAgICAgICAgICAgICAgICAgICAgICAgICAgICAgICAgICAgICAgICAgICAgICAgICAgICAgICAgICAgICAgICAgICAgICAgICAgICAgICAgICAgICAgICAgICAKICAgICAgICAgICAgICAgICAgICAgICAgICAgICAgICAgICAgICAgICAgICAgICAgICAgICAgICAgICAgICAgICAgICAgICAgICAgICAgICAgICAgICAgICAgICAgICAgICAgIAogICAgICAgICAgICAgICAgICAgICAgICAgICAgICAgICAgICAgICAgICAgICAgICAgICAgICAgICAgICAgICAgICAgICAgICAgICAgICAgICAgICAgICAgICAgICAgICAgICAgCiAgICAgICAgICAgICAgICAgICAgICAgICAgICAgICAgICAgICAgICAgICAgICAgICAgICAgICAgICAgICAgICAgICAgICAgICAgICAgICAgICAgICAgICAgICAgICAgICAgICAKICAgICAgICAgICAgICAgICAgICAgICAgICAgICAgICAgICAgICAgICAgICAgICAgICAgICAgICAgICAgICAgICAgICAgICAgICAgICAgICAgICAgICAgICAgICAgICAgICAgIAogICAgICAgICAgICAgICAgICAgICAgICAgICAgICAgICAgICAgICAgICAgICAgICAgICAgICAgICAgICAgICAgICAgICAgICAgICAgICAgICAgICAgICAgICAgICAgICAgICAgCiAgICAgICAgICAgICAgICAgICAgICAgICAgICAgICAgICAgICAgICAgICAgICAgICAgICAgICAgICAgICAgICAgICAgICAgICAgICAgICAgICAgICAgICAgICAgICAgICAgICAKICAgICAgICAgICAgICAgICAgICAgICAgICAgICAgICAgICAgICAgICAgICAgICAgICAgICAgICAgICAgICAgICAgICAgICAgICAgICAgICAgICAgICAgICAgICAgICAgICAgIAogICAgICAgICAgICAgICAgICAgICAgICAgICAgICAgICAgICAgICAgICAgICAgICAgICAgICAgICAgICAgICAgICAgICAgICAgICAgICAgICAgICAgICAgICAgICAgICAgICAgCiAgICAgICAgICAgICAgICAgICAgICAgICAgICAgICAgICAgICAgICAgICAgICAgICAgICAgICAgICAgICAgICAgICAgICAgICAgICAgICAgICAgICAgICAgICAgICAgICAgICAKICAgICAgICAgICAgICAgICAgICAgICAgICAgICAgICAgICAgICAgICAgICAgICAgICAgICAgICAgICAgICAgICAgICAgICAgICAgICAgICAgICAgICAgICAgICAgICAgICAgIAogICAgICAgICAgICAgICAgICAgICAgICAgICAgICAgICAgICAgICAgICAgICAgICAgICAgICAgICAgICAgICAgICAgICAgICAgICAgICAgICAgICAgICAgICAgICAgICAgICAgCiAgICAgICAgICAgICAgICAgICAgICAgICAgICAgICAgICAgICAgICAgICAgICAgICAgICAgICAgICAgICAgICAgICAgICAgICAgICAgICAgICAgICAgICAgICAgICAgICAgICAKICAgICAgICAgICAgICAgICAgICAgICAgICAgICAgICAgICAgICAgICAgICAgICAgICAgICAgICAgICAgICAgICAgICAgICAgICAgICAgICAgICAgICAgICAgICAgICAgICAgIAogICAgICAgICAgICAgICAgICAgICAgICAgICAgICAgICAgICAgICAgICAgICAgICAgICAgICAgICAgICAgICAgICAgICAgICAgICAgICAgICAgICAgICAgICAgICAgICAgICAgCiAgICAgICAgICAgICAgICAgICAgICAgICAgICAgICAgICAgICAgICAgICAgICAgICAgICAgICAgICAgICAgICAgICAgICAgICAgICAgICAgICAgICAgICAgICAgICAgICAgICAKICAgICAgICAgICAgICAgICAgICAgICAgICAgICAgICAgICAgICAgICAgICAgICAgICAgICAgICAgICAgICAgICAgICAgICAgICAgICAgICAgICAgICAgICAgICAgICAgICAgIAogICAgICAgICAgICAgICAgICAgICAgICAgICAgICAgICAgICAgICAgICAgICAgICAgICAgICAgICAgICAgICAgICAgICAgICAgICAgICAgICAgICAgICAgICAgICAgICAgICAgCiAgICAgICAgICAgICAgICAgICAgICAgICAgICAgICAgICAgICAgICAgICAgICAgICAgICAgICAgICAgICAgICAgICAgICAgICAgICAgICAgICAgICAgICAgICAgICAgICAgICAKICAgICAgICAgICAgICAgICAgICAgICAgICAgICAgICAgICAgICAgICAgICAgICAgICAgICAgICAgICAgICAgICAgICAgICAgICAgICAgICAgICAgICAgICAgICAgICAgICAgIAogICAgICAgICAgICAgICAgICAgICAgICAgICAgICAgICAgICAgICAgICAgICAgICAgICAgICAgICAgICAgICAgICAgICAgICAgICAgICAgICAgICAgICAgICAgICAgICAgICAgCiAgICAgICAgICAgICAgICAgICAgICAgICAgICAgICAgICAgICAgICAgICAgICAgICAgICAgICAgICAgICAgICAgICAgICAgICAgICAgICAgICAgICAgICAgICAgICAgICAgICAKICAgICAgICAgICAgICAgICAgICAgICAgICAgICAgICAgICAgICAgICAgICAgICAgICAgICAgICAgICAgICAgICAgICAgICAgICAgICAgICAgICAgICAgICAgICAgICAgICAgIAogICAgICAgICAgICAgICAgICAgICAgICAgICAgICAgICAgICAgICAgICAgICAgICAgICAgICAgICAgICAgICAgICAgICAgICAgICAgICAgICAgICAgICAgICAgICAgICAgICAgCiAgICAgICAgICAgICAgICAgICAgICAgICAgICAKPD94cGFja2V0IGVuZD0idyI/PjN0k9QAAAAgY0hSTQAAeiUAAICDAAD5/wAAgOkAAHUwAADqYAAAOpgAABdvkl/FRgAAR1dJREFUeNrsnXmYFNW1wMs1yTO+mESz+Z5BNlkERRZlPQf1aYy7UWDYkZ2pe6vHuCUaYzC4G42JS4yaqAnM2t117+1BVMAN9xUVQcUFl7iiKCrIct4fVdXdM9Mz09XdM9M9c+r7fh+IM9VV1VX3V/fec8+xiMhiGIZhGKa04YvAMAzDMCx0hmEYhmFY6AzDMAzDsNAZhmEYhmGhdwoiMWRKjQRawqBlu2gJ7f13JI6WUGAJA1ZEoSUUWjLA9XBctIQGy9Zg2RotadBytPcztgHv5xr9njBgyYT3e04cLVuDJRVYUqElDO4tNHQTGoZKA0cKg1PLNU4UGiNS4yKpcaHU+Dtb44xygzOki6dIBaOEhr5S477eZ3jHLIz3GUL5x2HQkgYaIBRajkL/7+D9vI93XGg5cbSEC5Z0/X/z9ytdsByNlq3RchL+NcuAU+9dp0iU77OwcHvKQmdY6EzpCP1HtoZfSAURqfBPwqARGp4WGj4QGr4UGkho2On/mYlvhIbPhYa1UuNyqfDvUsH5wsAZwmBfFjoLnWGhMyx0FnrbCP2nwsB4afByoeEZoeHTFmSdL9uEhteEgsVSoS0NDmKhs9AZFjrDQmeh5y70HlLhLKFhudDwSRsKPBtWSwO/lwaOYKGz0BkWOsNCZ6G3LvRdbAMnCAV1aUPnxcZjQuFZjsb/ZaGz0BkWOsNCZ6E3FPq+0sD5QsPzRSrxTHwuNPxNaDychc5CZ1joDAu9qwt9f6HhMqHh4xISeSZqhYaRLHQWOsNCZ1joXU3oewsNC4WGz0pc5I2J2hqGFkToCRzsuHgKC52FzkJnWOhMUQpdKJwlNbzeyUTeAKnxZieOP2tR6Mbvgce8a9aAGFpSwWKh4WUn7r0cMNnD7SkLnWGhM20ldBctqbG/ULBMmM4r8kZ8JBRMlkESnAxClwqaG1LfQyj4XGggJ44/Zkmz0FnoDAudKRahnyMMbOsiIm/MHbaCfTIKXUPG6ypdtJO/b6DMNt7PM9nB7SkLnWGhM4UX+o+EBreLijyJrWGDNHhq4zl0YcCKxMGqiGKSSBz3FgY+LFejyNZjSGi4y/Z/nskObk9Z6AwLnSmk0DUcKzS81dVl3kjsFzcQesJfx+6mpiYcNfbKcjWKZkYHU7kaTVLjRtvgXixqFjoLnWGhM+0r9BhaQsHZLPCMQiepwHU07h300G3tZZ4TCi3bYI9yPXr73PjhVLn6T/SbZSfTAjWSbAWn2QosJju4PWWhMyx0pgBCly7eYLO8m8cLCnxWaOwmEl4ymmC43dFjl0+q7kPXPDyfiIiuWyVpSk0/cgz8PZIAi8kObk9Z6AwLnclP6LtKA9Us7ax5TyRgkNRepLtUOH1efDhNrelPr3z8DBER1a/7B42v7EFCwwZH4R4RhRbTOtyestAZFjqTo9CFwl2EhmUs6dC99a1SQ08njpY0YzefsaQb3fnsIgq2dze9RvPiw2lu/AiSLo7iJWm8bI2FzrDQmbYU+m5CwXIWdM68IRNjV02t6U/nLP0lfb3tS0rfFt0/jabVDiCp8XKWNQudhc6w0Jm2waAlDCiWcj5Z5cbS7NhQmlrTj9Z+9CQ13mJrbqRxSw4kqeG5IHUu0zLcnrLQGRY6kyUVfnYzafDfLOW8UsTSAnckja/sQcteuYsyba9+8hzNrBtE89zhO2QC+8kEWkzLcHvKQmdY6Ew2+MOaUuGlHM2eL2No3JJudMczl1Bz2/ad2+ii+86gGbWHkGPQdrzCLUwLcHvKQmdY6ExrRNGKeOunp7OM8++dn774ALrmofnU2nbXs4uorKoXSYVLnRhaTMtwe8pCZ1joTDZD7Qr7d6ECK20m83FLutHCFRNpy7avWhX6U+/eRxOrepNQY74QCn8gNCaT0TBN4faUhc6w0JlWeudOHHcXGtawlHMXudBAZyzuRpesnExfb9tM2WyfbfmIIomjaGZsMEmFxztxr/QqkxluT1noDAudaQWp4Hbunecoc4O0QI2icUsOpKsfmktfZSnzYLvm4fk0paYfSYVXyDhHsnOUOwudYaEzucpc469YzLnKfCzNjR9O4ysPpFuf/B3lsi1d90+aWN2bpMGnOZKdo9xZ6AwLnckJJ477CA0bWc7hccxYmlF3CE2q7kPRl26gXLfXPnmeZtQdQrYas81J4P9wNDtHubPQGRY6ExqhsZLlHH6+3NZjqKyqF9lqND35zr2Uz7Zl21d04T2n0Zl1g8jWONnWXqU2pincnrLQmQ4mqDjFFBdOHIexoMMPsc+ODaFxS7rTZffPoI82v0OF2G56/FyaVNWbbI03cN1zrofOQmeKFl5uU4S4aEkNT7Gksw98K1ejaUJVT5oVPYz0y3+nQm7LXr2LptT0J6HhGanBYjLD7SkLnelgyg0yRYZt4AQWdTZ4y9Gm1Q6g8Uu605UPzqY3P32JCr29vvFFmhUdTLYavTWSwJ9EEl6BHKYh3J6y0JkOhocKiw+h4RmWdesynxUdTOMrD6Tzl51ID74Ro7batmz7kn677BSaHRtCwuCvhEaLaQq3pyx0hnvoTNAz94R+Msu65aC3mdHDqKyqJ51V/39Uv+522rr9a2rr7YbHfk2Tag4iqeCySJQDNjPB7SkLnelgOCFG8SAU986bk3i5Gk1Taw6msqpedM7S4yj20g30xdZPqb22+JobaWJVb7LVmHrhgsU0hdtTFjrT4cvWgCkSnDiMZoE3XH42MzqIJlUdRJOr+9LFyydQ/brbafPWz6i9t6feuZfOrDuUFqhRH0gD35IGLKYh3J6y0JkOn0Pn9bPFgtBQ1ZUlbusxNDd+BJ1ZdyiVVfWissqe9Ov6Y+jWJy+k1e8/TDt2bqeO2t7/4i1a4I6k+e4IiiTwEA6C46A4FjpTdHDZx+JAxvFnQsPWriDtcjWK5rsjaF78CJoTG0rTawfShMqeNKGyB82JDaML7jmVbnvq9/TIBkOffv0RFcP2zY6tdOG9v6JZ0cEkFHCCGU4sw0JninDI3UWmo/GqeJ1dWlIeTeVqFC1QI2mBO9LvvQ6n2bEhNDs2hM6sG0TTagfQtNoBNLm6D02s6k1nLOlGZVU9aXrtAJodG0rlahT9uv5YuuKBWXTXs5fS8tcq6dWPn6VtO76hYtxufOxsmlzTl6SCa504WExDuD1loTMdLfR6bJ0EWk4905ZIA6uLVeDlahTNig6mqTX9qayqF02u7kPTawfSzOhhNCc2lObFj6D57giy9Rj67T2n0G+WnUyXrJhE1zw8n65+eB797Ynz6R9PX0xVq/9E6uVb6OE3XVr9/sP07qb19OU3m6hUtpoX/0xnLOlGUsFSx8u1z6TB7SkLneloocexITG0IhotadCS2v+7AksqsByXKThxsKSCQcUVUT7K71n3pam1B9Ps2FC64J5T6U8PL6Dbn7qYal+8nlasr6In37mHXvrgMXrz0zX04ea36eMv36Mvv/mcNm/dRNt2bKXOtj30RowmV/elcjX6Vdvgt2yDFpOC21MWOtPRQo9iQ+rQiii0hPGWUUUUWkKBJVzv/3NPpMDE0JIunt2R9c6D1Kkz6g6hiVW9aEbdoXTx8gn09ycvoAfeiNJbn75MX3RAZHmxbS998BjNiQ2jee7wbUJBt+BFl/Hg9pSFzhRbtbVoU6FLFyzbgJcRyoAlvPSkTIEQBpZ3VG98vjuCJlX3obKqXnThvadR1epraO1HT9H2nduIt6aR7kIDzYkPIxnHkRzM2RBuT1noTKkJXQOnZy0s3xMaNnfEsPrEqt40vXYAXfngbHpsw1Lasv2rLifpnbQzRKT7Fjp/2Uk0M3oYCY2zOd0rp35loTMlLnRs8Hcmb45rz/znUqM3P17Tl65dVU4vvv9Il+xt79i5nbZs+zKU0ImIrnxwNk2vHUhCw5VCj7GYFNyestCZEhS6MOD11BX31gvAJe1VK3y+O4LGV/agC+45jZ54e1mXHj7f+NUH9Mana0L/3t+eOJ8mV/cloaGK0xU3hNtTFjpT6kL359QFR/nmhDCo21rmjhlLZ9YdSpOr+9Jdz13WKSPQw27PvHc/vfXpy6F/b8nzV1NZdS+SCh7moE5etsZCZzpZDz0VLMf5rEOzq9DweltHsE+q7kML3BH0+Nt3c2QbEW3Z9hXVvng9bdkWPmbArL2Nxi3pRkLDGtvgbvxSysvWWOhMpxK6rdFyDFpOggnJ/wgNO9pyvrysqhf95p5T6N1N69nk/vbgGzGKvvTXnH53xfoqOmPxz0loeE9q3E9qL18Dw0JnoTOdp4euscHfmazAtoxkH7fkQLpk5WTaXELZ2No+GG4HXXr/dHr5wydy+v0n3l5GU2r60QJ31FahoI9QYDEe3J6y0JlOInTpL2njhi0UM9pK5mWVPWnhykkllVq1PbZlr95FF9xzWs6///S799G02gG0wB1JQsNg4VXJY7g4Cwud6YRCb1gOlGkBW8NFbREAN7m6D5179/G0+RvO7pa+bduxlWbHBlP9K//MeR9rPnycZseG0Dx3OAkNR/N9zEJnoTOdWuhCg+UYrg/dGtLAjYVemnZm3SCaFR1M72x6jQ3eaLvr2UtpSk0/+mrbFznv442Na2iBGkVz48NIaDieRc5CZ6EznV7oUqeWs/FceXPA4kJXRSur6kWPbVjK9m60vbPpNTrhjh9S5fNX57Wf9Z+8QPPdETQ3fjgJDcexyFnoLHSm0ws9NfTOyWOaQ2ioKeRQ+4TKHnTbU79ne2fY/rCijMZVHkgbv3qfhc5CZ1joLPSwQk/11nlJTyaEhgcLFQQ3MzqIKszRXBUtw6ZfvpXG3roH/fPZS/LeFwudhc5CZ7q00FnqzQp9VaF66BMqe9B9r1WyvRttaz96isqqetL02oH04eZ3WOgsdIaFzkJnobeJ0B8uRAKZabUD6OLl42nHzh1s8LTti62fUkXiaDr+ju9T1eprCrLP1ze+RAvckSx0FjoLnemiQg9+V7HECy10W4+m8ZU9aOXrtWzwtG37jm102f0z6KS7fkSRxFG0uUBTES+8v4pmRg+j+fHhJDScwCJnobPQmS4ndKnRslnojYX+aL5CnxUbQmfVH0Nfbv2cLZ623frU7+j0xQfQ6Yt/Tstevatg+3363eXpiWWQRc5CZ6EzXVbowq/OZvOyNUto0PmtO0caX9md7nxmERs8bYuvuYnGL+lOEyp70O+Xj6edO3cWbN+r3lRUVtWLbDWahIZDWOQsdBY607WFnsCk1Lv4srWqfIS+wB1JU2r60fP/eZAt7m8PvBGlCZU9k+Vi1338dEH3v+zVu+j0JQeQ0LBJauzWxUeYks++VFychYXOdEmhy4RXna2rr1MXGm7JR+hnRgfRuUuPp6+3bWaTE9GjGxI0rfZgmhMbSuOWHEhL8kwik2mrfuE6KqvsSULDBqlxn64nca9tcFzvebcNWE7caze4PWWhM11U6NKgJRRYUmFXHqb8Qz5Cn1Ldl2567Fw2ORE98pamKTX9aVZsCE2tOZguum8cbduxteCfc/Pj59OU6r4kNDzXJV9C/drnMu5XWGShs9AZFnogdCcezKt3Sebls1xtQmUPuvuVO7u8zB9+06XJ1X1pVnQwzYkfTrNiQ+jtTa+0yWctWjmVZtQeQkLDvV1rNMn7Uxr/GWahs9AZFnqTHrqLqd/vennfj8t5uZoaQ5OqetNz7z3QpWW+Yn0VTa7uQ7Oig8lWY2hc5YF0/+t1bfJZX36ziX5dfyzNig0hoeHWrjSaJP1gVhY6C51hobcodKnQki5a5V0vUO6gXIU+N344zXdH0BsbX+rS0exnLO5Gs2NDyTFH0umLD6C/P3Vhm33eqx8/S3PjR9C8+BEkNJ7ThVZjsNBZ6AwLPZzQk0loug57CgMf5CL0mdHD6Nylx9PGrz7okjL/59MLaXxld5oXH06RxFE0YUkP+t29Z9A327e02Wfe/3oNTazqTbYaTTKBJzoJtDo7yeeUhc5CZ1jooYXe1aSucUUuQp9Rdwj97r7Tacv2r7qUyD/f8gld89B8mlDZgxa4IylijqIp1f1ogTuKPtr8bpt+9l3PXkrjK3uQ0PCNNNDdMWB1diT30FnoDAs9F6HbGizpeg2EdL2lMZ2aOFpS4VXC5Cb0C+/9VZdasvbKx8/SectODKRKjjmSptcOpBl1h9LrG19o08/esXMHXbx8PM2MHkZCwxqhYFehwOq0uGAJNYaH3FnoDAs9D6ErsCJxtCIxsJx4JycGllQwnoXe+nb3K3fS9NqBNKWmH0kzlqQZS7NjQ2h67UB6rh0S67z56RqaExtKC9QIkgr+FYli02enE+G4yEFxLHSGhV6AHrqLjXoKnbon9D9Cw7bwQh9Iv7vvDNrayYfcP9+ykf7yaAWNX3IgzYoOTsp8TmwoTazuTU+8vaxdjmPpK/+kSVUHka3HkNCwQKhOHNGuIClrFjoLnWGh5y10R6PlaOjUvaAAoeHZXHroF9xzKn35TectyvLMeyvprPpjaNySbrRAjUrrmQ+lsspetHx9+9V/v/LB2TSlpp831B/D/k4cLSfWCfHPSyoWOgudYaEXUOhSgxVRaDn1aEUSnRfH4KVhhT47NpQcPZbe27S+04l8y/Yv6Y5n/kjTagfS9NqB5JixyTnzmXWH0bgl3emeV//Vbsez4bN1NDs2lMrVKBIa1jguWJ2ZiigLnYXOsNDbQujaE7rs3EuDjsylMMuM2oG09sOnOpXMV72l6Zylv6Syyp403x1B0qAv87E0vXYgTasdQA+8EW3XY6pcfQ1NrOpFQiNJA3+O1IPVGXHqwYq4XhvAQmehMyz0thF6Aq1yjVa5gs6Jhm8JDW+Flfr4yu70wBt1nULkaz96iq58cDaVVfai6bUDSWpMKxM7lqbWHEwz6wbRk+/c167HtWnLRnLMkUF2OLINjhXGfz46AXZAwnsOK6IsdBY6w0JvwyH3inqvOps0kBmd9mfpsiis0CdV96F/PH1xSYv83c/X0+1P/Z6m1w6ksqpeVK5GJ3vlQgNJjTS5ug9FEkfTa5883+7HV7/udhpX2T0Y9n/NqxBYwqiGCOVlLSzXDdsAFjoLnWGht4nQI/UeFQm0KjRaFaYRjeek60sPmcD+YYU+3U8us3PnjpIT+Xufv0F3PvtHmu8Op/GVPWhe/AiS/ly51ytHKlejaPyS7rRwxST6+Mv32v0Yv/rmC6pIHE1n1g0iYYCkC5dEomBFYqWFE2/09zhYMu49u45KPZssdIYvAgu93YQe0WhF6vxjTMeg5bhpvxsvPSJxtKSCh8KsSZ/vjqBptQNo7UelM4/+zqZX6a7nLqW57hE0vrIHzY4NbdAjD+bLZ0UH07glB9LfnvwNbd/xTYcca92Lf6EzFncjqZFsAyRd7FuS91bMe77SkzUFzxsLnWGhs9A7TuiZEnqkCV36+wgasFJCaCwL00OXGmnckgPp389fUdQS37FzG63+z0N08xPn07z4cCqr6kVzYkOT0evp5yM00qTqPjS19mBKrL2tw475gy820OzYEJodG+oFwylYWWrJZCqiQTbC1PPLQmdY6Cz0khF60MjYBkqx+tpuQsOGMFKfExtGQgN9+nXxFWl589M1pF6+hS5ePoHOrDuUJlUfRPPd4Q0C3tJlPi9+BI1bciBdeM9ptO7jpzv02K9bJaisqqc3emCAHBePKxWhO8lsbw2fB6lY6AwLnYVeYkJvUORFYWmhQYSbS/d66UtWX10UEn9944tk1t5Gi+6fRnPjh9P4yh40vfYQKlejmx1lEBpoSk1/mlF3CN317CLauv3rDj2HFeuraUJlT7JTx/xiqb0cStd7foLngYXOsNBZ6CUv9ORxl47Udxca3g1bG31WdDBt+Gxtu8tv89bP6Ol3V1DV6j/RwhUTaa7fy55WO4DmxYeT8FKlZsQxY2lm9DCaUNWTFq6YSC9+8EhRvJDMqDvETzPrvWzYGk8tFZEHz6j3XLHQGRY6C71TCR1LT+ohe+nSjKXJ1X1o4YqJRLSzTYW3fcc2eu3j52j5+ir662Nn0Xl3H0+Tq/vS+CXdaXrtQJobPzyr4w3EX65GkVl7a1GMLmze+hn9uv5YmlpzcPr8/gulInKZfA5Z6AwLnYXemYVuUmtuix6Fu9sa3gkXIAdUVtmT/vH0H9okMn3VW5pue+oiumj5eJoVHUwTq3rRlJp+dGbdoVSuRjWJVM8scvTzsPekM+sOpX8+cwl98tX7RSHzrdu/pktWTqaJVQells95ke1HFnMEuze03hAWOsNCZ6F3YqF7n2vrkpJ6Wdh16eVqNE2o7El3PXtpzmL7ettm2vDZOlq5vobuenYRLbp/Gs1zh9PUmv40ubovTa8dQAvUyIyBbc3Nkdt6DM2MHkbjlnSj+e5wuuWJ39DrG18smuC9r7d9SQtXTqLxlT1S52WApIL6SNSLFi866jyhC81CZ1joTBcVuhMv0gY6A1Ljw2GXsS1wR1JZZS/662Nn0RdbP21VZl9s/ZTWfPg4JdbdTrc8+Vu68N5f0dz4ETStdgCVVfXyBO6ODF2v3VsnP9wbjq/sQb+uP5aWPH8VvbPptaKKxP/kq/fp4uVlNCFd5hrINrBTKuwRiXo5Aooqij1YiqZZ6AwLnenCQk9GAJfCunSD/YSBnWGlbqvRNKGqJ5139/H06IZEUl7bdmylNzeuoftfr6HK1VfTVQ/NobPqj6HZsSFUVtWLyqp60azoYFrgjkyP8A49SjCtdgCVVfakee5wuurBObRifTVt2vJJ0S2re/nDJ+nspcdRWVWvTFMGvy+6eXKVFviWYKEzLHSGhW6Vm0ZBaG6RBsd5jfJvwosVSRqk6bUDaVL1QXTVg3Pohsd+Tb+95xSvB1/Vi8Yv6U7TagfQnNhQmu+OILuFaPRsMtZNqelHk6v70KzoELpkxWSKrbmRNny2rmgT3URfuoFm1B1KU2v6N0g567M6vTdcDJnevGxvKYkLw0JnWOgMC90qN97nVQT7iqNVESu+Ifez/HlS28DD2Ujc1mNoTmwozYweRnPjh5M0Y6lcjaJptQNoak1/OrPuUJoTP9zvfWNO8g6GpWdFh9Dk6r40ubovzfd74nUv/bVDCqiE2V764DG6ZMVkGl/ZnebEhjWRua2BhIKDm6QX7iAqgiH/uPe8BM8bC51hoTMs9LQeekXUb/QMWI5JixpWnuA7OjNYkLpTKPxfoeGbZnvjGmlG3SE0ubovRcxRdP6yE6lcjaayql40O0OK1VwkvsAdSTPqDqVJVQdRWVUvchJH0nWrBN332mJ6e9MrVOzbmxtfopsfP5+m1vSnSdV9SOgxmTPWGTzLSXj3VEdTYbxiRMI0fEZY6AwLnWGhNyd0DZb0e+3CRUsk0HI0WE4sNeRZEe1YsUsXx9kms2wnVfeh395zCj30Zpz+8/mb9NnXH9OGz9aRXntrck47F6nPc4fTmXWH0vjKHjS1pj+dv+wkuuXJC+iRDQn6aPM7VArbmg8fp1ue+A3NiQ+jsqpeNN8dkWmI3UOBieiGlfs6DOP9KQxY5RpY6AwLnWGh5yR04wlduqmkNMm5zI4QezQIkoPLGq/rnlLdjxaumESfb9mYUWgbPltL0oylM6OHZrVWfL47gmbUHULjlnSjWdHD6Hf3nk6Ln7uCnnlvJX31zRdFL/AdO7fThs/WkVl7K/1x5VSaGT2MJlX5OeSbE7kBEgrWR+K4d1Hka496+dhFWh1zFjrDQmdY6PkKPWhAEw1Ls3ZUwy8VxIISq3Niw2he/HD6sJXe8mMbltLk6j7N5lO31RiaUXeIXwXtcLpk5RRy19xMr3z0TEn0wj/56n164u17qOaFP9MlKyd7Fd0qe9G02oOpXI1qfTTCwGdCYfdiKq5ip93HLHSGhc6w0AspdAPez/pLhxy3A3rs3nezuzDwlFfQpC/d+Ng5WfRad9BF951B02sHNhH5nNgwiiSOousfjdCK9dX0/hdvFaW0t2z7kj7c/Da99snz9NjbSymx9ja67amL6JKVkylijqJptQNo3JJuNKPuEJrnDvej9jEbmW8XGkYJVSTlTt0gmj1Nxix0hoXOsNDbQOiuX83K+A2o245z7MF3o/FHQsOasqpelFh3e1ZCvOaheTS5uk9aNPcYKlej6PIHZ5J6+W/0xNvL6IX3V9GK9dVUtfoauvGxs+nmx8+jKx6YSQtXTKQ/rpySZOGKSXTp/dPopsfPpZseP49uevxcuuGxX9MtT/6Wql+4lqpXX0tVq/9Elc9fTWbtrbRyfTUtf21JK1TSivVVFF9zI1WuvoYqV19Df3/yAvrzI5IuWTmZLrjnVDor8X80L34ETazqTeOWdPMz1w2k2bEhfvKb8JH7UsE4qTxBdfgwuxvImIXOsNAZFnr7Cd3HDq5TvF2FbgmFP51Y1fv9+Ms3ZSX0qx+aS5Nr+jYQujRj6Q8rJtL5y05K1iufXN2HptT0pSk1/WhKTT+aWtOfptYcnJHgZ9IJlrKl6EOTqg/KmsnVfZK/m/75QQW0uf6yO5njsru0THAkXZxbEe3g1Qxpn81CZ1joDAu9I4WuU/Od0oX2FLo1vfbgXlc+OLvVXKpbtn9FZy/9Bc2MHtZEbHPiw2i+OzwvOZYatgGSCkVFkQTARQxaETctNzsLnWGhMyz0jhW68H/HibeP0Oe7w63Z0WE/efGDR1e3JPT4yzdTWVWvLiXtFofZXZxTLNHsERetyFIWOsNCZ1joRSl0ocESCgofDd9I6OXuSGtu7HBLr731B9t3bFueSeb3rV9C02sH0rz48Jyzw3UiPhcGju3IVQosdIaFzrDQS0joUgWNMFiROLSZ0Be4I6z58RHW4+8ssx5eH7OufmDuPx7dUE+r//MQPfhGjK57RNKUmr40JzYs72xxnYB1QuMgYcBiobPQGRY6C52FHk7obmqpW0Ei4ZsR+rPv32+tfKXKOvaW/7LKqnqd7SWGOZCm1vSncjWq+YQqXQEvacxSR+E+gYxY6Cx0hoXOQmehhxe6i1Z5wvv/eUu9GaE//Z8V1kOvRa1J/+5tlavR1oL4yKOEHvMOz5cDCQ1/FAosR6VkxEJnoTMsdBY6Cz0noSePQYEViUEbCr2X/7loCQX7CQ13dmGRr5cKj0mJi4XOQmdY6Cx0FnohhK6D881jeVsIoacN+ZcJDf/pYjK/SRrcJ/2+KrTQC7LkjYXOsNAZFnopC91vSOMQXiq5CN07hp9Khbd0AZE/7LgIUqF3jxVQ6OkCd+Led5z3iwELnWGhMyz0TiB01z+3aNsLPWjEbQ2HCw2qE4r8NcfFM6WbqmdfSKE7cf/e8L9Dx0WrPMFCZ6Gz0BkWOgs9EHpwTu0l9FSjfqLU8EDJR69reEUqkI6L34nEU/dRIYTuxNL2pYLAxpTQbcNCZ6Gz0BkWOgs9ELpp5bzaQOhC+SVgve/4SKEhJjTsKDGhvygVlDsufsc7N+8c8xJ6tHE+dT+db7APw0JnobPQGRY6C71ohe5dH6lwgFRwuTDwZhFL/EuhwbUNnubNX3uSzlvofnGWYF7cu2/8/bDQWegsdIaFzkJvM6HrhkJfEB9pPfP+ynyFbjkuWHYC9pQKz5AK7xAaPigOieNyoVFIhT2kQstOBAFp+Qm9oi5N5P69krpvWOgsdBY6w0Jnobel0GNemVapvM9b4I6wZkeHWWs/ecp6/u0HrAl3HZiv0C2Zauy/bRs4QRq8TBhYJTR83Q4C3y40vCo03igMzJMKDwjmsAMKJfRIzPs+bNNI5ix0FjoLnWGhs9DbReh1/jyv/x3MjA2xbn7yfOuOJxZas6oHFVLoXmOd8M/dxR9JF44WGi4QCm4SGlYKDRt8Ceci74+FhqeFhhqh4XKhcZKtsbvQsEfqeqNVaKFL/zvwzr25+5WFzkJnoTMsdBZ6Wws92lDoTuIoa2rtAGtazQCrwhzd4DMKLHT/+o5JLeEysLfUcIB0cZCt8ZdS4wypcabQMF9o+KPQcLkwcJb/73NtjadIgyOlgZ5Cw76BfIJrnLqOhRd6xE3JMil0zUJnoTMsdBY6C71IhC4MNhGTo/zPire50D3pNbommb774FpJg54cNFjtJnRfOkI16qGz0FnoDAudhc5CL2ahBw13xEVLdHGhJ9ffuyx0FjrDQmehs9BLUegKrQrjy9tN9VS7gtAdX+iChc5CZ1joLHQWemcQesSkfk/GmwpdqkBypSF04QsqkHlEpwndj/53FAudhc6w0FnoLPTOKPR404ZaJrxjDxp3kS7StHOx/e8qeV7tKXSdmipI3m/BucXAcrR/7RL+96/8v+vUObLQWegMC52FzkLvOkJXTYVuN/7uAhGodhS6m5ouyCh0lSb0RNo9oljoLHSGhc5CZ6Gz0FsUenC8yd9pJPTg5zMdU/AZkXggroafF1wjL+ELpqYGshV6goXOQmdY6Cx0FjoLPZTQIwm0nLRrKhRatt97FwZbFno0VVtc+kvJvGOGZN1xFjoLnWGhMyx0Fno7Cb3C/w7Lg2uQrdAzVDhrDAudhc6w0BkWOgu9lIQeY6Gz0BkWOsNCZ6Gz0FnoLHSGhc4UXOj7So1DhYaThYYpjfiVMDBSauxrK/xOOwh9RPKzDZxoG9yrAELfRxg4SiqYKhSeY2u8Umq8U2q83da4yNZ4jtAwSWgYIV3cq52Fvput4f/SrvdYqXCXPIQ+xNYwLu0aniAV7hVS6LvaGo5MO6bheQj9e8LA8ULDFFvDOKnwwAII/XvCwDBbwy8b3atlQsNRwuBA6eKeRSz07sLASbbGBULj9VLjv6TGf/jcKTTeLBWeIxWcLjT2LIDQD5QGZgqDf5AGzxMGTpNx/DYLnYXOdA6h7yE0HG0ruEpoeFxoeD+L6lpbhYbXhYGHpMGrpMFThIJuBRO6gmOEgicyfO5btsELchD6vlLhDKGhXmh4N0QVsbeEBmNrOFO6cEBbCt3WMEsYeCXDMayVGqdGElkLfbjQ8Deh4aXmzkkq+E1Smi0I3TY4UWh4uck+DKwWGk/L5jwDoUsXFgkN7zTa1xfChcWOxv1DCV3hcKnwD/79+k4r3+FOoeE1YWCpVGhLhQM6XOgaD/WP/0mhYXO4mvLwuG3gPKmwT0ih7y40XCc0fJ5hv+ttAxMFC52FzpSs0PcRGi4UGtYUqP7150LBvVKhI13slqvQHYPThGn1s+7IRuhS4Y9sDVcIDe/lfX4KPhMK/mFrHN4GQr+8tc93DJ4XRI43I/STpYaHsz0faeBmxzQjdK8n94eWft82QNKF8qyErkG3Vn41ksABWQh9htCwqgD3alxoxPYXOp4iNNxToOftG6ngn46LfbIRujCwvNV9GpAsdBY6U3pCPyuLnk0+bBEaaqSCE1oUep1/jNFkY3pQtp9hazzPGybMLHShQEivTndbnN9ioaBvgYR+chYvMJ6EFRwn/BGQipTQfyw0LMntPPBUmcwoh2nz7nh8Vt9BAshxcXRFnXc8wcuG4xOJoSUVXJfl+b0tNe4tjfeC0kDoBo8UGh5rg+9xiePiT9pB6EcLDQ+20b34tdSwsKnQwSMKllRwZbb3mBPHQ1noLHSmBITuaBwkQvTiCsQDUsNUJ13oforP5BB9qrLWv8IMP0YS+P10ifpCP0BoWGG3/XltFhoqshG607wIdhEaXsz6Mw08V25wl5TQ4Whh4O08zuERW3s9c2m8nnokgbvKbI/JAEkFDwU546X/8pZM4Wqyf0ETBki48Hsn5t0PkaX+vavg4jb+Ht8RBk5sE6Eb/I7QcEN7PGe2hqcchUMCodsqGRfzE6FhW9YjNxpijsEDuD1loTPFLfSThYavs31TLzRSw0MRgwOSQvezlKXJYE9bw0fh9okTpfbmln3BDRE6L8GFw7uW9zkuHtCc0J14WhBWUw4O33BjL3+/UwszkoIHNIquHhZ6PwnsKRPe0LiThkzguWGupVTwtIzjbhGDVkU97iI1VtrtdX+6GCmw0AcIA8+35/MmNWyVGk+yFSaj5oXGWSH38bFM4AxuT1noTPEK/fiOkHiGRvsLx2B36S+ZcVx/eNZLIdozh/1dJF2wKqJoOXE80Q+A6ohzey+SwCEZe+hRb7rBS6PahNPCnzMeJjX2K+CxD2u01OuE0CJJ4ElJiae9sEiNfwm5r0+kwt0iGi2ZgPoO+B5nO8ZfAdAczfXkA6HXo+Vo/IVQ8GVHPWe2wmnSGyGxpMYLQv7+dqFxIbenLHSmo4UebTQnXYdWRGFvYeCbohC6BhIKXRn3U4W6XlCbz6Ac9vdnocCSGkYUwbltjtTjoExC94ZfM66TnhTyM7Y5BsulgacKeNwDGx3T/+UwajCu3B+6b9Tbvybkvt7yaqHD5XYHjSQ5CRyWjPPIRCtCdxL4q44aBUsbfidp8NiIQktqPDvsPSZZ6Cx0puOpMNgQLxr7yaKRedBoxvAnybreqYQuA3LYl+0vvdtUJCMQmyIae1fUZYj2zpz4ZELIz/hSaFhXwGP+ULjwXemCX588Z6GflkrK00DoV4fc19NCtR7x38bf4TpHo1UR93vcjYlh0xfnaDLAcXRHyzx9aanj4n5S40mho+c1XsztKQud6WBEAhsgEzCz2GTuLXnCo4Ksb/kIXRq4Vhq4s8jO73Xhwt5OvOkSswy99AkdKC6SCv6ePD4XguPrSKF/VQQvZSRdqGiyAiOamsKKGH9qJQ2p8H9Drilvj576A1LDRSGnoljoLHSmGAiGsv3h7D2EhjfziOB+VBj8p63xWlvj9UJjtZ8I4/MCDLuPCBKO5NlD31aMLyzlBpQTR+usRsu5pC4ioWv42InhfsGx5TnkXiihFwsfR2L43SbD6nE/oHNp06F428DjRXou24SGHSx0FjpTYgSZo/zsUafmkDzlFalgvjSwXyq3eHrELFjSwPelRhAafid0FskqmrIxEsP/8gPZ8hV6qM+VGqr9hCnlUuMp0uCpQoMUCq4QGu72h7QLFTUtZRwbpMMVxSP0dULBYMdPVNNojr+UhL6zrQIhpcaKRmvzk+v/K2IpvBc1vKSAn/2W1HCz0HCW1HiC1Hicz4lCgyM13JQxe1/hYKGz0JmiEHo8GTFuCQ1VIefzlgoX9nZcv3hD80L3GmsDXsELA72lhouFhrVZNv7nBr3zAvTQsxl2vF+4OFW6+EOZaJB+M1Wcws8Nbifgx0KDLRU8WoCh2222wf3Tz1WqDhX6x0LDfVLhOY6Le9rKS6bi1SyH0hC6gtVSwbVC42nSYB+h4X+Ehv+RLnYTCo8UCs6VChIF+rzVyWkhP3DTKyaDDUbCnDj2KcgLhIJl0oUTpcK9HOM/a00Ktfi1ExTuIRWCMFDDQmdY6J11yF0lE7XsKTS8FuIhfkMmcE/heklSQgk94RXXkAq/ZRuYKDQ83cLn3BakbM1AoYW+Xmg83dZeVTXp+ilEWxa6l1EvjpbUUG4b+Cy/Y8DKYMg9CJRrZ6G/IjReJxWOEAZ+LDQmi3rYCpLr5BvN7Rej0NfYGiZKF3d1/Pz80jSsiue9NIGfShcPFQrq8n8ZxAEN7lHTYFWGl3ZY5/0C8aZ0cYLjoiXjftGV1oWeVnAFQWp4noXOsNA7W1BcqlHuFXJ++RyhwcpT6JbtF02RBk8VBhJCwxueWOFeqXCK1KmiKm0s9LuEhr2S5UNzEbrXq+6e7yoBqbxc28HQezsJ/S2pcL4Th28LlR6Q11ToyTXyRSh0L1883iwU7hFUWctS6MEUh53nC1mDYff00Rah0LIVHprf0jJwhcH/Ds4rF6FLjZZjcFdh4GoWOsNC75xCh5AN8i8a90TyEnrCrz/t4ndsg3sKPcZrsNpY6LYn0Msdnao1navQg5zpThz/SyTg7jykcFPD7HBtK3TbwJ+lwr0dFy0nDlZzQk/Kr+m8fjH10BcG30VOQvfKv+a80kMaiDUsFuPlRk/mSHfhjlyWqdlemtvqirRjzVPo3rVQKFnoDAu98wn9hNBCT5vPTjagQTCXSsu5Hk7o/stB+whdunhthRekVBChC79qlaNwlzx66l9GDP7ACTJ3mTYSuoEvpIKTgu8qG6E3sza+44VugKTC2mQEflihJ4Lz95AK/5Gj0F90DO7qpLKupXKkK/ixX4Qol+WCiUgUrYIK3YB/nfA8FjrDQu9cQv9lyICcvySjndNKrKYVTUn9PUAXl9BlPdwXcb3IY2nQKjf5C93W/pIz79r82DawMccc2zMdA5ZjoIGICij094WGg6VKCbxFocebTXRTLELf6Lj4vZyFXu/9XFrCl++K3OIhPhEKfiaUl3gnGL3yKc/xJeHtChe/U1HrJarJV+gieNlwIfVsKvh3HgluWOgsdKbIhB42d/sOaeD4lLCzELqbrODWsUL3Gq4vHI37ReKe0B3/HLzyquGF7qSdY0U0vbY3nJ5jI+6mhF7wHvpWoeAwT9ZZCt0tbqGXG6xocn+kia9Foccb9s7TeumLcpRcMjVuetS70LAylykh2+DRUvtR8qrheeUq9PR0wxV16E91wYcsdBY60zmEfnhOQ4EaZ4YRevq/Oxr9Off2F7p0cUHj/OkVUfQ/H5Lz4VkJXfu9uwwVtSqiaAmd05K2L5wY7p3M614ooRsgR+HUoMBN0JstaaEr+Fy6+L0m91pQyKcVocsMMvdLsvYXJoc16wYgKKYjXfCk68L+uQy3SwX1wvVqGCSD69KnBkIKXRj/e483zSsvFc7M8QWGhc5CZ4pD6Mngq32Fhk9zXOtbK10cFF7ofhCd8hrbQOjlgdDj4M9tY2GFrmBDcyUtA6nLEEKXqmGvvHFD6cTxF7k0lNLFsUnxFEjoMoGxCuX1yoKlca0JPdmTL1KhSwV1jl9DPhOyBaFHYhlknp6bQcGaHK7zCcJ/FpzUPXBiTi9fLo7KdF85QQKibIWukwGbyUyE6RkJg+Q3UsNbLHQWOlOipAtSaHggz96flgrPSPaWshR6emYtocBy/AA6Jw7Jfy+Y0L0Ao4si0eYFkGwwVXZCD3q6zUnBX0v+ag7X9MJgLrZAQt8iDO4vdFqPz01lNGte6NAaHSp0x+Bcp1Fd9XQiiSC4MHUuTjD9o9ByFDSL1PCvHK7zcUKnXob8ezyXzHAv2skRqqaUByMA2fbQXe/lWTSHi5bQIerRs9BZ6EzxCt3W6BSq1rfQ8Dep8ATp4l5hhG4rsCrcVONrF76HvtM22CN9bjMTwVBzq0I32NoxBizMoeBHZRCklVYIZULuS/TwyqBkaXqik2CVgswodCh6oUuDo6Qv7Ew4aX9PHrPy77nW74MLchd6A3QO8+cXtST0AKFbFrpjUtML5abV/R0oNGxlobPQmVIUupfsIuC7Queb6axpNLVUeLNUOE66uE82Qo8EQk+0idAfbbjGu2Uc3bzQpcp+P0Lj0Tkc60MZ1qLnKvSvbIU/a653ZutgbhbS5ltLQuhf22pMD1uNsVojGajmv9Rk+SI2OyehG0hFzcfQkjkN3ePIbO4tW6deVjL20LN/6QxG6lax0FnoTCnOoTdu3DWINkwr+olQWCcVjpcu7t2q0E2Bh9y9Xu/1kebmu1uYU7fT1tIHUhA6VEO5j9Cha7C/KQzuJfJdtuZNM9S1dq5BMJiTOUNdsQr9Palx38Yia46Q35llazwh1x66ncoUt4+/TDDkKBd+N8zLp8h4vpALV7PQWehMCdI4z3S51wg81A6FP96RBq4TGoc1J/RAosI026PKpYc+TyqwwiD8VKcyrSckDPhLgELxbMhj3SQ0/KwQmeKkixNaCv5qumQLSkXo70uNP85W6DlI7pi859A19s1hGHuVHf7lw+utp728NHoZzJLQmfJY6Cx0ptiqrSWDuOK4r9Dwqm3aXOoBcaFxdHNCjyQKJ3Rp8OSW5lubJb2RzK3XYwkNKmwQm62hu52n0G0NW6ULP3PiXqBhq8SAhZ7iuFyFnvaZfUPWSSChwc31PstxJCKdY1joLHSmBGlumNmJ4U/buIZyJvFU2Qp6pwtdaLQqEl4DVV6QHjqOCDuM2dKQZkhuz+G6HFaAHvrjyWj5bNEs9HyFnjYyM1Ro2BFyH7fk8eKYLwNZ6Cx0ppMIPbl+2sUfCg1V7Sl1oeEzR+NsqRsK3UkURui2xt559FzyFfodOVyPQ/MSuhc38I+s4waiQSIWFnreQs+xToLPn/ORcg7TQSk0HMJCZ6EznUzoqbXkME4YeKndpG6AhMbFwsDuwh9yb6aXnksPfUgH9tBvy+F6DC5AD/3CNu7RsdBbFvoROfTQb8xDyP70GeSEdLmHzkJnOrHQ0bIN7iY0lAsNq9tR7CuFxm8FQncSBZhD13i8zF/MuVIZ8ni3Cw398hW61Dgt7LGy0As6h36Q0PBNyFUJcccFKzRxL/4hlRo2+0DI5O+4eBQLnYXOdG6hB73U3RwDpwkFWmj4qu3FjpXJ2tL1TYJ9colyn9qBc5Nh1/d+ITTsXwChT2ahd3hQXFih3x9KxGnLDqULlp2ew8GEZjoLnYXOlKrQtZ9H3a88lspOlknofgUwL/NbD6lwutCwTGj4pK2G3x2DU5JV0eL5RrnDHyN+OtCsMF560CZzlOHn33cRGt4OebzvSg37yPyFPpWF3v5CT/vu9xMaPg65j7ftBH7XTqCVFf7LrggSAqWlhfUIsVRTwxUsdBY6U6pCT6AlEn7VM3/+rSKaSjDSgtC9/+dlUttfJmCcNHiLUPBmgcX+YSSG3wnqr+fZQzeOnwGuJZJpQ3UzlcZM6Pn3/kKHrtz1rDBN1hKz0EtP6LsJDevClk11XBwQCUq7tkQsVY44mSLYF3pQ2teJZt/TlwruC1lMiIXOQmeKRugmVcY0lUQlVZUqS6FbTsJLMyld3E26eLRUuNA28HyBpD5PFCaxzKe2xr2SOc2bwVZoCRcs2y+v2WStr0nLPJbNMKbGGTlkd3OTFcNU7rncWegdHhRnCQ1355AMaK4TyzYRUPNCt03qRb1VmcdxP3+qh4XOQmc6hdA1+HnUIdlYhBR6crjeqy0Oo6WCvwoNH+Yh9PvtprXRc6q2JhSWyXiGSnBNaF3oqRzoLe/L1ujmIPSrGmRuY6GXltAbru2/IvT35s+jt5iuN4aWTPgCb0Hojl9hrkW8Z30eV1tjoTOdTegmrcykSW94cxK6P2yN3xMKzhcKvsypuIiGHxZC6NKFBxrXhE7WB/fXazt+dapWhW7Spiia7/38NIfUnyQ0jrN5yL2kg+IiqfKt43LYzw6hsHdQPKdBARUV1LGHZH2BFoVugnTF3st5eQa8ey2n5aksdBY6U2pCt5PVm3IWuiXjYAkFhwgNb+QggeEFGHL3ami7eHjERSviohVR/p/+sGNSMG52Qg/KjTY3jCk0LMrpGGP480jUW3rEQi/RIXfjC9dAtxzSv5Kt8Sa7mep4tvGDWbMVuv8yLNOqwAX3aCSGllD4Kzu354mFzkJnSlHotp+FSvrBNjkJXYMVqcf/lRo+CimmiY3yVOcsdGngOSc9mr3eE3uDymohhO74LwRB6txkZrY4fl9o2JzDMT7pKO+YHM1CL1Whp7/cCQWPixzqIzhx7F5R591TwWhSchpM5SH0eGpEKuK9NL4lWOgsdKZrCj3AVr7U/P20JPSgR1DhRe+eG6aBkxpnFkrovlQucLR3LOkvIrkI3WsQvd7TWXVoReq8f5OJHFPnGljk1IPl1IPlJFjoJSv0tDlqofD8nF4+FdzvuGhVpK268OrVhxe68IXu/Z4vdG+p2zV5PEssdBY6U6RC31do2FcY+HYYoXsCTzUsXm311HxfsPQr6Nn7Ga0gpNCnFVLoQgM5Go8rlNBlcK7x5Jre8pyPKw4HJ1NxpgLiWOilJHRfqmmR6gfmMaJ0UcVStJx6/zwKKHRHwaQ8Kyuy0FnoTHEJHc60NTwtNHzt84bQcJXj4n5hhd54eVkQ1GWnFY7wCq/AqFANh8ITGgUI5S10oeHriIsjnAIKXWqwRD3MyOOYHm5Sm5yFXrrL1tLnvw3onF/yDEinPvXc5St0R6PlxOF0O/9niIXOQmeKRejS4M3NywDeFQZnFkTofjCdnZLynJASOKRQQXFNIt81TiiY0BWIvI7Hf3FJwpniSlfoqslysTH53BsygRcXQujSBUtorChQjggWOgudKQYcjROzfGhXeY1wnkJXviy9If4XQjQam2wD37UNFF7oyblKvEEq/EHOQle4n23gtjyP49nGEc0s9NIWejLwzA+WFBoezO8+BSU19slZ6Ap7SQX/tgv37LDQWehMMSA0rAz58K6yDUyQCvfMU+jhgnAU3J/8vDYSepA/XWg4T2rcL1uhS4U/c1x0hIb/5Pv5tsajmqw3ZqGX9LK1dJlH6tCSLg4qwH26VWi8Sijom7XQFfQVGq9qg6JKLHQWOlMkQt+Y40P8stDwF6kQbAXfy17o2EtoWBy+PjpcFEku//ETYbSN0AP+IxTcKRRMly72ERp+JDTs4/NTaXCA1DhTaPh3wQrTKKi10wIKM8ichV6Cc+hSgxXRmMTx6gTcVqD7dIfQYISGRVLhL6ULfYSBg4SBg6QLBwmFRwsDC6X3Mzva6FnZLjVewu0pC53peKF/XoAH+h2hYInQcJlQMFVoBFvjYbbGobbGIcLgcULD+UJDNNdGxXGxd7Bcp4176M2xUWh4z2dTofdvG/jYieM+yeFZn9RLEgu9ZIPijLf0ML2Kn2Nw7zzWfRcbW6TG33F7ykJnOlroBh4t6sbCy2leG4n667tjeQt9S3GeK45x0hN9+NXu0qLbWeilKnQ/wUyDPOxeeeJBtgldga89+DhkZcD3bY1ncnvKQmc6OihO4TRhilroOyNx7BVkyfILneQmdC+P+yKp4bpiOT/bW3M+N1PhjWYEw0IvwR66VNDgu63wU/raGicU0/MmFVwhFfw1VH4IBW8JF8dze8pCZzpa6F7Kx6qilLoBEhrPbyC5PIfcpYaI483pv1AM5+gYuDgZNJUu9HjG3rklNJTlIPQZLPQOL5/q9dKjaUJ3k8mcFhTJ87ZUeEva3JBCf86J4yhuT1noTEevQ/eHdm0Dv/YTyhRNz1VocKVKNYBOPBkMl8+Q+zV+so99OlrqjsYLIwk/B3y00XCsalbok3IYzp8sdFD+NltCSe/YHIQ+vhmhXxt2eFhq/FkbCv2EHL7bEzLtS7qQjHZvKPQxljQ4o4OfuVXCwO5C466hA2UNKGGgN7enLHSmCITuZY5CS7rY2zZQXRQ9cwUqEsNdKxr1aAog9CvTsnf9QGhY1RHn57g4M6L8ojCNhO7EW5TtMTkkqgGRoWJXi4ST3i9yEPqYAgn9baHxO234snJ8Dt/vUcHSscYERXxSQ+5gCTMmuAbHSA2ftvv9qDAuDH7b9p6tI8OfL14tDH6X21MWOlNcQrfsBFhS4y+kwvs7UOo3NAkiijWtCZ2X0H2pOxq/JRXc0W5zlAYelAkc7MT8sq3NCL0Ffhiytvp2J4b7ZZqjb45ANCH4ecjVC5uFhu+JBqmAMeCMkNdzmVPv5TjPikTYkQrcP2TZ0y+Ewn2be1FyEl6q5Yi/zNNOpvVFy1FoOQq7Cw1u+82Z42VBrQW/dPCfQu/DxRlODLk9ZaEzRSn0IPOZi6dIhaYdA3JelgpOtDUkS5G20DsvjNB9pMYzhII3264XBJ9IhWdLg5ZMoCVbEHqLeMPx14d5OQrdO1cZX55aRGi8PYSEr48EYkug5WhIr9C3l1SwIds5XEfhCY1SqzZPUPc+Fg7pwu3ZjrxIhddn3E+d/9n13nk7Ci2Z8IXu525wfKn7CZSm2AZeacOVI49LhccGz77/sri79BIrhX0pGOq4LHQWOlO0QvcqovnrvhPQXyhYJDQ830bCWycVOE4cdpeu1+uLxFvtnRdM6Mnc2Ar2sQ1cIkLWaW8taEtouFwo2N9x/apueQrdcXEfYWBtFp/9WiSB/x1ptAa6NRy/zG1SstkQx32FhtezkMmaSBz3DgL/0mvIB0iFmI3QbQ03OOlZ2LIljNC92I19/GJFrZ3bG04c92nyGcF/JxoJ3aQVLNJgOQoa3I+2wT2EBiE0PFfA+/E528Bc6b/gJGuje8+YHSo41gBJDeuDrJHcnrLQmdIQetBw7ypdHGobWCgVaD/JSq4Ny1qh4Hap8HjHxW85Ci3H9QKH0oXeQu88f6FraCz0YJj1h8LAfKngvhzP7VOhISYVzpQKv59eE74gQo+jJRLwE6HhgRZGBFYKjT8LK/NIvZ/RrC58T9aJ40+FhodbaPwfjCTwR5F4C/uP+oFrZszJooXeotRwle33LMMeZ1ihR+JoOQn8uVQtXG8Nj0US2D1TgGMDmSeaF7qMe/ej41dDs00yY+Cu0oXjhYF/CQ3rcsp6qCHqGPiV0LirbZKjIZaj0KqIJ19aPs2hp/93JwaWEwNuT1noTIkJ3ftZP7hHaPihrWGoUDhdavyjreGfQsN9QsOKDFQKDVcKhVOlC4NtDd9KNip+b6Gx0IMeWwtDvfkLXWcUuh+VjJbQ0NdJ4Hhh4FqhYZnQ8ITfqL7ss84PrIsJjYuExmOFhv0bFK9pC6EnS9DiOD8D3wqhYYWtoVK6cErwneYs9GhOQg/OeYIwoJLfvYHFUuMpjusPs7d0vr7Qvbl5/KEwEBEG7kk7v78Kg4c72qva1y5CTztuqfA0YVLXWxiolQrHOXFIzo1Hoo1kbtJk3pLQ3ZTQg2fDNv6zGQNLJsCSBr8tDRzuaJwqNFwtdNp1TnG3MHCz0OhIF0fZCva1dVCgxdunN6oCluMfmzAYy636GxzrJMByEix0FjpT6kL3GiSVaoRbjRr2C0jYwbxpK0LPsFStoEKXCloTuhdIZVJFWWyNe9oad7c17mZr3DO1v7TfbT+hN7i+gRg6WOgNl9yZ1D0VUuipCPG08xPGmxboIKFnPrfGQs/UM28q9JNsDXcIDTFbw2Kp4NRA6E7asya0J19f6JY03otoi8+ZSZVKtZU/pG9SdRak8oWeQMsxcFmOI1EfOhr3cPz5f25PWegMCz2z0P3h9rRCLG0i9GSu7XBCbxQQxkJnoTcSerwZmXt8XypY1kwRokelgvFJoaetBJD+ckLpn38YoSfroAcVAv0eujDwp5wD61z4Q/r3yO0pC51hoTcrdNly77ywQvdLTbLQWeh5CT2OluOfg0z433dDdpEaHsmiuuCjQoHwq/x5Eo4H9c/Rvw/H+MV7Mj8fQRIdWzcVulAwUrQcE9Aan0fi+N/p14rbUxY6w0JvIvQgTaat2k/oUrHQWeiFEXrETxoj/ZfSACeGlnBxph3ufv1CaFhsG5gqXfxpAYR+rB22fHHGtefw28bfIbenLHSGhZ5R6FmuhS6M0BvAQmeh5zfk3mxSIK8c7rI86iZ8amt4XGq8VhqcZusxx0oF/YTGH9oav21r3Mvnv2yNe0mNBwoNo20NZULj9UJntdQxG96MxHDPxteK21MWOsNCzzjknmVCkzYQOiQlzUJnoYcReoVBSxhvVKk5hGlmWV/ufOMvH10vNLzp84b/5+dtlF1uRKZrxe0pC51hoaeEHofG5VFZ6Cz00hC6C1ZEp56bNuqhd3x5VYMXNHetuD1loTMs9CIUOiSvBwudhZ6t0IN7uFliYEkXzitVodsab5EGrQoWOgudYaG3KHSvDnPYPOIDcy6f2gpScQ+dhR5yDr21fXnHurfQ8GrpCR1vsJV3/7LQWegMC70VoXv/b4Fuc6FfykJnoXeI0H2EwgOEhqdLQuQKdjoabOlfbxY6C51hoWcndB26ytc+finOMAkxypurVd2EID0sC52FXkChJzO1aZwvDDxTtPPlGp6XCsZEguebhc5CZ1jorQrdT5hhJyApqhA8EjJCd1i6bLPBMSx0FnqBhe42OM9TpIL6IpL5O0LD+Y7BXaT27lMWOgudYaFn3UMPikakpJg1ZdkF9AAJjfeHLrUZZaGz0Nta6P69ofFQ28AioWFNB4n8FaHxXKHhB0J7hVtY6Cx0hoWevdD9CPdmcl5nhdBYl8VQ+2bHYM+I9oUVAh5yZ6G3k9D97xQsoWGs0Hi+0LhKaPikjQS+U2hYb2u4QRg4WRrcJf0ZZqGz0BkWersLXXoNzY3ND7PDqojBQyL1/ueEhIXOQu8AoXvpWr3n8vvCwPFSwflS4d+FgYeFgbf8+JGdWYh7u59kZq3QsMzWeIVtYLZUODB4FoUJ7m0WOgudYaF3vNAtoWGQ0HCZX3u9Rmi4UWo4zYn7ksrxM1joLPQOFrr3OS6kPt/At6SL+9oK+wmNI6XG06TGE9M4WWo83tY41NbYW2j4ntCwW5A4KajexkJnWOgs9GIVuiU0jLQ1TrUVnik1HCc1fJ+FzkLvhEL3S6N695zU+H2pce80/ltq/G7Te5SFzrDQGYZhGIaFzjAMwzAMC51hGIZhGBY6wzAMwzCt8f8DAJoynulK+3wBAAAAAElFTkSuQmCC;" vertex="1" parent="1">
          <mxGeometry x="553.22" y="170" width="120.78" height="50" as="geometry" />
        </mxCell>
        <mxCell id="flliIf5FsEkTjVaYl4Cn-31" value="" style="shape=image;verticalLabelPosition=bottom;labelBackgroundColor=default;verticalAlign=top;aspect=fixed;imageAspect=0;image=data:image/png,iVBORw0KGgoAAAANSUhEUgAAAgAAAAEACAYAAADFkM5nAABJG0lEQVR42u3deXwU5f0H8M/3md2cHEJR8QAU8a71iEcRtCvZJG42Qa2uypFNAKW2au1hvesvXrW2tlaptdKqucAj1oNkEyAbTBU8i9V6tR5438pNEtid5/v7IwlZwmzO3Z1N8n2/XrzMPM/szHdGyHz3mecAhBBCCCGEEEIIIYQQQgghhBBCCCGEEEIIIYQQQgghhBBCCCGEEEIIIYQQQgghhBBCCCGEEEIIIYQQQgghhBBCCCGEEEIIIYQQQgghhBBCCNEV2R2AEEIIwFVSkpbymTmKiI2Nire9UL9ks90xiaFNEgAhhLCJz+czNmzLOBOEywA+pUv1vwxDz1qxrOpdu+MUQ5MkAEIIkWBe7+wx29lxAQgXA5jUza7vOPXoo+rrF223O2Yx9DjsDkAIIYaDGQX+/UijQCmcsZ1xGghpu+xA+ApMnwB8FABne+nBO4xNhQAetTt+MfRIAiCEEDGWPXPW3irsmMBKHQXmYwFMBSMLBGLeZdfNDPobMZUHA2WvAYA7v+QokH4FgAIAAh8NSQBEHEgCIIQQPcieOWtvFUqZAtKTtcI+BBpHTGMZGEXAHgweBdBIAo9iYE+YSGUC0OVpH2E9E91Oral/aQwu3hRZEawre83t9b8L4BAAAONAu69fDE2SAAghRBdtzfV0tiI+hYGTYWJfVgyAQO3PdAa3/7cDg3s+9GsM/LXVcFSuWXb/lui70VbsPL4K2X0/xNAkCYAQQgDweC5NDdPGWUwoBuNUUNsjfwC2AfgUoFcBvGiaZs1Ty6v+16tPsjZB7X20CdvsvjdiaJIEQAgxrE31+dIzmzMuDmHTLwDap5tdNcAfALQOwPsM+pyIv4amr8jQX5JWWzWMDWHWzSONlM01NYub+x0U0bidPzJvtfseiaFJEgAhxLDlzvfPxjb8FsQTLKpNAC8SeLkGPZOizbX1iZmchwDsTESY8b7d90kMTZIACCGGndzcor1MJ/0VwFkW1a+B6QF27FjauOzBLxMdW17egjEmQjuHCDLp1+y8V2LokgRACDGsuPP9Z2iFxcTYK7KcCaug9W8b66oa7IwvnGIeRHrnpk7V/Lqd8YihSxIAIcSw4PP5jPXb0v8AwmW7dtenNwH9i8bayhV2xwgAMHlq5xyttCZBrx3EMCQJgBBiyCssXJixvrm1imiXJn9NjD+FmunapqbK1t4coyXceiiT2pvIZCIVbqgtb4xDuO6OH5hlAiARP7IWgBBiSPN45u0ZMsxlYHy/o4yBD5Tikoaayn/28HHKyS8+n8E/AmEaunxpCme0jGyqro5ZL/3c3KK9tJM+QdtUwC1hVpOb6sq+sPseiqFJWgCEEENWbm7RXiHDfBqMQztL6RlH2HHmihX3re/us3l5C8aajh3/YLAr2j6pm1NHAohZAqCduBDt6wAQ8d+aAvLwF/Gj7A5ACCHiwXVmyR7aSSt2ffjjkfA2yu3p4e/z+VK0I1QPkKub3ZqnTp0Ss1ECrsJZ4wD6VfvmZijnbXbdOzE8SAIghBhyCgsXZjhCuhbAMZ2l9KfpJ0ye1dRU1uP7/vUtaT9j4MTu9iGgurS0VPd0rN4ydMrvAYxu3/x5w7L7P7Pj3onhQ/oACCGGFJ/PZ2xoTl8GIL+jjIB7GwIVF/Xm86WlpWr1S+s+BTC+m92+DWvzmKb6JZ/EIuZsb9H5BHqwLVj+R7C28hz77qAYLqQFQAgxpGxoSb8Vuz78H90jo+Xi3n5+9dp1+6Pzm/huGPjAIJ0ds4d/gX8qgf7evrlW7UCxTbdODDOG3QEIIUSs5OQXzwLwB3S2bj7l1KPPfvLJB3q9ot66t1/ddNChxz4CsAPAGACZALYw8BIBf2jOaFnQ9MRDMXn4zyice5xiWgFgFIC3wqzyGpdXbLD7PorhQV4BCCGGhLyCuUebrNag7YENAB+FVSirqebBb+yOzYq7oMQF1k+grbXhFac2cuvrH/ja7rjE8CGvAIQQg960mfNHmqz+gc6H/3ZW6pxkffhn5xf/FKxXABhNwIupCM+Qh79INJkHQAgx6KWHw3eCcFBnCf20sabsJbvj6srjmTMqrIz7GNzRya/Roc0fBuqXynS/IuHkFYAQYlDLLvCfQ4zqzhKqDgbKz7U7rq7cHv+xUHgYwMEAQMR3hbZ+/Mumpqaw3bGJ4UlaAIQQg5bLM2d/YtwbUfRFWO34id1xRfL5fMbG5vTLGbgRQAqA7QB+0lBbeb/dsYnhTRIAIcSg5TCMe8AY27FNoB8l03t/t3f+5A3N4XIA09uLPtPQvlWBqmftjk0I6QQohBiU3PnF54JRsLOAuaIhUL7M7rg6ZHuLzgfC/0b7w5+Bp8OssuThL5KFtAAIIQYdt3vhaFDrHRFFG5zsuNzuuADA5SpJc44wb2Omn3aW8uKNX6Rfsnbt4l7PRyBEvEkCIIQYdDit9XZi7Ltzm3F1MgyjO/30kgNChn6CmY5uL2oFY0GwrnKp3bEJ0ZUkAEKIQSU3v/hUzbwgomjt2MyWv/f7gDFyWmHxkabWywnYv71ovWI6a2Vd+dN2xyaEFRkGKIQYNFyukjTHCP1KxBK/mphPaqir/JedcbkL/dOhsQxtUwcDoC9NheynasrfsPeOCRGdtAAIIQYNZ6a+hjsf/gBwr90P/1xP0QytUQsgva2EvmQdnvFUYMmbdsYlRE9kFIAQYlA4rbD4SAau3FlA+CoV4Wvtjkkr+gd2PvyxVSszv7FeHv4i+UkLgBBiMCBD6z8DlLKzQPOVgbqltq2cl5tblKk1Pwpgj/YiDcbcVTVVL9t8r4ToFWkBEEIkPbfXPw8gV8c2Ac821FWW2xmTdtLvARy2s4Dp/4J1FU/aGZMQfSEJgBAiqWWf5f8OgN9GFGmt1M8AsF0xub3zJwO4MKJo9ZjM5lvtikeI/pAEQAiR1Gg7fg9gz84S/rv9K/2Fr0LnK9TNmsNzq6urTXtjEqJvJAEQQiStbO/cU0AoiSja4NSO6+yMyeXzjQAwt2ObgdtX1S390M6YhOgPSQCEEEnJ5XI5ALUIkfOVEK63e8Y/x7aMfHT2+v82RZt32hmPEP0lCYAQIik5MiZeTkDHlLog4I3w1o/+andcRDir42cGldXXL9lsd0xC9IckAEKIpDMjf/YkEHZp6mdSlzQ1NYXtjCsra6GTwfmdMfEjdsYjxEBIAiCESDqGctwDIDOi6JFgbVmT3XGNHt98AoBRbVu8blVthc2dEYXoP0kAhBBJJSe/qIQZnoiizWFt/tLuuABAgU7r+JlJ1cPGoYhCDJQkAEKIpOHKLxnPRH+ILGPg6qb6JZ/YHVubzgSAWK+yOxohBkISACFE0nCA7wEwtmObgGdPOWGy7R3/AMDjuTQVwMntm9oIpzTZHZMQAyEJgBAiKbgLiv0gPjOiaEdY0cLS0lJtd2wAsMPYdBw6h/+9uWLFfevtjkmIgZAEQAhhO7d3/mQwL4osY+JfP1VT/obdsXVQzB3f/sGE5+2OR4iBkgRACGErl8vlAIWXYGfvegDAmrHprX/o7zHjgQlTO34mJun9LwY9SQCEELZyZky4EYzvRxRtdpgq+ebWZ+qMUbMkAGLQkwRACGGb7MK5ZzLRlZFlTPST5cvLPrA7tkgz8mdPArBf++b2MSNakubVhBD95Rj4IYQQou/c3qLDoakcEV9EmHFnY6B8id2xdUVkTI3YfK26unqH3TEJMVDSAiCESLi8vAVjAapBxHt/Ap4dm9lyhd2xWYps/ge/bHc4QsSCJABCiISa6vOlm0boMQAHdZQR8Ik2Qj9M1m/WRJF9FNQrdscjRCxIAiCESBifz5eS2ZL+CAg/iCjeqEgXNC578Eu747PSPgHQMR3bmnit3TEJEQvSB0AIkRA+n8/Y0JxeCaAgoriZNBWsqK961e74oglj8/EAUts3zUxKe93umISIBWkBEELEXVbWQufG5owqAOdGFG8HcEZDffkau+Prjjb4pIjNt2pqFjfbHZMQsSAtAEKIuMrLWzDWdLQ+ysBpEcXbmNU5jXVlQbvj64liTO1Y8o8Aaf4XQ4YkAEKIuMkpKDnY5FAtgEMiir9RzAUr68pesDu+XursAMgyAZAYOuQVgBAiLtzeojxm/TwiH/6EfztMdcLKuspB8fB3eebsz8D+HdvaMF60OyYhYkVaAIQQMVVYuDCjlVtuZaZLAdDOCsYD2zJaLn6uurrF7hh7y6nUzuZ/ANvHpm1L2s6KQvSVJABCiJhxe4u9Lbp1EUAHRhR/A/CPgnWVj9kdX58xfb8jhSFgbbLOUyBEf0gCIIQYsJz8ouNB6jcMzulS9WCY1S+a6sq+sDvGfiFM3/kz8z/tDkeIWJIEQAjRb7mFJYex1jcxcDbAnc39hP+B+bJgoHKF3TH2l8vnG8HNOG5ngaGa7I5JiFiSBEAI0We5Z8yboMNmqdbaj11/j3wG0A3hrR/e39TUFLY7zoFwNKdNi7i2UCit+Vm7YxIiliQBEEL0mts7fzJR6DIdNi8EkB5RtRXA3S2G45Y1y+7fYnecscCgUzuaNAh4qam6eqvdMQkRS5IACCF6NKPAf6ICXwEOn8VMkcOHv2HQXxxhx50rVty33u44Y4mAUzt+ZuJVdscjRKxJAiCEsFRaWqqefmFdnlL4FRinRY7oA/AuQH9MV6nlQ3Fq3Kk+XzqacULHNjNJAiCGHEkAhBC7cBXOGucwnfNWv7TuR0p1LtkLAAw8TeA7p59w0BOlpaXa7ljjJbM5fRo6FwBqMbep5+yOSYhYkwRACAEAyPUWZ2nohdA0F4SMiKpNAD/MBt3duKziPwAQDNgdbZwRctE5A9CapqayVrtDEiLWJAEQYhjLy5u7j3bQbAaVaPB3I5r5NQOrFfPfQ81G9XB7ADIjt+NOMEnzvxiaJAEQYpjxeC5NNY2NuZpVkQk+E4Czs5beBHE12FHRGLh/nd2x2iF75qy9ycT3OrYZ3Gh3TELEgyQAQgwDLldJmjOTc5n4nBBvmgmm0ehs436fgQe1oqVP1ZS/YXesdlNhRy7TzqaQTXrrRy/bHZMQ8SAJgBBDVGHhwoxmbs1XTGcztJeBkRHvtT9noseYzaWrAlXPISIbGO5YUU7E3fjnYJ/QSIhoJAEQYgiZNnP+yIywWcBKn92iWz0EZHD704yBDxTjMTA9Nu2kA58byr34+6u0tFStfun93I58iAjy/l8MWZIACDHI5eUtGGs6wwVgPhtmOJcJaRHT8r8F0GNamY+tqqna2ZTdUG931Mlp9dp1JwPYu2ObtZIEQAxZkgAIMQi5vfMnA6GZAM00EToFHPlvmV4G9GOs9eON9UvetDvWwYRMnMWd8/9+FQyUvW53TELEiyQAQgwSpxUWH2kw+8AoAMLHAdTxqNIA1hBQA1KPNdSWvWN3rIMVE5/ZMRSS2mb/k74RYsiSBECIJOVyuRyOkRO/T8w+MP2QNe8fUR0G8AIRqlVIP7JiRdXndsc72OXklxzD0JM7tpm0NP+LIU0SACGSiMtVkmaMDJ9Oms4BqBAao7hzcp4QgAZifsjB+sn6+iWb7Y53KNHEZ+2y2gE7Zfy/GNIkARDCZi5XSVrKCDNHg3xgfQa0GhVRrQE8R4RqrUIPNS578Eu74x2qCHx+xOZ7wWE6EZIYPiQBEMIGpaWl6tkX3nOZiuYR9BmaaWRkPQEvMtNDWvEjq2orPrU73qEuu8A/FYxDdhYwNdgdkxDxJgmAEAnUPvf+hatfWlcCRQfSrtWvA/yQ1uqhVfXl79kd63BCjKJdthWvtDsmIeJNEgAhEsDt8R8LxReZID+AtIiqj4j4CSaqDtZUrLY7zuHI5/OlbGiGL6LITOFwk91xCRFvkgAIEUe5+cWnauJSAKdFrLT3GUCPaOIHV9VWvGh3jMPdxpZ0L4BxEUUvBgJLN9gdlxDxJgmAEHGQ7Z17CkHdoMGntRdpAPWk6K5pWQcGZRreJML048jh/gx5/y+GB0kAhIihGfmzJxnkuJ2Bc9qLtgF4gBmLGusq3gaAhhq7oxQd3N6iwxnsjiwzWNfZHZcQiSAJgBAx4HKVpDlG6KvAuIKBdAAmEx5whPT1MklP8mJSFxNzZF/MT1fWVcprGTEsSAIgxABlz/R/j0xdDsYx7UWvacIF8n4/uU2bOX8kmeGiLsWPQ6b/FcOEJABC9FNW1kLnmL1br4GJawE4AZgMumXjF6k3r127OGR3fKJ76WHzAhBGdSl+0u64hEgUSQCE6AdX4axxBrc+DMaMthL6ktksaqyrkg5kg4DLVZIG0r/sUrxxwxdp/7Q7NiESRRIAIfoou7DkBKX1Ywx0LM5T59SqpL6+/Gu7YxO948jgHwPYb5dCQo203IjhRBIAIfogx+ufy1r/jdsm8wkR+OqGQOUfIe+NB43CwoUZLXr7lV3LmVl6/4thRRIAIXopO7/4pwy+A4ACsEVrnLeqvrLe7rhE37SYrReDsHeXYjbZaLI7NiESiQZ+CCGGPneB/1Ywrmrf/NBU5H2qpvwNu+MSfZN9lv87tAP/xa4z/wHAW8FAxRF2xydEIkkLgBA9yPH6b+TOh/9bRlhnB2Vs/6CkdtBtDB5nUfW+3bEJkWjK7gCESGZub/HlDPy6ffN1NkKnycQ+g1OOp3gag+db1RHwsd3xCZFokgAIEUV24dwzAb4NAMD4T1iFTmtc9uCXdscl+i4ra6GTFf8VUV978md2xyhEoskrACEs5OSXHMNaVwFQDHygHA5P07KKb+yOK5m58kvGO0iXAVgX3vbRT5uamsJxOY/PN6KpunprXz4zdnzrrxj4brR6TUqG/4lhR1oAhOjClV8ynqGXAcgE8K2hlKdh2f3yDbEHDvA9APIA/FiNmHhcPM5x2ulzD3W0pD/Yl89ke+eewsAN3e2jmGV1RjHsSAIgRASP59JUh9KPgzABQFgx/XBlTdl/7Y4r2WXn+wtAfGbHNof1pnicx6FoPnWuudBzXDNn7U1QD6GH1k5NLPM4iGFHEgAhIuwwNv0ZjO8DABi/XllX/rTdMQ0GRNhlYh0jnPFFrM/hcrkcTORnYP/c3KLMnvb3+XwGtHMpgH172ldp7JHI+yVEMpAEQIh2bm/xQmJcAABEqJ9+4uTf2R3TYJDrLc4CMD2iqCUYXBzzFgBHxkQvgPEAEDbU+J7239Cc/lvauVZD95ho797sJ8RQIgmAEADcnpLvA3xX++bXIa3ml5aWynvhXtDgkl1LOC7DJBm0oONnMniv7vbNzi/+KYDL+3B4SQDEsCMJgBj28vLm7gOlHwWQCoCJuKSprizmTdhDkc/nSwFw/q6lFPOhknl5c/chYk/HtmpvCbDiLvBfQsR/6tsZ6MD43ikhko8kAGJYmzZz/kjTqQLYuTIc3dlQWymLwvTShm3pHnSdVpfwbqzPE3YaJYjoyMfMk6z2c+f7rwJjEfo8zTkfMtXnS4/7DRMiicg8AGLYyspa6Ew3W6sBHAsAIDw/Jr35yoEddZgh+Hcr0/TvWJ7C47k0NcSbLoksY6YDIrd9Pl/K+pb0u9Heh6MfHOkt6UcBeDG+N0yI5CEtAGK4ojF7t/wdbePWAdCXGjinurp6h92BDRYez7w9ARR0LWfiV2J5nh20qQRdevITYWeTfW5h0YEbmtObqP8P/7ZjMo6P5/0SItlIC4AYlrK9/puBnd9emxXrM4KByk/tjmswCSldDCCla7kj7Hw1Vufw+XzGhmbLznwzcrzFM8F6gtZ0K4CRAz2XIhQA+Es875kQyUSWAxa2cLlcDpWx735EaiJBpQIAETExNpJhbtqeuv2Lvk732lvZBUVXENNt7ZuaCOc01FY8bvc9GUxcLpfDkTnxvwAO6lL1YTBQcUCszpNd4D+PGA8l6LK2hzNaxsXr750QyUZaAERC+Hw+Y/22dA8RcgHKBvhQAEbkPswMBgBTwdGcDrfX/w2ADwj4QIM+VKzfZ8K7gPOdMRlbPqyurjb7EsMMT/FBhuLfMuOcjlMCdElDbbk8/PvIMWLSbDB3ffiDgWdieBqizmWYEyHVsS0jH8AjCTynELaRBEDEVVbWQueY8a0XbWjmnxFhcltp26yrBHzCwDcAvmXASW1z748DsA/ampbHARjHwPEEBlNHg1UYG5rTd7i9/nUA3ibiD5jVx0z4HJq+VcxbtIN2kNajwTSaCd8j8MkAz+CIfi9MuLyxtvweO+6L271wdGrqVgUArQankJmeCQBGeEfL5lHbNz5XXd1iR1y9UVi4MKNFt15vVaeYYjaCwu0tzgf4mEReGxFfBkkAxDAhrwBE3OTNnDvFDNNSEJ3QXqQBLAdjcdgIrWmqeTDa6nqUlzd3vDZoP23w/mA6RDEdwcxHgOgwDPx9r2biqxtrK+M605/bO38y2DyeiY8mYApAUwDeF22JTU/JdyuAjQA2ANgI4s/A+IiIPgTwETR/rB3hj+1Yntjt9f8FwI8tqkxOwd6Nj1d8O9BztL1imPQqwEck+voU0w9kCmgxHEgCIOLCXeifCI3X0fGwJjyvmC5ZGShfO9Bjz8ifPUmRcRgRHQbG4Qw+FFCHA9zTbG4mgVYR4+Z4/ILPy1swVjtC+UzwgJEDYM943NsuWgF8BOAjMD6GwkcAfUjARwB95DBHflRfv2h7rE6W7S1aQKC/wfp3x3PBQMXJsTiP2+u/FMBdAz5Q/zQGAxVum84tRMJIAiDiwu31zwdwHwCA8Nvpx0++Nt5T67pcJWkpo2lPhML7mqA9SdGeYDgJeoMJ/jQd+q1AYOmGWJ6ztLRUrVn7vptNng/CmWibTTDZfI62JOFLJnxF4C8I9A1rfM3QXyuDdpBWWwEgZJpbDSMlpJROCbMeRVqPVkR7tL9KORZt3/wtf28QcG1DoOI3Aw02L2/BWNMRegfAWItqDcYzUPwNmM6O2x0jmh+sLX8gbscXIglIHwARF1rz10oR0Nbsj9WrPxsJIC5LxHZoaiprBfBx+5+48nguTQ0Zmy5c/dK6ywFMipJKNwN4DeB3AXxFbXMNfKGIv2aTPody7LwfYb19R6bibR3b25E2hvX2NEM50pmwB6BTNWMUWO1FSu/JoPHE2AttrQzj0TZOPlrysU/7HxADAKH9PyAosAbau1/CMBSAMLRu7yxBaue+PdCsUBWLe2s6Qjdg94c/M7BEkbqxIVD2TvsrglUAnxKr/6ddznZ3dmHJ6401ZS/F5fhCJAFpARBx4XK5HM4RE5cxo23+dsbHpGheQ215o92xDey6StIcmfpCAFdi5/TBO30K4EkCngsr+ve4tOb/9nWkwkDk5c3dhw2ayISJmmiCAk9ipkloG6p3EID4TXXLWBmsq8gb6GGyvXNPIagm7DpJ2ecA/MFARTByX6939phWOJ4i4Og4XdV6Bf7BykDl63G7b0LYSBIAETdZWQudY/ZpLQNjdnuRCdBVwUD57XbH1g+Uk198PoNvA2FCRPmnAB5kwmONtRXPo2OIQxJyeebs73Sog7TGFMU4iElNYfAhBByCASYHTDi/sbbi4QHF5/ONcDSnvQrQ5Ijit6BwerCm4iOrz7jdC0dT6vZqBufE5aYRng/WVkyNy7GFsJkkACKuSktL1eqX1v0JwKU7CwlLt6W3XJDMQ90iZReWnKC0/hMDnR3cCP8mxh/Xf5H28Nq1i0N2xzhA5C70T4DGIQAdDOAQIj6UGQcDOAA9vyr81qlH7zfQzoZub9G9AC2MKPpUOYypK598oNtXOj6fz9jYnH45A6UA0mJ7Z/BVsLZClgoWQ5IkACIhcrxF1zPohoiitcphnNXTL3c7eb2zx2yH4zYAC9DRJE34N2t9ZWNdVYPd8SWCz+dL2dSaOVmb+lAAhwB0MojPjNyHgJsaAhXX9+8MbXIKivKZqRadv5M2G6RPXVFb1etphWfkz56kYNwIolkAnDG4/NeZ9S+Gy/9rMfxIAiASJqeg6CJmugs7fznTlwzT1xioiuXscTGRXVA8h8B/RFtHOwD4HETXTj/+wPJ4j2ZIZu6CopvAdF1E0VZOwQEDGfufne8/hAjPAxjTUcZKn9VYU/VEf443o8C/n2KaxeBCAqahy4yTPfgI4H9o8KOrAlXPIYlf6QgxUJIAiISa4Z17soJ6BJ0d6EwGbstQabfU1Cxutj0+T/FBhsI9Ee+UNRPd06qMq9csu3+L3fHZqb2p/QMG9t9ZSPh9sLbiiv4es72V5Xm09UNow3ggWFcxPxYxuwpnjXOy8xTWmALiKQBNQmRCQLwJrP5LjDeUMt9cUVv1H8hDXwwTkgCIhMvNLdqLnaqqS8etTwFcHwxUPAAbfgG7XC6HM3PiLxn4P3R2iHuboS9IxhYKO7jz/WeA8EREUQsboQP7Oxth+4JC9QB2TrrDwAcp2jy6vn7JZruvV4ihTg38EEL0zcqVlV81BMrzCChC2wQ1QFuLwH1ub/HDSHBiml1YcoKROfFfDPwWbQ9/ZqK7t2W0HCMP/0h87S5bwB39ffiXlpYqZ+akvyLi4Q+ACbhQHv5CJIa0AAhbuVwuhyNjYhUI53WUKfBRiRh77fL5Rhjb0m8mwiXobBb+glnNa6wrW273vUkmbm+xF+DaiKLPwxkth/Rn6Vyfz2ds2Jb+NxDm7VIRw6Z/IUTPZCZAYStj1MQjYOKMiKJlKwOVb8T7vLkFRYW6mf4MwsSOMgYeN1VoYTeLFA1LPp/P2NDMN+9SSHRtfx7+LpfLsaE5rQyEOV2qPk+l8C/tvlYhhhNJAIRtpvp86aoZS7lz7PZHRtg5D3HsA5BbWHIYs/6j7pihsM0WEF3WKHO/W9q4Le0iEI6JKFo7/fgDy4O1fTuOx3NpakhtrgTY16WKifiCQG1s12kQQnRPEgBhm4yW9LsYOLJ9M6ShZwVX3Lc+HudyFc4a59COa7TWlyBijDgR6plwUbCm/KMBHH7Iys0t2ksT3RRRFNZKL+zrUMjTTy85IKQ2PQogy6L6rw21lXV2X6sQw40kAMIW7oJiP5gv6Ngm4NerAlXPxvo8Hs+8PcMUvpw1/QTAiIiqr4n5lw2Bykq770Uy0066BxHj8wH8YVVN1ct9OYbbW+wNQ1fAanU/xn9UmH9l93UKMRxJAiAS7rTC4iOh+S8d20Sob6it+F0sz+Eu9E+Epp+HYF4IUGZE1Q5i/DmUom5qeqJso933Ipm58/2zAfwwouidbRktN/T28z6fL2V9c/r/AXw1rDocMz7WCvnBlZXbentMIUTsSAIgEmqqz5duNHM1gI6H8qcO0yhGjN7753qLvquJroDG+QBHTgfLDDyhSF3ZECh7x+77kOxm5M+eBMKfI4o0Qy/o7foN2QX+qRub8TfqfMXT1QbTIM9TNeWf2n2tQgxXkgCIhMpsTr8RwOHtmxqk5tbXP/D1QI+bm198qia+QgP54K7fNnk5MX4drKv8l93XPxhkZS10Kmp9EBFN/8R8e7Cu5zkRcs+YN8EMm78hxmyOOs8Ir2OtC58KLHnT7msVYjiTBEAkzIzCucdB4+cd28xY1BgoaxrAISnHW1zI4Ks0uOuSrSYBj2vCHxtrK5+z+9oHk7F7t9zMoMj7+coema2/7u4zba9ccLkOmxdQ9KWFGYwy7Ej/eWNw8Sa7r1OI4U4SAJEwSqsb0T7hDgGfpBtp1/TnOFN9vvTM5vRZBPyCwV2bmDcDfJ/DNO5avrzsA7uvebCZ4fF7mBDZKW+HqWhudXX1Dqv9czzF01jpH0PjXERfgY8B1BCr/2uoK3vF7msUQrSRmQBFQpxWWHykoblzdj+i+cE+jrt3e4sOB9E8MOYD+M6utbwOwCKn1vfLVLL907aKHl4BMC6i+IVgoOL7kfvlFJQczGyeS6BZHP0df4cAMZc2yOsXIZKOtACIhDBMzo9INzeFt9KDPX0mK2uhc8xeO7Jg6NOJcQ4DR3bpKvgNgGrF9NDJJ05ePZyX6R2o0tJStfqldZXY9eEPAMe4C4rnEfSX0JQNQh6zPhKg7nptbmHCw0rzvfLgFyJ5SQIgEkPhqIgnxvuZmTvSs2fOGk1memZbtTmGiScCmKg1DiSi44DW4wGkg3cZIrAFhCcI/ND6z9Mb1q5dHAKAlTKNzICsfum9qwE6zaIqFcz3M6jH9kICnmXgvnBGyyP9mSZYCJFYkgCIxGD6T8Rj/JjtcKwnEwDCAAAN7KwmitgAQgBeZFCjUnqVI7zH8/X1i7bbfTlDSXaBfyoYpf34aBjg1QTUKoOfXLGs6l27r0UI0XuSAIiE2PBF6p1j927Zk4nmY/dm5g7NIPwPjP+C6U3NvFaPaHlGvk3Gj9u9cDS4dQl6+7uA8BUxrdKEWkfIUb8iTlM3CyHiTzoBioQqLS1Vz7387mTNtB9rcgIAMW9kg74K1lR8jDguBCR2l+0tfoDAJd3sshHAP5lplUF6VftKjfL/SIghQBIAIYaxGXlzj1NORxZpncGKm8Fkas1fw6AvFeGL6VmTP5HOlUIIIYQQQgghhBBCCCGEEEIIIYQQQgghhBBCCCGEEEIIIYQQQgghhBBCCCGEEEIIIYQQQgghhBBCCCGEEEL0TBYDGkRcPt8IoyXjjMba8iV2xzJQOZ7iaUy0OVhX9prdsQw3paWlas2L7x2nFR0A4NOx6S0vVldXm3bHlUjZ3qIFBGX05TMMvVkBJgAQoVUztQAAK7WJw7xep9K3TU+UbbT72iK5vf75APV62XdibNHgLaTUVsW8Jcyhb76TGfpkuP39GC4kARhEsgv8U4nxLEOf2hioesbuePrL47k0Naw2vQvmpQ11lVfaHc9w4vYWHQ7QwwCO6igj4A1S6pyVNWX/tTu+xN0HfyuA1DgcWgNYD8ZnILxLzO+ywrsgessZHv1Sff2i7Qm+zmYA6QM8TDMBrzP4FUCtDetwXVP9kk8SeR0iPnqdGQr7Kc1TmAgEdT2AHLvj6a+Q2jwfwP5MdLDdsQwneXkLxpoINQDYL7KcgSNZ61XZM2cd27jswS/tjnOQUwDGgTAOwPeYCGAADITUpla3t+h5MDWxA483Lqv4j93B9lIGAycCdCLAcCiD3V7/s2D8Jdz80SNNTU1huwMU/aPsDkD0niY1pf1Hd46neJrd8fSHz+dLAfgqACBAEoAE0o7QRejy8I+wD5nOn9sd4xCXBpALhFIy8arb6/9PdkHRFXl5C8baHVgfEYBpICxxjJj4uttb7LU7INE/kgAMIgTe+cBk4uvtjqc/NrSkFQOY2L55EOQ1VMIwcFIPO3zf7hiHmaOI6TbTEXrfXVB00yBMBADGoQDX5nj9f/V4Lo3HKxURR5IADC6d35gJudkF/ql2B9QXWVkLnWC6OqIoPfeMefvbHdcw0n1TLSFkd4DD1CgwXWc6Qu9me/3FdgfTHwz8aIfatHLazPkj7Y5F9J70ARhcpkRuEPP1ADx2B9VbY/bZPheMAyPLzLA5BcDHdsc2PFAQ4B9GrQWCdkdos00AP2xdRSN39qYnrcA0moBRADIZGAFgLwy8s90YAspyCvznqZBesGJF1efxulAGqgjcHOVaHQCNBPNoAONBOAxASk/HJODUdDP8mMvl8ki/gMFBEoBBwuOZt2cI5h67ltLpuflFJ62sq3zB7vh64nK5HGC+pms5gQ4G8JTd8Q0H4W30gCMTFwB8nEX1W6GMlrvtjtFmXwUDlT/q74fd7oWjkdqyr9LYhw0coqG+S8xHADgeQK+/GTPDox3qRbfHPzNYX/HveFyoyepXTXVlX/RmX5fL5UjJnHCYBs4A6HwA3+3uNjhGTLwOQGk84haxJQnAILHDMKcQ716uia4HkPSdcJwZE2ZxlxYMAADxlH4cTvRDU1NZq+vMkmxHmO8C4zy0fasLAXhchfjSpurqrXbHOJgFg4s3AdgE4C0AqzrKXS6XIyVjQpYGnQbCHHT/AAUAMLA/FJ7Jzvef31hXUWvndbV/m3+9/c9v3Pn+WSD8DtE6lDKuzi0sKl9ZU/m+nXGLnkkfgEGi/ZuylfzswpIT7I6vOz6fz2BF11pWahkKmEhNT5RtDNZW+LdltOwBOA5SIR4TDFSct3Jl5Vd2xzZUNTU1hVfWVb4QrKv4bTBQcRQxn0BAOdonFepGJhEedXuL8uy+hggcrKtYSobjRIDejLJPCmuS+T0GAUkABgni6N+UiXVSjwjYuC3j3LbewhaxE0sCYIPnqqtbgoH7161cWbnN7liGm4a6yn81BCpKWJvfA7Csh91TAXo8p7DoB3bHvcs1LLv/MzKMHLS1eOyGgfNdrpI0u+MU3ZMEYJCwbD7vrPTmeouz7I7RSmlpqWLCdd1c1+TS0lL5eyiGncb6JW8GAxVnELMfUR6k7dJZ06O5Z8ybYHfMkRqW3f8ZM0X78jE6Jd082e4YRffkF+/g0d03ZdJIznkB1rz03tkAH9HNLumr166ToYBi2Gqoq6x0mOoYtPUdiGacNs1H2ibSSh5mClUA1sNHtcKgGqY8HEkCMHj01Fmu0O3xH2t3kF0Qg37d004qLB0BxfC2fHnZB5yCUwA8F3Unxvc3tKT1+O8pkZqeKNsIxrNWdd30WxJJQhKAQcDjmbcngD162I1YIal+Obi9RWchYtGZaExZE0AIND5e8W2L4cgD8ErUnZiuOO30uYf2+qAJQIQPLEMF9rQ7NtE9GQY4CGxXoYNVL3I1As7MK5h79IraqlftjhkAgeg6cG/2TGwCMNXnSx+5Le17THSwBg4kIBNMo5mwjZi3MGgDEb9phPUb8ZyMJR7y8haMZSP83ZV15U/bHUsk15klezhN82iYdDAIE5mQ1jbRDG0m8BaG+lox3iDT8fqKFfettzteu6xZdv8Wl2dOoUMZz8N6mF2Kw6HuAJBvd6wdGPg6SkWm3bGJ7kkCMAgoMqaAe/MkBZmsrgdwtt0x53iLC5m5V68kCPF/BZAzc/6+bJqzGVxIzThJU9tSsDsXIiBu+5kAas9aTIeC21u0jplqDNBjvXmouvJLxjuIZ+52jaxfbqir/FfU+PL9F4DwnY5tBpoZ+pWeln3Oy1sw1nSEzwHgBvhEE6FJYHyMzvUWduH2+I+Fot2GjbIOr26sX/ImYsjtLTqcQXMJdDpC+hgGqZ03nDvvftudZ2gC4Agh2+t/lUC1YHo4WFf2Wk/nyfbMOYKUY3rXcq3RuKq+/L1YXlMiNNUv+SQ3v3i2Jn4KFq20zPDM8M49eVWg6tl+HD4OeJTlkh4EGWGS5CQBGASIeYrF45/RNre7s0v5We78kqN684sznhjch9cR8WsByMkvOp6hrmUzXAjA6PvKQzSZCJdp8GXuAv+/ifHHaSdMXlpaWqqt9jYofDCg7t39MHQTgKgJABN+CeCwyDJFqh6AZQKQm190kknqIhOh89CHKWhJwcPgW3arUMbFAGKSAOQUFOUz0zUApnU84vt0x4GjAT4axNe6vf5GgH8fDFSuiPoBZbgA3m0WQzJwPoBBlwAAwMq68qdzCor+zEw/tbxkqCsAnGl3nG1ovHUxvrU7MtE96QMwKFg+ID8Ho8pqZ1BfHr6xl1NQlI+26U+7hvYlQC/vXs4xHwo4o8C/n7ug6FEmegnEZwIwBnxQxrEMVK5+8b3nc/KLjh/w8foht7DowJwCf50mep7AJRj4/PMxkz3T/z231/8sMwUAxGq56myAlrsL/DW5hUUHDvxwgwftwDUAok3XW5hbWHJYX44XR9ajfDRs/RIieiYJwCDAlk3k9J5mugWWK7zx2bneoh6nG41fvFF7/t8O1q9blKc9/eLbMRvjnJNfVKIYb4IpPq9CiE5gouezvf5fo0vbp8H9aGToBZfL5cguKL5aa3qdObkWgPL5fEaO138jmVgLxGnoF6NAa3o9u6B4jt3XmyhtkzTxbVGqFZum3+4Y20ceWb/CM7oZ0SCSgiQAg8NuLQAEXreqvvw9ApZY7K8003W9OG7M5RQW50ZZV/5rFdL3EFk3ySpyDPg1gMdzaarb61/MRA+gbaW2eDIIuNHt9T/h8vlGxPNErsJZ4xyZE1cS828AZMT5uvoc24bm9OUM/Brxf6WYQcxVbm/xHcNl8qhtGa33IkorABOda3d8ZHBJlKpPp2dNTpI+CiKaYfGPaDBrHwI4umu57ni3Scq6FYDgy/bMOaKn48caa+sJiQj4w8qVlds0KcsEgAa4KFBublFmWG2uAXBhL3b/nIByBl+goacphzExFeGxqQiPJcOxnwIdz4TzAfoT0GMz5kxHc0ZdvJKAGQX+/RzsXA3gtB52fRvMFQRcS0jMPOwuz5z9Hdr5DAB3L3Z/B8AiMJ1HrI7lFIzruOdhbU6AVlNBVAzwYob1sLJO/LM1L627vyMJUMxxaXVJBs9VV7cQ8wNRqg+ycwbQnPySY5jpIstK4gei9ZMRyUM6ASa5qEMAidYBQENt2TvuAv+DYBR12UORMq4DMDtRseZ6imZo63e/33QsNUsmvQdluaxhv1sAcnOLMrWTlgM8vYddnyLi2/dIb11RXV0dbSGWDQA+A7AWwMMAkOst+q4G/RjAfAAW85vzKY7mjLqpPl9eLPs9s+ZxiugpRJ8FshmgxQr6vpWBytf7cuyBchf6J0KjCUB37+U1CA/BVIuC9WXPd7PfBgCfAHgeQAUAyvEUn8wKlwF8Nqx6wgPFz7z0PqPt/8nQpowHwPoqWHS1Z7AbbX9XEyq3sOQwrfUTaFtRsqtNRijljoTfJ9FnkgAkuWhDAMmknd+kWeNmIszG7h3dzs0tLLlxZU3ZfxMRa/vSxLvHCtzRsdSsMs11Wu3+hY2px5kOLWVlLXRqZ8ujALp7+L8H4KJgoCLYn3O0P1wvnlHg/41iugNg3+578SkZzemL2dB/bxvPFgNE3a3y+IgR1j+zY56C7LP838EOLEf3D//VpqKLnqopf6Mfp+CG+vI1ANa480uOAul7YJFYErjEne//H8BbEn0PEqmhtuydHK//JQZO3O1GAQmfbz+noChfa10FYEyUXX49nOdyGEzkFUDS05bf/pRpruv4ubGu4m0GHrTYzdDaTEhfgNz84lNBsFqxbL1Dm3/u2GhfdtbqF3a/WgDGjG+9G6DTo+5AqExXad/r78M/0qraik+DgfJziWk2gK27nwpzWdPPY3A7u7MDRMXBQMV5djz8s7IWOmkHngBweJRdTCa6ZvoJk3/Qz4f/LoJ1Za8FAxWnEHAtrJbPJdzCqpv//0MEgxqiVE2F5SD82CotLVW5nqIZ7nx/U/soD8uHPxHqg4GKP/fx8MImkgAkOWJl9c14S9f127Wpb4bl+uJ0fiKmDtVk/e6fgT/V1y/Z3KXYqh/AZJ/P16eheu09wrt558/XBWsr/DU1i5tjea0NdeUPGqSntw1r3M0ZsTxXF60AvMHa8oo4nqNbY8a33oTorS3bFfFZjbXlt8b4/S83BCp+w4wzAbR0qVNgFNh1PxKFwY1RqvbMPWNezBfT8njmjMrJLzo+x+ufm+P1l63+17rPtaLGKEl+hxdC6S3noq8TPwjbyCuAJMfgg3cvw7quZU8tr/qfu8D/MHi3d/6G4VDXAojbkKEZ3rknA8i2qNpI29PusihfB+CYLmWpW7ZkTkCPHcDaz1ng34+Y7+nmxl0RrKv8fbyueUVt1avZ+f5TifBPAOMHfMCeMROKGmsH3pLRX+5C/3RoXBGlOqSIfStrK2vidf7GuoraXE9RgVYUgGVfjKHLzGh5ydGczrD4tm+GQwcA+LgvxzNIP+z2+nd0llAqwBkARgM0MgTee5cP9PxIrws71ZyOV31icJAWgOS3WwsARZvdjPlmALt/82LMzikoidtsewrKeiliwp3B4OJNFuWW8YdUuNcxGky3AxgZ5by/D9ZVxO3h36GxruJtrbQXFq8D4uCvjbUVjybgPJZcLpcDJu6GdXMzM3BhPB/+HVbWV64C01xY/T0fwtofrJ9Z1SmmA/p6PAJORdvojfY/fAqALABT0PXh370WAq6dfsLkwqYnyjbafZ9E30gCkMRyc4v2gsUQQFi0AABAMFD5FoEesagywPrauMSYX3QSgDyLqk2pHL7T6jOsEWUooNGrjoDZhSUnMPj8KNXB6cdPvioe12plVU3Vy8T8kzif5rNwRssVAz9M/zkyJ/pB+J5VHREvagxUlCcqlmBd+T+I+XY774dN3rYq1NT3BCBGGKDr13+R9nsZ8jc4SQKQxMJO67HxRBx1fnOtwzfB4tsRA3NmeIoPinWMmqLM+ke8KBBYusE6/mjzs+tetQAQm9HGuW8ywtqf6F9GDXWVlQAei9fxiflaO5tWS0tLFShq0/9boa1GQuYdiLT+y/TrCBhwJ8PBhKz7nIDAY/p6rJiFBP79mPHbP3YX+H+XM3P+vjbeHtEPkgAkMYKyfiCSWhftM431S94Eo9qiyqGIY9oK0D4JidWypJu7HwfssI6/F8sC554xbwKYzrKsZLrBruV7NYd/gbZOerG2PtRsPGTHNXV4+oV1eWBYdiRl1pc1NZXF47q7tXbt4hCILrPzviQaRxnuSCCbZ4fkvcH4FZvht90FRTdNmzl/5MCPKRJBEoAkFm12PDPc/QpniqL0BSDMdXvnT45VfLptxb/d3gkT893djQMOb1v3EYDQbhXc81wAphmeBeu/t587edRfYnVtfbWqbumHYCqL9XGZ8JgdD9hIpKwnk2Lg6ca6qoa+Hi9WGmrLGwGsse3GJBix5fBZMCXN9NCZYLouPRx+o71jsEhykgAkM+vZ8cKbvkr9qLuPtU1cQ/+wqHISzGtiEVpOfskxAGZaVG0NGeE/dvfZpqamMIAPLap6HApIGudYVjD9pb5+0fZYXFu/kb5r4AfZldJs6wMuK2uhk6INbVTa9tneCHznwI8yODCR5e9r4r6vCMlE1wD0o44/zLiIgKsIuIqYbwVwG4A/E+g+AAEGXgV6Oc8lYYKCasop8A+rFprBSIYBJjPL2fH4o7VrF4d6/CzTTaDdp1FlsP/000tuXr687IOBhMbKvA5MVj3C726qefCbng+AdRbXl7KpNW0igPetPuLxzBkVIjrO6mgOTVZLIydUMFD5VrbX/2rbevaxoQ3D1vfc39m75TgNsmrSXT82bXudnbEBwNaM1trM5vStAOK6IFNy4EzLUtptboSej6RDSxvrln7Yl8/4fD5j/fb0I0njh2D40f1MkE5m/MntLXYGA+XDscPmoCAtAMnNogWA1vXmg8G6stdA/LhFlTNs6AG1AuR6i74b5T38Nqc2/tCrg0TpCMjR+j0ACDsc38fu0x0DoH8PNKGJFSLUx/J4DgpvGPhR+o8pyqQ/hEB1dfWOPh4u5p6rrm4BocnuOBKCYJkAgLGpj0fql+rqarNxWcV/grUVpcFAxUFE5Abh+e4/xb9ze/1Df72GQUoSgCTVPgRwtyVto84BYMEA3wTrKTyKZ+TPntTf2NqXGrb6u3NPff0DX/fmGIQoIxnM6CMBtInDrMqZ+Zn+XkusKXBMl0ANadXnb3exxCDLzn+k8bSdce1CD5N+AMzWveyJN9oRTUNteWOwtuJkgH8OINrrNwKwKDvff4gNMYoeSAKQpNiw/iasiXvVAgC0zVbHwBMWVSkGOa7uT1xub9HhIFgshoNmNkK9burTyjoBYFLddARkyw6MpOjV/lxLPIRN9abdMcQSEyyHjmpDJc09B/CW3QEkBll34NXKzoV3OBio/BMU3ACixZFBhDIkYM0C0TeSACQpraLMAaBVr1sAAECxuhEWrQAMzMs9Y96EPgdG0b79872Nyx78svfHiTaUkaO2ABBhL8tr1L1vFYm39g6aQ2ZSFGLrew6H7nUiGm/ssO4zMpS4XCVpAPazqtPMCVntszvBmorVrNTpAKKtuzHV7S3O78sxRfxJApCkCFHGxHPvWwAAoKGu7BUwPWlRlaLDZp9mzMvO9x8CxnkWVS1GmPs09a6Z2rIOVq8nul8W2PIdKCkzIe9Ae6O9g2ZMFx+ymeU9H+to2Wh3YB2cO9TmgR8luRmZ4RNg2f8FMJyOpGiNaawpe4kYUXv+M/Ev7I5R7EoSgGTF1i0ACKX1+ZuXNsxofQEWuDxzer2SGIGvhcUvISL+W18n4Gmf2W73FgPGgS6Xy3p0ClsvAMPksHf43+5sHbcfY6kWZeHq6mqzz0eKk1Y1pO63NTKidcb8qmHZ/Z/18Whx01BXcR8BL1qGypgxo8C/X1+PKeJHEoBkZT0r3jeWi+v0YFVN1csArBZqSXWo3k3jOsNTfBCIrCaEaTVBv+vnVVo13ac4MidPtNqZQZYPejaTbmW4ZItnIKw6ITqyshY67Q6sQ4ph9nkc/GBDrHMty4G1dsfWBTNT1JFAhqZT7Q5QdJIEIGlZtgD0+123Aln2BQBwQW+ycqX4GljMG8FE962qrfi0X0ERorRmhA623p0tm9ZZYY/+3pdYa38wJsvMbAPGUVY6HLnvltF9PVbcYjSNpIklHtrm2I/24ORldsfX1bbM5hpYJ45g4ul9PJyII0kAklD2zFl7w2IIIIB+d7xaGShfC0LAoirNAHe70tzpp5ccAKDIomq7Yajb+n2h0TrvRVkTgIk+sT4QdzchSUKNGR+egCH074oAy+TOQGrS3HOG7veQ1sGAw+Z5sP47pVWIn+zr8eLtuerqFgD/iVLd61eOIv6GzC+qoUSFUqJ0hOvdJEDRMKkbLcuZFublzd0n2ufChnk1AKfFAR9Y+eQDH/c3nmirArK27gioSL9reRzN3x3IfYklrcOHDvwoScV66WZOnnvOiofaPd/J5XI5QPqSKNUv2LX4VU8YsOyXQMA4u2MTnSQBSEYUZTIcGthwt8aaspcAWE3fmmY6DMtWAHehfyJAJRZVOzRCvx1IPCash5IRwfL6TWbrbxXRZquzgTJ4iC2CQq9bFnPyNOUS0xC7552MzIlzoo7/B1XaHV9URJYJAPNwmLJ58JAEIAlFmwyHaOBjrzXhhihn/ZErv2T87h/AlQBSLD5QvqqPc4nvdj2GGS2hsbz+VD1mLSzeLTKQlSxrkRNT7sCPkjxYh1dHqcrvaeGmRPB4Lk0F8AO744jPtc0ZRcAtUaq/SVep5XbHGA2xtu4kqobUENlBTxKApGQ9GU4orAc84c2q2ooXo8xXn+6E/lVkQXvnwAVWoSjFtw40lvaJg6w6mVkOBayvX7SdQFYPJANmaNZA4xmo008vOYCBE+yOI5Ya65e8BcCqmXn8huY0t93xmcbGXCB5OoHGUkgZtyDK5D8g3F1Tszh5H6ZMB0Sp6XmhMJEwkgAkJbL6BtzqOungmIz3ZTNKXwDCRe0dEAEA7Z0DrcaBV66sqYzJ7Gts/Y7ZmTpq/wOs9tfQD1sfhy6NOn9AgoQNfTGG3nSnTMTV1lX0c7uD00wX2x1DPOR4i2cC+EmU6m1O07jb7hij8XguTQXB+rUM8zt2xyc6SQKQlCxbAN4vLS2NyRSzwfqy5wGssKjKINN5OQDk5c3dh5kutNgnrDX9JoYXa/laIxx2WL4GSIP5GKyHGE1yZE6ybdUxV+GscQAW2nX+eDJBS6JU5eZ4iqfZFVdOftHxAIbUKxcAyPbMOYLBlYj2+5lxc28X3bJDWG3yIdryzEz/sjs+0UkSgCTT/g3cav31mM69rqFvjFL1Y49n3p7aUJcD2G2CFQKWrKovj9nc+9FWN6QoHSEDgaUbwBTl3Sffkn2W/zuxvE+95dCOW2A9dHPQW1Vb8SIAq1cvxAYvsqnlhZjoLgyxFpfsfP8hpIyViPJ3iYA3NnyZ1rslt23QPg9GtCnGdRhqld0xik6SACQZYqf1JDjEMV3wZlWg6lkCNVhUZYbIvI0JF1nUmZoRy2//Ua+LiKOuCWA4zD8ACFtUjaPt9PdYxtcbbm9RHkAXJPq8iUXWIz4YxzoyJ5UmOpocb9EvAEy1+abElDu/5CgiPIVo7/0BJqaftK83kZT22Gf75QwcGaX6n011ZV/YHaPoJAlAkiGT4zIHgCUdZUQAYR4sZrNj4MHGuoq3YxqCjpbYUNRVAVcsq3qXiP9i/TE+M7ugqNuJjWLp9NNLDgBRBYb4v6VgoDwQJWEEwFdn5/sLEhVLbn7xqQwacCfUZJLt9ReD9PMAoo5mIebfrqwrf9ruWKPJKSjKJ+abotUzeLHdMYpdDelfWoORjjILno7DkrcN9eVrADT2cnfTUOqWXu7ba8zGOutyHNzd51LYLAXhK6s6Yro1J7847qMCPJ55e4YdejmiLZk7xDD0ZQCs1mNQRHgoN7/opHjH4M4vOUoTPwGriakGodzCogPdXv8/CChDN1NIM1PNtBMPus7ueKNeR0FRITM9iigrFhLwxiknHPSI3XGKXUkCkGQoyhh4sBmX9dcZ+oZe7vrIypqymK87rls+/BDWzfmTultwpr0vwHxYr2+gmLjSXVA8Lx73DABm5M+eFDLMZ8AYsrPQdRUMVL4FcLT3u5maqCGnsChuY/Jz84tOAumnAIyx+14MVN7MuVPc3uI7tKY3Afywh91fb3UYc2LVCTiWPJ5LU90F/ls10+Ow6DPUjqH44mSMf7iTBCDZWM+Cx80jdsRk2F1XjYGqZ5jQU8cczdq8OR7nb2pqCgOwmlDIOXafHQd099lgoDxAjDuiVBtgvs9d4P9drDup5RQUZytyvmD18Gfg8Xjcp2QRDFTeCSDaAjQjWdOKnIKii/pyzN5we/3zNdFTALp28gwzU01/jploMzzFB7kL/JfkeItXmqb6H8A/Q88rR65lI+Res+z+LXbHH8nrnT0mO9//o5Da9D8wrkKUb/4AwKA/NtRU/tPumMXubB03LSywZQvAZ+0LbMSFIr6RmWZ0s8ujjfVL3ozX+Qm0jsEHdS03TT0FQLfjhvfIbLliQ3P6AbD+FkVg/MqZOfEHeQVzF66orXp1IHG63QtHI7X1Jmb+Cax/4d0O6GWAOite9yoJcDijZY6jOeOfAB9nUZ/KTPe4vX6PchiXDGStCADIPWPeBDNs3gnA6p4yAxeAOBNAoV03JCtroXP8+K0jTDNldIhCGQbUeFa0L8B7c9s0voeDcCSY9wIDbNlotTsCNTQbxtlrllXE/OFPDsdor3d2ty0prSkORTscow3aMTJkqn1J8b5gOoqAY7YDJxP1/BqGCPVj0pt7teS4SDxJAJJI21S8erchgDyAZYB7o6Gm8p9ub1ETQC6Lag1Wcfn2v/P6GO+BkNO1nNr6Q9R399nq6mpzqs83d0RzxpMMzrE8PnCiyWqt21v0EBv0u8ZlFf9BH7gKZ41zaMePgNafIcpiJgTc2xCouCLbOzdp5siPl6bq6q15eXMLTIdaBeCwKLvN1GEzx+0tvtdh0p3Ll5d90Jdz5BYWHWiadJkOmxeS9btxBnBZY6CiPNvr/0lfjt2NA9zeom7+rRFh91kHRwCtzu1wAIYGwUBnO3fECMXePfM7aGYsGpPZfEVDdfWOGF3brldi4tXtPfz6px0AEIbJCkq1X0/fBl0Gt6a3nN1QXW3G4xrEwEkCkEQchp4Cy7dkcRgBsNspjBvA2rV7OT8eDJS9Ft9zo89DASM9V13d4vFcWhhSm5Yi+vtUA6A5ZGKO2+t/BcS1rPlpk/mtpvoluywznH2W/zvUqg4G8VSQzoWmbHTT6YyYb22oq7wWff01P4itWFH1uccz79SQMusBZEXZLR3gn4UNvizb638GRMsNjTUGq7e6TmQzo8C/n8PkQ1lhOkB5WmMqUdTHTZiY5zfUVcZ6MRxn9IV3EoXXkcL84CBvMifQfQ496uLnqiu2D/xoIl4kAUgmTAdbPUOI49sCAADB2rKmbK//aQJOjYzIQPRhPbFCxO+x5aOTD+7tMerrF233+Xznrm9Ov5GAq9H9d5VjwHQMEcFBgNvrDwPoaGbNwA6kQnVkYt1+5Wllxs+CdZX3xvseJaP6+ge+dvl8Lmdzxt8YfH43uxIBp4L5VE2AJhNurz+EznUgRoOhtOrV18uvSdHchpqKlXZff4xtYWCRmdF6a1N19daBH8423xLws4ZAeZXdgYieSQKQRJh5ivWvQI5/CwAAQ/MNWlHnsECmJ1cEBvbevDcU9DrTsj8q9ToBANpeBwC4NqegaA0zLUb0CVW6cqDvPcvfgcZ5jfUV/473/Ulm7Q+rWW5v8dMA3wbrWSytONHne07PhHV4dlNg1xabwY3eZOL7HCFn2YoV9623O5oBaAXor06tfpPM0xSLXckogCRCUR54CrGdBTCalfWVq9A55Strw4z7t38A2J6+Pdr1dTsUMJqG2sq6FsNxOMB3wHrc+kC0gnDDtoyWo4PD/OEfKRgov0cTDgfjYQCxHu71DTEunH7Cga6ur2sGoY0A6pj4SoCPCAbKj2ysrfjjYH34M/AqE1+pQjwpGCj/uTz8BxdpAUgqek+ANnQtNdiRkBYAACCiUmauBii4qqbq5UScs6m6eqvb638HFh3sxowPT0A/1kFoHzb1i5yZ829nM3Q5QMUAxg4gzC3MuJ8RvmNVYOmHUfciFQZjg0VNa3cHJ2AzY/fPOUM6pg9TZmoBsUV8POBEaVVtxacAzj+tsPgmg/lKMM5B9LHhvfEFAYtSEL4nULd0Q0Nd1KvabvXvRgHddaDbAOuVLvurOSKOHQC2AVhPzO9pwntExnsgvW561uRPEjwefiN6+LvXCwzwRoA2M9PHILytGGvJqVYPdJSHsNeQWkhDiGh8Pl/Khm3pHlYoIMYPAPTm9cJmBhqJ6Am0pj4ZDC7eZPd1DCYez5xRO5RxFgF5AH6Abqa53YnwFTHqtdJPpITH1NfXL5JOZELEiSQAYljKy1swNuQMTSHmyQQ1CsAoMEwQb1LEX2t2vhEM3P8+hlHP/nhz5ZeMdxh6Cpl8IJNKJ/AY3dYisYnAX5DhfK1h2f2f2R2nEEIIIYQQQgghhBBCCCGEEEIIIYQQQgghhBBCCCGEEEIIIYQQQgghhBBCCCGEEEIIIYQQQgghhBBCCCGEEEIIIYQQQgghhBBCCCGEEEIIIYQQQgghhBBCCCGEEEIIIYQQQgghhBBCCCGEEEIIIYQQQgghhEg6/w+YMVetpv1EKgAAAABJRU5ErkJggg==;" vertex="1" parent="1">
          <mxGeometry x="551" y="507" width="126" height="63" as="geometry" />
        </mxCell>
        <mxCell id="flliIf5FsEkTjVaYl4Cn-32" value="" style="shape=image;verticalLabelPosition=bottom;labelBackgroundColor=default;verticalAlign=top;aspect=fixed;imageAspect=0;image=data:image/png,iVBORw0KGgoAAAANSUhEUgAAAgAAAAIACAYAAAD0eNT6AAAABHNCSVQICAgIfAhkiAAAAAlwSFlzAAAOxAAADsQBlSsOGwAAF1hJREFUeJzt3X2wbXdd2OHPfQl5I0ACJBBeAkmkVCgoRsrLIFhprY2AFLWO0FFsmWqto9jRsZ2pFWpnRPuCzsA4U7HVYTpF0AKCaAUrlSKBFBTQccKLSCEQXi2vgST39o91Ijcn5+ae3Lv3Xnud3/PMrLnJPees/T3J7P377L3XXqsAAAAAAAAAAAAAAAAAAAAAAAAAAAAAAAAAAAAAAAAAAAAAAAAAAADgYDq0ov08sPranT8vqY6uaL8AQN1c3VB9sHrHzp9n5HQD4P7V91SPr66q7n2mgwAA+/bx6trqf1e/Un3ozu7gzgTAoeqbqn9aPbU6cmdvDABYuVuqV1cvrt5QHd/PD+03AB5S/efqcac1GgCwCW+unl1dd6pvPNWz+MPVc6tfqy4/87kAgDV6QPWPqy9W13QHrwbc0SsA51avqv72SkcDADbhd6unNcXA7ZwsAM6pfrN68pqGAgDW7/XVU6obd3/h8B7ffE7TM3+LPwAs25Ob1vRzdn9hr2MAfqH6rnVPBABsxBXVPavXnviXu98C+Kam9wxWdYIgAGB+x5uO6XvDrX9x4kJ/QfWu6rINDwUArN9fVH+j+mzd9i2Af1NdPcdEAMDa3aNp3X99feUVgHObTiN40UxDAQDr96mm0/l/8dZPATwziz8AHHQXNa35f/UKwB9Vj5xtHABgU/64+ppDTacNPOPLCgIAi/HAw02X8wUAxnGVAACA8QgAABjQVYerK+eeAgDYqCsPVZ+rzl/xjm+qjq14nwAwosPVWSve5+drOj/wKrdfau+rDAIAd97hprV1pev1Ohbq9+bZPwCsyrGmtXWlPFMHgAEJAAAYkAAAgAEJAAAYkAAAgAEJAAAYkAAAgAEJAAAYkAAAgAEJAAAYkAAAgAEJAAAYkAAAgAEJAAAYkAAAgAEJAAAYkAAAgAEJAAAY0NG5B9iQw9VDq0dUD6wuqY7MOhEA2+KW6obqg9U7qz+rjs060QYc5AB4WPV91WOqr6nOm3ccABbiC9UfVW+pfrn6k3nHWY+DFgBHq2+rfrB60ryjALBQ51WP29l+tPr96kXVK6ub5xtrtQ7SMQCPqt5RvTyLPwCr86SmteUdTWvNgXAQAuCs6nnVNdXDZ54FgIPr4U1rzfOa1p5FW3oA3K16Y/WTHby3MwDYPkeb1pw3Nq1Bi7XkALig+u3qsXMPAsBwHtu0Bl0w9yCna6kBcNfqdVn8AZjPY5vWorvOPcjpWGoA/GL1+LmHAGB4j29akxZniQHwjOqZcw8BADue2bQ2LcrSAuCSFlpaABxov9i0Ri3G0gLg31b3mnsIANjlXk1r1GIsKQAurL577iEA4CS+u2mtWoQlBcCzq3PnHgIATuLcprVqEZYSAIeqH5h7CAA4hR9oWrO23lIC4KuqK+ceAgBO4cqmNWvrLSUArpp7AADYp0WsWQIAAFZrEWuWAACA1VrEmrWUAPD+PwBLsYg1awmX0D1cXbyG/f5l9aU17BeA5Ti7useK93lx09p1bMX7XaklBMBdqiMr3ucLq+eueJ8ALNN/rH5khfs70rR23bjCfa7cUt4CWLW/mHsAALbGkGvCqAEAAEMTAAAwIAEAAAMSAAAwIAEAAAMSAAAwIAEAAAMSAAAwIAEAAAMSAAAwIAEAAAMSAAAwIAEAAAMSAAAwIAEAAAMSAAAwIAEAAAMSAAAwIAEAAAMSAAAwIAEAAAMSAAAwIAEAAAMSAAAwIAEAAAMSAAAwIAEAAAMSAAAwIAEAAAMSAAAwIAEAAAMSAAAwIAEAAAMSAAAwIAEAAAMSAAAwIAEAAAMSAAAwIAEAAAMSAAAwIAEAAAMSAAAwIAEAAAMSAAAwIAEAAAMSAAAwIAEAAAMSAAAwIAEAAAMSAAAwIAEAAAMSAAAwIAEAAAMSAAAwIAEAAAMSAAAwIAEAAAMSAAAwIAEAAAMSAAAwIAEAAAMSAAAwIAEAAAMSAAAwIAEAAAMSAAAwIAEAAAM6OvcAAGtwuHpAdeWu7YrqFdXz5xsNtoMAAJbqaHVZt1/kr6weXJ19kp/7rY1MB1tOAADb7OymxXyvRf6yPIbBaXPnAeZ2XtNL8ye+TH/rPz8gxyrBWggAYBPu1m0X9hO3+1aH5hsNxiQAgFW5qL0X+Cuqi2ecC9iDAADujEs6+TP5C2ecC7iTBABwokPVpZ38mfwF840GrJIAgPEcrh7Y3gfdXVGdO99owKYIABjHj1X/qOljdXeZeRZgZj5eA8t1VvVV1Tfu8/sfVv21LP5AXgGAbXdOdXl7v1x/WXWkuqG6z1wDAsskAGB+53f7xf3W7f75jDywBgIANuPu7X1k/ZV59g7MQADA6tyrk3987l4zzgVwOwIA7pz7dvvF/dZ/vvuMcwHcKQIAbutw0/vue70ff0XT+/UAiycAYPKN1Yuajrg/2XXkAQ4MAQCTS6q/PvcQAJviREAAMCABAAADEgAAMCABAAADEgAAMCABAAADEgAAMCABAAADEgAAMCABAAADEgAAMCABAAADEgAAMCABAAADEgAAMCABAAADEgAAMCABAAADEgAAMCABAAADEgAAMCABAAADEgAAMCABAAADEgAAMCABAAADEgAAMCABAAADEgAAMCABAAADEgAAMCABAAADEgAAMCABAAADEgAAMCABAAADEgAAMKCjcw8AW+Jj1RvnHuI0fWqf3/dnLfd3XKX3zz0AbAMBAJPf29kOsp/Z2QC8BQAAIxIAADAgAQAAAxIAADAgAQAAAxIAADAgAQAAAxIAADAgJwKCyTdXL5h7iNP0ierJ+/i+51dPXfMsS/DL1S/MPQTMTQDA5MLqkXMPcZpu2Of3PbDl/o6rdOncA8A28BYAAAxIAADAgAQAAAxIAADAgAQAAAxIAADAgAQAAAxIAADAgAQAAAxIAADAgAQAAAxIAADAgAQAAAxIAADAgAQAAAxIAADAgAQAAAxIAADAgAQAAAxIAADAgAQAAAxIAADAgAQAAAxIAADAgAQAAAxIAADAgAQAAAxIAADAgAQAAAxIAADAgAQAAAxIAADAgAQAAAxIAADAgAQAAAxIAADAgAQAAAxIAMDk+NwDAGzS0bkHgC3xsur3qiuqK3f+vOKEf794vtEAVk8AwFd8fGd7yx5fu2u3j4Jb//kB1ZENzQiwEgIA9udz1R/vbLudVT2ovV85eHB1zmZGBNg/AQBn7qbqPTvbboeq+7X3KwdXVPfY0IwAtyEAYL2OVx/a2d64x9fv2W2D4MRIuO+GZgQGJABgXp/c2d66x9fOqy5v71cOLsv9FzgDHkBge32hevfOttvRpgi4orrPJocCDgYBAMt0c/W+nW2/3l99NMEAJABgJM/f2c5vemth99sKt7614CONMAABAOP5fPWunW23o00fadzroMTLq3M3MyKwbgIAONHN1Xt3tt0ONX0y4WQfabxoQzMCKyAAgP06Xl2/s/3BHl+/R3u/rXBldWlTQABbQgAAq/KX1bU7227n9JWPNO5+9eBBTWdTBDZIAACbcGP1pzvbbkearqew19sKVzRdhwFYMQEAzO2W6gM72xv2+PolnfxsiffeyIRwAAkAYNvdsLO9eY+vXdDJD0p8QHV4QzPC4ggAYMk+W/3RzrbbXdr7Ko0f3tRwsM0EAHBQfbm6bmcDdvHyGAAMSAAAwIAEAAAMSAAAwIAEAAAMSAAAwIAEAAAMSAAAwIAEAAAMSAAAwIAEAAAMSAAAwIAEAAAMSAAAwIAEAAAMSAAAwIAEAAAMSAAAwIAEAAAMSAAAwIAEAAAMSAAAwIAEAAAMSAAAwIAEAAAMSAAAwIAEAAAMSAAAwIAEAAAMSAAAwIAEAAAMSAAAwIAEAAAMSAAAwIAEAAAMSAAAwIAEAAAMSAAAwIAEAAAMSAAAwIAEAAAMSAAAwIAEAAAMSAAAwIAEAAAMSAAAwIAEAAAMSAAAwIAEAAAMSAAAwIAEAAAMaNQAODr3AABsjSHXhCX80sfWsM+nV/+3unEN+wZgOc5pWhNWbR1r10otIQC+XH2+On+F+3zczgYAq/b5prVrqy3lLYCPzj0AAOzTItaspQTAu+YeAAD2aRFr1lIC4G1zDwAA+7SINWspAXDt3AMAwD4tYs1aUgBs/RGVAAzvWAJgpT5VvWbuIQDgFF7TtGZtvaUEQNWL5x4AAE5hMWvVkgLgf1TvnXsIADiJ9zatVYuwpAA4Xv3s3EMAwEn8bNNatQhLCoCqX6reMPcQALDLG5rWqMVYWgAcr76v+szcgwDAjs80rU2LefZfywuAqg9WPzT3EACw44ea1qZFWWIAVP1q9dy5hwBgeM9tWpMWZ6kBUPXCRAAA83lu01q0SEsOgJr+wz+n+sLcgwAwjC80rT2LXfxr+QFQ01GXj6zeNPcgABx4b2pacxZ1xP9eDkIA1HTyhSdWP1J9ZOZZADh4PtK0xjyxA3JSuoMSADVdgOHnq8uq78orAgCcuTc1rSmXNa0xB+bCdEfnHmANbqpetrM9pHps9fXVVU0v25wz32gAbLEbqz9uuprf26o/rK6bdaI1OogBcKLrdrZfOeHvLqzuVR2ZZSIAts0t1SeqT889yCYd9ADYy6cb7H8yAOx2kI4BAAD2SQAAwIAEAAAMSAAAwIAEAAAMSAAAwIAEAAAMSAAAwIBGPBEQAAfPXaqvqe5X3Xdnu6D6WHV908V83l+9Z64Bt40AAGCpLqz+XvW06u82Lfin8t7qVTvbm5tOAzys4yvefmKz4wMwmLtXL6i+2JmtV++pvnPDs5+un2jF67VjAABYirOqH67eV/14Z3511yubrhx7TfUNZ7ivxREAACzBvas3VC+s7rnifT+6+v3qp6pDK9731hIAAGy7R1Rvq56wxts4VP3r6teq89Z4O1tDAACwzZ7YdLDeZRu6vW+v/qC624ZubzYCAIBtdXn169X5G77dR1X/tQO+Rh7oXw6AxbqgenWrf79/v66ufmam294IAQDANnpJ9bCZZ/ix6u/PPMPaCAAAts0Tqu+Ye4gdP9f08cMDRwAAsG3+3dwDnODy6vvnHmIdBAAA2+Q7mz6Xv03+Vfs7zfCiCAAAtsk2Ptu+d/X0uYdYNQEAwLa4qPWe7OdMfNvcA6yaAABgW1zd9l6l9u905tce2CoCAIBt8ZS5B7gD51d/a+4hVkkAALAtHjr3AKfw1XMPsEoCAIBtcencA5zC/eYeYJUEAADb4C5NBwFuMwEAACt2n6ZL8m4zAQAAK/bluQfYhyXMuG8CAIBt8LHqlrmHOIUPzT3AKgkAALbBseqGuYc4hQ/PPcAqCQAAtsVH5h7gFAQAAKzBtXMPcApvm3uAVRIAAGyLV809wB34aHXN3EOskgAAYFv8XvW5uYc4id+sjs89xCoJAAC2xZeq1809xEm8cu4BVk0AALBNfq7te6b97uq35x5i1QQAANvkbdXL5x5il3/R9DHFA0UAALBt/mV109xD7HhT9Zq5h1gHAQDAtnlf9TNzD1HdWP3w3EOsiwAAYBv9VPXqmWd4TvX2mWdYGwEAwDY6Vj2r6QC8ObygeulMt70RAgCAbfXZ6inVdRu+3f/SdBzCgSYAANhmH6j+ZvW7G7itY9WPV8/uAB71v5sAAGDb/WX1LdXPr/E2/l/Tqw0/t8bb2CoCAIAluKX6keox1RtXuN8vVy+srqx+a4X73XoCAIAluaZ6UvWtndnFeT7f9F7/Q6rnVp8408GW5ujcAwDAaXjtznb/6qnV06onVOfewc98ZOdnXlW9vulz/sMSAAAs2YeqF+9sVfes7rez3b1p0f/wzvbFOQbcVgIAgIPkkzvbO+ceZNs5BgAABiQAAGBAAgAABiQAAGBAAgAABiQAAGBAAgAABrSOALjLGvYJACNb+dp6tDpeHVrhPp9Rfaq6eYX7hG1wdvXg6kjT9clvmnccdhyq7ltdWr2v+vS848DKHW1aW1fp+KHqY9W9V7xjAGB7ffxwdf3cUwAAG3X94ZwvGQBG887D1bVzTwEAbNS1AgAAxnPtoeq8pqP2z555GABg/b5UXXS4+kL1spmHAQA242XVF279/P9V1dtmHAYA2Iyvb+cYgJqOA7hmxmEAgPW7pp1j/048FfBPzzMLALAhf7XWHznhL6+rrqwesfFxAIB1e2n1glv/Zfc1AC6s3t10Tm0A4GC4vnp4J1wrY/fVAD9dfV8u5AMAB8XNTWv7bS6UtdflgH+nemZ1ywaGAgDW55amNf13dn/hyO2/t6o/aTom4OntHQkAwHa7pXpWJznXz8kCoKZjAd5ZPbnpbIEAwDJ8ovqH1StO9g2nenb/yuph1W+scCgAYH1+o2ntfuUdfdN+Xt7/WPWM6h80vSoAAGyfdzet1c9oWrvv0O6PAe7HN1Q/2HR8wFmn8fMAwGrcVP336kXV/7ozP3g6AXCrC5vOJ3zVzva11f2ro2ewTwBgbzdXH6re0XQ632ubruPz6Tv6oZM5kwDYy+HqokQAy/Oc6vkr3ueDmi67yek7u/rAivf5k9V/WvE+Yd1urj5VHVvVDle9UB9rOvIQluaza9jnDdWNa9jvSM5Zwz4/W310DfuFRfEZfwAYkAAAgAEJAAAYkAAAgAEJAAAYkAAAgAEJAAAYkAAAgAEJAAAYkAAAgAEJAAAYkAAAgAEJAAAYkAAAgAEJAAAYkAAAgAEJAAAYkAAAgAEdnXsADpx7VverLt3584J5x9m3J65hn/+sunkN+x3JOh6j1vH/el0+W324un7nz0/OOw4HyaG5B2DxHl19e/Wt1YOrc+YdBw60G6s/r15TvaJ667zjsGQCgDvrUPWY6juqZ1QPnHccGNoHq1+vXl69pTo+7zgsiQDgznhy9e+rR8w9CHA776z+efX6uQdhGQQA+3F59R+qp809CHBKr6p+tHr/3IOw3Y7MPQBb7a7V86qXVg+beRZgfx5afX91fnVN9eV5x2FbeQWAk7m8em3TgwmwTH9WXZ1XA9iD8wCwl0dXf5jFH5buoU335UfPPQjbRwCw21Oq/1ldPPcgwEpc3HSffsrcg7BdHAPAif5J9avV2XMPAqzUWdV3VjdU/2fmWdgSjgHgVt/SdHIRrwrBwXWs6aRdr5t7EOYnAKjpgL9rqwvnHgRYu09XV+XAwOF5tse5TWcSs/jDGC5sus+fO/cgzMsxALyk+ua5hwA26j7VA6pXzj0I8xEAY/uO6qfnHgKYxSOrP93ZGJBjAMZ1pOmO/5C5BwFmc1311dUtcw/C5jkGYFzPyuIPo3tI02MBA/IKwJiONp0i9Iq5BwFm976mMwbePPcgbJZXAMb0PVn8gckVTY8JDMYrAOM51PT53wfNPAewPT7QdD6Q4zPPwQZ5BWA8X5fFH7itBzU9NjCQo3MPwMZdveb9H6te3XSikT+tPlR9Zs23CQfR3ar7Nx2l/4zqqa33SdvVTWcEBQ6otza9zLeO7a3Vozb3q8BQHtX677/AAXVJ0zP0dTx4/LdcRRDW7eym+9o67sPHmh4jgAPoe1vPA8fv56ySsClHmu5z67gvf+/Gfgtgo17S6h8wPldduslfAujSpvvequ/PL9nkL8G8fApgLOtYqH+hun4N+wVO7vqm+96qiXk4oN7e6p8xeMCAeVza6u/Pb9/obwBszIfzYAEHyaqj/sObHZ85eQtgHIeqi1e8z7eseH/AnbPq++DFOUPsMATAOO7d6k/85L1/mNeq74NHmx4rGIAAGMd5a9jnDWvYJ7B/67gPruOxgi0kADgTN809AAzOfZDTJgAAYEACAAAGJAAAYEACAAAGJAAAYEACAAAGJAAAYEACAAAGtOpTwzKWq6v7zD0EDOzr5h6A5XLRh3E8qPrzuYcAtt6Dqw/MPQTr5y0AABiQAACAAQkAABiQAACAAQkAABiQAACAAQkAABiQAACAAQkAABiQAACAAQkAABiQAACAAQkAABiQAACAAQkAABiQAACAAQkAABiQAACAAQkAABjQ/wfe+JXtQEYD8gAAAABJRU5ErkJggg==;" vertex="1" parent="1">
          <mxGeometry x="180" y="520" width="60" height="60" as="geometry" />
        </mxCell>
        <mxCell id="flliIf5FsEkTjVaYl4Cn-47" value="Proxy Server" style="text;html=1;strokeColor=none;fillColor=default;align=center;verticalAlign=middle;whiteSpace=wrap;rounded=0;fontSize=16;" vertex="1" parent="1">
          <mxGeometry x="436" y="186" width="100" height="30" as="geometry" />
        </mxCell>
        <mxCell id="flliIf5FsEkTjVaYl4Cn-48" value="" style="endArrow=classic;startArrow=classic;html=1;rounded=0;fontSize=16;entryX=0.5;entryY=1;entryDx=0;entryDy=0;exitX=0.5;exitY=0;exitDx=0;exitDy=0;" edge="1" parent="1" source="flliIf5FsEkTjVaYl4Cn-23" target="flliIf5FsEkTjVaYl4Cn-24">
          <mxGeometry width="50" height="50" relative="1" as="geometry">
            <mxPoint x="240" y="380" as="sourcePoint" />
            <mxPoint x="290" y="330" as="targetPoint" />
          </mxGeometry>
        </mxCell>
        <mxCell id="flliIf5FsEkTjVaYl4Cn-49" value="" style="endArrow=classic;startArrow=classic;html=1;rounded=0;fontSize=16;exitX=0.5;exitY=0;exitDx=0;exitDy=0;entryX=0.5;entryY=1;entryDx=0;entryDy=0;" edge="1" parent="1" source="flliIf5FsEkTjVaYl4Cn-32" target="flliIf5FsEkTjVaYl4Cn-22">
          <mxGeometry width="50" height="50" relative="1" as="geometry">
            <mxPoint x="240" y="380" as="sourcePoint" />
            <mxPoint x="290" y="330" as="targetPoint" />
          </mxGeometry>
        </mxCell>
        <mxCell id="flliIf5FsEkTjVaYl4Cn-50" value="" style="endArrow=classic;startArrow=classic;html=1;rounded=0;fontSize=16;exitX=0.5;exitY=0;exitDx=0;exitDy=0;entryX=0.5;entryY=1;entryDx=0;entryDy=0;" edge="1" parent="1" source="flliIf5FsEkTjVaYl4Cn-22" target="flliIf5FsEkTjVaYl4Cn-23">
          <mxGeometry width="50" height="50" relative="1" as="geometry">
            <mxPoint x="240" y="380" as="sourcePoint" />
            <mxPoint x="290" y="330" as="targetPoint" />
          </mxGeometry>
        </mxCell>
        <mxCell id="flliIf5FsEkTjVaYl4Cn-51" value="" style="endArrow=classic;startArrow=classic;html=1;rounded=0;fontSize=16;entryX=1;entryY=0.5;entryDx=0;entryDy=0;exitX=0;exitY=0.5;exitDx=0;exitDy=0;" edge="1" parent="1" source="flliIf5FsEkTjVaYl4Cn-16" target="flliIf5FsEkTjVaYl4Cn-24">
          <mxGeometry width="50" height="50" relative="1" as="geometry">
            <mxPoint x="240" y="380" as="sourcePoint" />
            <mxPoint x="290" y="330" as="targetPoint" />
          </mxGeometry>
        </mxCell>
        <mxCell id="flliIf5FsEkTjVaYl4Cn-53" value="" style="endArrow=classic;startArrow=classic;html=1;rounded=0;fontSize=16;entryX=0;entryY=0.5;entryDx=0;entryDy=0;exitX=1;exitY=0.5;exitDx=0;exitDy=0;" edge="1" parent="1" source="flliIf5FsEkTjVaYl4Cn-16" target="flliIf5FsEkTjVaYl4Cn-19">
          <mxGeometry width="50" height="50" relative="1" as="geometry">
            <mxPoint x="240" y="380" as="sourcePoint" />
            <mxPoint x="290" y="330" as="targetPoint" />
          </mxGeometry>
        </mxCell>
        <mxCell id="flliIf5FsEkTjVaYl4Cn-54" value="" style="endArrow=classic;startArrow=classic;html=1;rounded=0;fontSize=16;entryX=0.5;entryY=0;entryDx=0;entryDy=0;exitX=0.5;exitY=1;exitDx=0;exitDy=0;" edge="1" parent="1" source="flliIf5FsEkTjVaYl4Cn-19" target="flliIf5FsEkTjVaYl4Cn-20">
          <mxGeometry width="50" height="50" relative="1" as="geometry">
            <mxPoint x="240" y="380" as="sourcePoint" />
            <mxPoint x="290" y="330" as="targetPoint" />
          </mxGeometry>
        </mxCell>
        <mxCell id="flliIf5FsEkTjVaYl4Cn-55" value="" style="endArrow=classic;startArrow=classic;html=1;rounded=0;fontSize=16;entryX=0.5;entryY=1;entryDx=0;entryDy=0;exitX=0.5;exitY=0;exitDx=0;exitDy=0;" edge="1" parent="1" source="flliIf5FsEkTjVaYl4Cn-21" target="flliIf5FsEkTjVaYl4Cn-20">
          <mxGeometry width="50" height="50" relative="1" as="geometry">
            <mxPoint x="567" y="430" as="sourcePoint" />
            <mxPoint x="617" y="380" as="targetPoint" />
          </mxGeometry>
        </mxCell>
        <mxCell id="flliIf5FsEkTjVaYl4Cn-56" value="" style="endArrow=classic;startArrow=classic;html=1;rounded=0;fontSize=16;entryX=0.5;entryY=0;entryDx=0;entryDy=0;exitX=0.5;exitY=1;exitDx=0;exitDy=0;" edge="1" parent="1" source="flliIf5FsEkTjVaYl4Cn-21" target="flliIf5FsEkTjVaYl4Cn-31">
          <mxGeometry width="50" height="50" relative="1" as="geometry">
            <mxPoint x="240" y="380" as="sourcePoint" />
            <mxPoint x="290" y="330" as="targetPoint" />
          </mxGeometry>
        </mxCell>
        <mxCell id="flliIf5FsEkTjVaYl4Cn-60" value="" style="shape=image;verticalLabelPosition=bottom;labelBackgroundColor=default;verticalAlign=top;aspect=fixed;imageAspect=0;image=data:image/png,iVBORw0KGgoAAAANSUhEUgAAAfQAAAEsCAMAAAACZbH6AAAABGdBTUEAALGPC/xhBQAAAAFzUkdCAK7OHOkAAAF6UExURUdwTO3v8Nrk456psuzv8MPJzjtPYYLbu5+pso+gqdrg4t/n5+vv71xtfOfr7CpBVC1EVlRmdT5SY9LY201gcOfu7cnP07a+xIuYokNWaNTd3r3EyTFHWYORnAC/hUhaa6q0uzVKXaOtt7C6wCg/Um59iqSutmd4hXCAjHWFkWvUrGJzgKbkzHmIk5mkrWx8iZGep9Hu41zQpbTo0xHCisju3iLEjoiVn5WgqnmHk5rhxY7dv1DMnzDGk7/s2XjXtDvIl4mVoL/Gy0XKm3+MmJqlroqXoURebk5odXKLk6e6vJmusldnd4GZoFdyfsTT1GiCjF14g2B7hQC9gic+UT5UZwC+ggC+gwC9g0BUaD5UaCc+UiY9UEBUZyU8UCE5TSM6Th83Sx01Shw0SAC9gUBQZiA4TAC7fj9SZwDChAC8gAC6ewDBgzNKXz9WaAC6fTdOYjtQZD1dagC1gTtlbDdvbieNdjJ5cSCXeSyEdAGufxegewynfDJGXXih78MAAABTdFJOUwACJ2cGRO2Ob5MSHwrBDfv4y+Yc1BY8U4ngMEvzkfjaYu8yXP6habSpo6m6aG51roE1uVnwQOiLfJ13hMXgTJvXLDLPmF949eu6coSXpd5LyNbRZD3/qQAALf9JREFUeNrsnO1vU8cSxhsuCAE0hXIBidtGSHy4LeJDCwWpFAoSrQJBvG72FZbSyOYcO445BhICgf+9Z56ZdUAF4gYjVGl+SRo7JfbhzM7sPDOzfPGFoiiKoiiKoiiKoiiKoiiKoiiKoiiKoiiKoiiKoiiKoiiKoiiKoiiKoiiKoiiKoiiKoiiKoiiKoiiKoiiKoiiKoiiKoiiKoiiKoiiKoiiKoiiKoiiKoiiKoiiKoiiKoiiKoiiKoiiKoiiKoiiKoiiK8m9g56ndk7BnaxZ2TvymM0cmeL2Jrmv3DjXhP2fm1PIEVK+a1ysf5nVzYuI3nb2z1autvH4xyXUtX9mrJtyOq59+bFzHeGOc98bRt/ZJMJ6fmRCCMb631s3RxmQT/ptTjClbm21saR/YFJs7ExtgYcXGaHOM0dpEn/Sq7UdOOUWbrY3dZ08H3pv2ExfTfrjQPjbG0TXJl+/M/aoG3BZn5/rG+EB31HjjcUMdG59ubPs4GDd4+qyOto4xx5hijMlaC3O3zy09jbFufpjwHfddHWHRpMRmz7a8oI2WyLle7znvjA/Gee99oKvwxrXPYXqD5eAeX1LzbZNLVYBbOxPE0oGeOMd+hu+ut15HmCjHmFOCe2bycbJUht+Ork64we5ZIZtHm2KKCBzs6/RS7WN63l3tk5sXr8YjPMGq5EDkTP/cMbXeNtlxrk+O48nofGPJ1z3cHiHWwfir3Zjy2DSJQj3ZDJEZP7fNjYne78j8KMG3c0w17RQWbp4QNMj4th5u9JwPTi6GVqHBssRVGXh9cKY6r8bbNuf7neBMKEbnfdMYcS+64bSrbwxrC1slyw5vZUPOmdZA+2D0ZNckScS1Bi9iaclYdm6O7RRA8LLd5w5LkNYb7zuuJBx0QQEhyFdXDqvtts3eKxXdYYfYTuGz/aIHPgSKpSYE550fPO9G2DvxNo70jROyZDO8tbk9gWw7YWuYFlbOSAcsXiqlxDt7/eTlgK6A/Zr2dEeLANkFb+e0HfXNGTXdR3AmdBDd2avIt7GfY19n87cPBy+f1GybiJSdDMQ2oy/y/FQ3x7d8r8N3m4gUDolBillWAOUKnMzX3TXK3NnBAwIPglBgJ4fPt5+PT+9Xy32MbDtZwbaUyAX2LGRLHOy9ZFO9tTojz2K1RWZDeI+ZkngScMPm5pYR93pTI/dLsDCtIZIBlCJY3iYsyTXRZojpdFXQEaLgDIJQf+6sGu6jKjQ//tTne0lGNia4jkFgZ2tzehfc02ddpOu8Jedk65Qy5fAcnymfX7m+xVsdu9pgX+BQTts5GZwoQZ7kmmHNSCoiwPJYiWR+iUTGVCrXPpbdFcVO40UY0d12otixv2Mf7a0Ps5UqCut0St5ZY5dcbv7DKmrmRkO/nK2QOTdEnSdBEsTuqiw4CuQljzPBsYowclH9c1qA/WjZdrEy0EieSzTs8RRXOXtyXKJ73oV1KXuzOeex0WyqY8pUs1u5MfOh97k1P4LYh4/bmhN3CHYrob4evhpwaA+I6m5sdq7CccbpVK5NgVN9Dp0UPf1m4csZR7m74dx58OoJZFukwgxt5ZEFu40S4q0dDW994F1mrzVDxAqkclaUGhRAFv3ffTHgsiAvwI4xRUCK14NKi+7TkG0XKm9cQA7HJsbN7WCH54TKeT94wa5OlVPK4GyqLet2W1tk46m5Pfv+d1kY1byhZ/xGLQsApdhEDzLJtVKFwyaDQrArXi50+lp0nwa/znV4S5dGC3satnPnWCz7MHiJXI6TMPFVrtFw4k2O2yy89z0O3WxY2UsSx5t7li2e9F/qrvWk7s+W5kXoTJFwtLs7v3x6Ri02jQz+5DL1NQz32MS1UPjk76iSmMFaN2ebuAArPo7ae+S0LFk7urnvfe+xp+EMIKJXlyHV2cPpeftk2H1GRfeA6j/EBDVdPHYYzxV4+taZ06L7dDgG2cZ1meA5vnppZnrO8lzw1WrX8jacuB6X0HDhAnqierpt9rxXro2GvEoQzel385D8Hlk7PavrjZ4vNTd+4LyEdY70VDo0y7vVXFPil2Wut4s+x6YqxRkEdwTb3oatodMzZ95JvJ27L5TYpdH8kffJtWg5GxDZlvi3KQ0cot1GRXe00Vg9SFiX1n5J413/4j611pQ4fLnithrUUVFqSOSQywWWc8+70OYxF6VdejCs5FKyzbV3luCPDkd23KlJLNO4y2Jbm1M9tpVrPRecaEZegd6VOhy3YIx3/VNqrGnKNhN8KI01dDuCJHRiBxNQgkcsjkmyOQrtqMlGqtClVA/fNTk1e7ux3C+H5oMEsCjB80AFtdFfDHgfdzIlw37OUiIEhHbjqguzaqupsf/C4zJOMcaxh3tuuDoTINuo35KjzFBwRbUkdbRHN3ffUYJfaKDQaCIqUmEnSrZvWeinGKnoHkodBl0eaajjmoLkFzojNV3OznV4UsbxvIIvhdkiniCgaXKKW2wRzTLYLfEuH3nGYvT3Evyhq6NxS05+SYrvicVAzPVaL0jN1zhZZqU86KTdH0x1UuXaVLm07AJX28Wxy8CSDFWgLNtb70YZkGRvHQ86kfHxo3dMTu1ZsaVGjzI7eXwJ9gmtOpqRwppjsYhsAm2A8u60pQedkZo2O37qu3HaxH7m4PUklykEYIjKtLLNIrZzDT2zWOfcndO7v8m2H+dHUTL8tFnYQZs2yWDlcKOHES1U1w2PRRq5Bq7+UzW++kXNNG3ZVnkUXoM4eMmkpa9N2ZQzvY1hjjZv9snKILNU5hJ1296enJq5tgKHlv45u3hGixY92cgzUl4EA89QeEzCleQCXQFTXVa5Nm32XobVjZf7Pm5fm+A58tP9p8kpNMFRRpMqvJUBC554e1u2zdwa1Twfb8vcs0Uul6hbh5VQP3nVk+FmVyr/HFoct9VpKbp+R+Xa9DnT6TgZVfBlAn5ciS9AtuUoLptlKoLnIUqrfPSmbJu920QuzpdaPc9hoEpDSyXVrVzjpKGEdI7uMHig0IOQU+mM1Cdg5+mK2yybPRcp0JjS5nIm9Na6nIhnGXuyPMgax02Y+Nbk1EIj0zXyP6MtQ9Tt1xC1OMi1gEGJgFM1MpMt6hxqsZVrOiP1aWRbX/ZTksp8loiHjseTU87QgRcMuuRYRhwprnOXnP3fvjE5tePqCA0V2QhiKeWUP5pTrNd7qANKbEHPpSPnHaQ+Rzu6zkh9ItlWjSN5YO2EcyVclCfrk+v31iHSi1CTXpstc1O0c4/md2zKtcRanm0d5WiL5dYarRocaTFFqpVDDpw+Sk7pvdcZqU8m2y5WItJLFlemaDw7PU/Dr3a50UbdcDZjRsklSbc1pZVy4GXX/AjmZj/Pmavu0phDtp+HG4PxwuIiDGqwTg5gBDb9BDNSe//Bnn9ID0uMOV91MMVAPc1Q4quHjOPGG7n74NWwfqN1AhO+2Xgj2SaTU/uvNdyWybwTiMFlthJineSa9PZg9A6bvYy7y8Lb8kjL3hM/f/n/45OZfebQt/89+O0ure7JrbtQjR3bl4ODmECmYmhAeA/ev+gm1unDjFPLGIrIOAlhhzgO0dzG/T9ua14PPEmZ0rhYz3UZmzAjNc4ZJGmnrn6Q6Xs0/Dr9LY60HD34YOnRnw9/mOhvefjg0h9/LB34Wb1dZFubyyG8BjkTXmI9jkKgz+rM4OUzmo+Tvou1Ulan+beI6ehoa0xOHb7T4PQSi7NywIGtz2fdLR1poeTcjwWi2xzTLD9xj09/+NDU/75ZenBvcfHR1xOVb/7z6P7i4uLDpe93qsEh205WpiTOpkxQBFoBnofiKez7wVpdszy37LA5yT8ywGE7ptjQ5BQdaUHVbZjK7CsP2aC9SgG/lWukDgJ30KWvW8oxkA60p291pGX2u6XW5IuL9+8fneQvKX/64YHPXsqf3fX770c++9LDgRfupFODE9XRsdc7RN32c/B0tStGLxX1cqQx8b8xYG1znWak4uaRtSQHZDACmympi7bO64OSMfJsVChvRwNbXo5UbjUjNfv9n4uL99qPpd8mie5fPySj33tw4Mhnvtu7vjzw1VfffPf5dcluPvqAZht7fOluwxdpX2+tjgMvfKQx/cXetT+lkWZRJcpauPgkGgSiRBJ1TBmzNbPZbOa1SZndX/aHrYZ+0y+gQcfSnZ1NMlWZP376u+d+3QRA0KTAqrFnyjwkYPXt+z7nfCYTXUxuzQwq3X7+1/N//5eYzVTdGaA+YoNOKb0DSguXDnocz1WMg2giQ89c1K6NitqbFZucN8yNgYkv2I6wuRWuThmRsVkOHNv2gu2pR5zF79oCPZGAKQBaIkabCrkKjZBTnKLldpzzOviMIpJ3/vPPDhsdTEXM7vCwiHZP4Gx+I0enCB9X6zwHwmRODGEvR7Zri3mXjO6sjEGTLzUii0cv919MN6gu5oMq/dSNvakPmJ+2pQiEkpAMYhAyUFUaEV7qtRgSwYhmat4Nrtd+7tC3TUjViBoPi9jI2OBHCUqLKhctYndKoGeGUujxSv/yzUiPnI3StAjvVX90/T6Xo1xQdZYL073R9zxRT1qiuJh2nplZ+vYSygQaM4Ypx6osU4LJnKIQ4YXmqnWsXYCdook82RoQaZPntLxmAxfK5Pl763+/nKM/T8b94u2pQ4T7R5/ZbI6BkdrxRHy3qv7hyLJoa1lE9ygVbE+5ZTv26eeoWrazOW2jz3wPBqHE0EixHxVLVyaQQnOKITSGXKTUJP/UlFg6iI3Ijbsh9y0U5FvvT5MqUaMeQQG5Ko410eddjkNpSaU9VOTpkfnxKICD+QdTvs8L5OmioqzOT93oM1+1wXlA9SxFCvSYxk5/OP21VTdZiQb4OCkRJmXiiMzC7k1f6+TwsfVb/z87j0e9KjPYyOa6oE5i4K+cff18nFbzkN3GfTLqpXsNyqROdXfKtzmVDkU9Wa0Gq7eAkpn6+kxYXbLINGYbxct1wWZXtTOBnKoBMmfUiahEvwXCNVamqWH7bkh2S40XMNG/+Xiqgj7DCz1NbtVYfYSM3h6P0nIUiPtnWf7+iLiwmPbwdKxNvVNacEPxkwTFW+DoMzOvLlmMgNgOpNlIlqYALCcn50JzipGRhizqWATQ5CU772VQtjG3lWntRuuDpqIZJzkj8VxpMToKgnFi6D4epWV2q+hRTe7mR7x+10VQ9Z9NffY+u7AWBL6/XbgNNheEF50hsLEVyPNVAXVgcTlN/dBC4V6vGVJewGCZKJrJG2x5RH8O8mYHRieMlC6JFTLG68S4UKUUiqKMS2n5c9anTO1URhRFLxs0mbHdhVtwo1MLpdLO+m0ZwbfZyoyjUdE2o5xnEI0mkFMm0ZJ4k8KwZsBkCVEBTgRHfYoExI8RlbzASMmynUZxRJ9Kdmsw+uXYlJbjBqoiv3TlyzLbFFKrXvkOTt1bF/3lkjHwqKvJueH2OjQbRRg4FYQXkgjmlRmIzKQvKEnNwrVlppcSQ2JCRzpSGiYzPHZXNBY207l81/VrUFrmZSd2dVU0X/FQu2fvEHe91zcPz0i4jWpqndFqceUOaUkhFdzi8M3ijwazX2jXCt46Fez1ekJyJL/vdN6fq6gU4gUP0NcE1OBnS7n8YezEm8mFZE2vuDEqIETx3Q6P74zcd/3QBrVMIyMQYoYGZrqe6NEIqWBpaslFrENcwuBo3010q9UTEYvWu19Aele6F6qqKBp0nYfx+vUoLSXetLl/uyqERalfvGzEo/EHvVJ/baNB50WLqsb9m5JwmJV3BKcgHBRLDdQ5gtcgIirJ7IDG1y6AniVKC6kPdJMaNGxZdLlFV65Fadn0HCT1q4ZyW2WPjO6v3qkVDbj+3m4Ci45xidKNWozT72nStom8TgBZaEiZHQY/1lk3mgo72qGLNfoHavc1tUvmJhabl3r+SvvH6wxK76+5NOvw0lc04E9kw1a6s/Cge/imnQzEkwWMdHRmP2kfWhckLwWhAe7daF9ek6qAsoIDJUb8F7Vr51rMnornMqqmJEc4KGrzmpSW/UAY3bKdneGdMV5TdZY37yw8sG0TgqEaorvWjJdtWsIvi74r2rY6hNuNGDhDC9U6teQU4aFiUEekF5tWsV1rqvKNZEBXtS4mzQ1kf3d9W1jU9g+GVn/rYgUbGX3qy5Zb3baxX3cxxkVVpzfZ1zVxwkvHTPS7Tdmgs4tj+C5m8R2GSZlS9jdhJ6JuU+NUjuu6sr+zi0UesG4PG3fMFirATwT7d/YdfJFUcAxvwARWw6kLaNtIXk5s2wggKZXBzXjEznwmms5AkgaK30RpkUANht/psbKRFCD/6bqUltlDgBKcSmF4hQ9YlbdzZ94hN/FPl6rKKFUdq25dTlEk/UhIBRtSMVJm9Xg2Z5qydYd2AQUCU2Ck6BES/ESFm3VC1At6LA5oihz9+pSWI960Da3SMquhdUuWLbf2WvzuDAxSphWKr4xq0vHXNE0jqWBmrBuQkDKlhpTcuTGEjmBUFx/PdSXWqYMwJQ0EVBWfROC8G8j+vi46NFcfCn7bKHrCzy1/747oMNTVn541eeUlu2kV3FKNO3jC0PwGzSkQGbGCoVHMBUlOwdpG8gtTWnScE6NhFquw5rcu/3QT2d+5LFx96OTlCEO7qv/lly1zS5nM0hef7M5lMuup9cxEQdKC8MJnp+hqoizI6HTIjhHhpWPw+R4mtupEUqtjLsdCVBz1a6C0xGD3LjUrXXaDVMbd5JSWBwGM6h4NvoV7QEp7xU8GfUsbJ5tX7mPntk5O5q94BjPzbw+yq7ncanb/ePNaahnRR59sDHlUMoW3B4er2/l0Pne4Xzp5PSno7uz3D5s60wh1nr5qXSe+AFEjCC+MewPe1WDaA3ftLANs4lSI1nsEd8LA6jF5ijIGdvVi/H4z2d+NZduiedvg8J2i8U21Z9lSyBYry/nj4V66eFCuVFZWhyAdZl+XcitOELrRFQbucv6gMLbDb2RXKpXi4aC4tPWC39XzvOh9w0o6e7w1maQkCC8awyl0VaKVVck7Y8DL+Xsq4IGUIBY6Gf2CjU/eL5mrgtKi835eHtEDmW9e0tM6t/nw+U1+3KWcSx2Zlx7obzuOA0rEcfeNLweebYfui2F3NHPYiF7gNNYG7gE29sth6GDMRxwb118+LIwXj1PbDYF7b2z3lZWLpTS9K5Uo4qtle75bfjYZiI1o2xgqBQYKu6Qi9VshL0cjeAMAdzAbBDEZtLVajJ8SwR0KBJKPLud7mhQfZnBs+4ayvyWfQFNDhnIvKeXb3nL3vXvZoDleuDasuRfLWLGXawxY5KyXigF915JWFx/urxyM1R3sYFtgh70/bSEXuHgzIPSRtGwvKB5PZCH8qs34Vy7bmIOk4xwvDQYTyCmTJcYAh+UEDlQstq6U41vvmp8sbhRIUmpdR/9Fvx9NaRlybVZtQsoFg5Cu9xEHemgwj0Mympd+NMzoyw7gi/3ciI1VYXKLjSKtJLiRY0Gg7tnUbfSBeHaKAQG6yc+Fo8Ploy/ulSvEL9i2teUwTh7fpPEhrOydGqSCGRnFIAkCw1Oix9qNUNBGjSgtrCyvyRNEiDkDRL0OtPXZTU9pEWNWcX/c/IC6a37FoW82PiG8CaMLO11ldHLl4EHfI7YmjWPbnifyry2d3i/vjGN0uzrA6IWyL4N61fE8z+M4TyvE3ES2g0/PugfiTDdD0wV4iyLbNl6fml3MVGapGmz0OigtKk/hpNqEzos8BQcoK+03N65UD+C3dmVA9nsAoJTjbfYYvTrK6HTP+4y+W/TZxp7vFvO5XL7s+R5bx60ujGV0q8/oqbwPv7aid7PSa2vpihuGDiUhy89OpIif+/ZSU6QaN4dg2rfqvBqjpIwTXsjEHZibxfxrOKQFk1k6VJMP81QSvREtOQJO/N/Ubyz7O3tCXmHZ/W7J0Ekxjrvfa3Sq/a4y+iBPL5RD5ir4xf0nj9ajlvrRvb0ybX2E1SuFMYxu9Rl99oAZbnZY3Hs7/4/omr/3Mld1PRFR/KPJ9G3fnHXvVuNQzJpfOExLEyN4OYwDl9GMgbC1+MhsorTIxbmUIpXnwClY36v658j+CqaLSIPhal8B/ToNdFzj02XL45Bi/iij93l6Kh9SArdc++Xr5K8fPXNcJGJ/5Kx3oNE3VphIHWa72oWl+cflhu80Vie1HfzqJyWexoG1TBNzjUE1pFGjnf7aEuMZmsZAh4SHr6wyJ67Wu7NzjXODioiu6wmMAke3jElpGRaX9gJ430rfHWcWkR18mm0fAzp9dU6nQu5BzwdRbLf8tZ7V/E7ZJaNbjb25MXK61YPGLiG4O/Zxz6O/fpxbyU4MwkuEF6n3r8bnX+qqktDdGDkVn458AX33er1mxjW8QRgpuUWjgyRU0gGNowgNfT5P9hemtaygL6U+Y+sWUzO9hdxIo1f7jP7Eo/IusnmfHQpll54HO9wdWb1TGdht9Mw2Wgx/gLzCUmqCCN5XbS1mtmgc2akIY+VWMtjpRzqGkajKHSNWjk1I7FJHCkQmHOcbn70HTTGVMFKfJfu7VfbIz4K93jYkj9Y3yM7O9OX00eG9J6evS/j8IJbx7opHxgxGqB6I8E5F5EJ3dLfRfkxb/Pj+j201xsrIo11w4gOFZjoqEVLBhjyZk3EUZnyQF2GkkMZ5q6Lin0t8LW9gPvOUFsl0cXuHLZsWxmaNnlJoTKP/ztzVdbVxJFFJAOEAwpIAhACCWTAYY4MXdhdw7N0NwX7Km8Y9bfcwX8DIyD7mwdnY2fz5qKuqe0aaGSQhccadBzscxBlT091Vt+691bHTJxTXLrFuPsNcrJsEGY/39jv92Sbc80H2HL7DZlOZ+KmWel25TzGV5UnmlLZ7fhv23N7SX2S5xtT3m6qzAt1aDvsfMrubgwFrkudgHSUsp+MXfhYAbmOXTpOC3mf2Pk1M6mBuJhXktwzD38n3W6e/geupR8ek+y3bDm6I98wo5sB5UEYxYA7E2PXvVyR0QYLse9Kmo7P7h9++mDgPCGA3TA1wyKICanidDT6lBbJfIYx2CEbyJ7AO6kzrH3ndd7ro3OkLJRd/WkoFdeRZPfgeJAX9yJdZoy2+A1GjtApmdTUhjYe2MBErUTnh5Qo5kmj0+1aPSZeHO/hIwfsRUSSjClrBsLzO+5C0pPVHygiZdGzChRLi3DEw9RHEp+tON0Q06McBHMzueuHWz3SxwIE7PRZ0+KDxPbB1/9OoMyUnRaoTtcZgy1P+ff3t/JzUTIolRfypz+9xSgu+NlyJ5ExSSHLFsx3GlJZVPHnttrYKhinJaKaHO93q3On5fQ8BmHJKUTY/h+eKO9EvIvcMXgTLOfoOgl541dSmQ3QXR0E1cptrQtmG17kylELTMcmRotI84gXJTJ0eoPfFMKa0EOO1vYGa34X+m+GsTebix7voIejRnT6DMTWC7bT7EIwxhBUs9pLIRV6N/GvIN4VT+x5YfC9oWh8jSwJlAkXEWPk10wTByzl6Rr5/R/GGoT1XX+FQQBZGSHolggZxL83+JC1pTZc1xwCsvDjahtRBFeWd5HL93+md2ftsDcQ0wktjUuf3wePEut3MELts7eDM6QrU7lawm71sPT/5S4PGqiMH3qQ+OKMkHOH5T9BtQ//Qc2y1fAC9ouRIceVOxxlJkc1I/05eH3fiSMXWiSdbE+0Xrmpdb77O3eF47wz6z2RrlBr03OMLPG12+oVhQWGJhcFy9uzNQ7D5YqYZTmtrV54xPeEFuRRIgkfhsrT9ZZyMqbD4Y6aiTDBGvfrGwVAYgBs2/S4jeOtjH5pUbtwxuKcum9Hew/mZfGvSd/ouyKcs/6TvLtuWgymE4W1uV7NWWY4+uakjw4UrZmx0hBbFvVW2SSakBOfQBB6Fyb99+YST0Xlde5TRwOQ6KmVgqOZQprTkpyqIZPqh59DMGjpKJhjN9NZlE507HeOStpGrK4TJrXY73mNBnyxTl82wfXdtdTlb/dXf/9Hk2GLjNOeYEXud+LLgAvYFIXjp+ktOBO8+n199u4YCn6OPO/ZcwulMUBSY/OOQprRAbt1aEVBubBMrYnskd4egWyIedBRNlJ8lrV+3sYwXlrPXFXuP9dMXxj3FwbEc361sPzvN0Cf6hxtqhnJqu7B6qDNGj25eB6tgdJ7BgQ5y1t7/oDSTDXhmMpW6c4RkoVCXp8CdOVKxtQWZnIjIm1ZRrJpkNNMbIidEUtCFa1sJy/WRoiPcrnV6AokitzzuEwVLYNxL5TeZxX3qFdjL6YmYsEE5omy6VWaS4OUcbX/l7S45UnpUL5JkNH0CvGABoKvfvBjWg8qmCxRZ6nAdlYBNjPvcc9ChASoSjncjwohE7oTRiqOFTKfuroApQc8tzPnA+kJapBB24JTKIxnd70+b2t4NoRrgqDNGxzXOVyLBC/n/yi0PPlKY4ptEkTIjRoQctXEDcKRi6QdyZIT2HFoiOC5IaI9AnS76Q+TCoAsR+TNCicUurr3RveGSEPTc7OK4jx0d5GPJuNtzDzOxRpp5eQNBYqFJN6tHKfDwpU9/XClVCxAooFxjEV1UXY34Iykb2Q0dDu9BjzHoWt605afLnXo53oWIlWwUV9uybPkf/Nl5yFvH+Vz/dzq+pkdrtu/YkZfICtztTACbf/94CWIXxjVPLmoRzsFBFCe84KR0aRWrOVJoR8i0OsYk6B1OgZuDIValBLQbtLPz+z65+k+mBF3013BRO13SYGW49XJdoK8ChXW92M18VgZdCCPZx3B243Ft0wMdBZ0gtl/Log2Tf/IRlMWmsvujZrhJxzZAbOzT71fnyJuSXRforgGax5U+0awr4TPMzu7d9rfnI4kkyR4SlmYrrrxyrUQJc29s2KSSTRju3EZrPYS1JdeEXHtyTWycdj2NRwwrbadj3Ksnc6UgcEnxIGl3WbjILrXKtrA2N1GPxjG5AycBEDp+kdP6yPD7w7tv15yGgDCCYxhSKMB1lND7mx+G+pxHPiRBLnITq46Frv5JratHXndipEi404HqUBzoKfFOv9WxdH75qFzyXJU8+HNZEGp++hgZ9EG3u0JVmaraP/15/gEwOYnLfK2jMxw3zchMTUWdJz1T89Vw/zHLm5gXo+PEmX+Lq/9d+unqTneK+cGDbnSxqZ1c3hkP8BEkmJ8BNjv/qqG5M8pZDoUujF1yU9Hnvl7heG2QtCCeo9zDuZrPEs7qNi+bQx6NPq+aLidw2GNck3ksPQTd6mTOqDs9GDjoonvQ5QF7VnIEYUhZWNo+bVxCrUY7nbgPaufTpFywCn6vbX+JKo90OFnlARrD6hqoabwcdhF64oeeQ4o/kapqhON9PS3oVdyPIkKHm60pRG50sKAnwLApD1FxoPK3vMUMtvroy4ap9zlHLnw7Ei/Dfv3HFbDlyEdKD1VkCMawyOivOuPNgTlS8aZLhDNxjGB2itGMdBe9dYzPBP4oy92KBN2hiWADYQsjht2zC/mCss4qZwHG//PHS+DPEJGGwqhlL+giK62C5VDOD2G5htk9qZyZtiKUbZebJ0N/e6fGkfDsHZHplCRFJ27LEeK1pjoEo8C5LQ2cLlOdt3466E43etvpudwbZVmeiamt9ClAYwpyg+eKXUEzWiXUKgUv79/RaHReNzXrRlu/QnsGPjgMjlRs0aSWoDxawAs45Veb/1sJiTZp9/P8XABE+rb2PBX39mDWZADDim6kKpXP4elil15nEfTCv5oUdAZBMxGTQft/E0ev1Fm9VbZJ218TvYkwdTOxcW5G+DKt/7n56R6ecsunq7pQxQZ1mqv/PIkg0oajbQjMnNtw+z0CSf39AXd6OjgTW/vkcv1rJhD8i4a+xDk5wvHohS45Uez6z88oacEJrWFtX9eQHPIr+VA4UvFXE+9Ay91a9UnZkgKWPPYRI0lmuUwXEaa12j1LqHfqrpwOuNO70yc19gCni5VR0Od/aXBEWSh9hzT8Upv7olWB+fUKJS2KC4kkWpNH1e4Axj29j4fMF2F8k2GvVVwhi/bU2YxVIlImp3J7NDyt/SBQsmfh7eYHD3pvO/0NCTCzCXrusH6J+BtoVwFp07IH1YHhrbINprToXgwzQ4eiSMdlYElLyjpG+arhgnb5Fgr6JJXxIliLI0Rj63j4d6aBapCe5R0PGPTO430mrXpdxUwuq6BPHzTUZG3GFZeVkyrNxLkcrQh/+7+p1E9KFIXSVMZN3XJrDocjlVDjlGxqVeA03XTfji0KoOEXO6O+QBe+6PSblekdngBpjhOFiTftJWJ+qTo21TXoY+W5o0QeLFQMIqtETpZtMK2PoxiRq7nXdMnrzY7YC2daF6Pweo7pHCB7g0ta0t5MCgsZNN3CVpssqqGnXrk9mavWAvL6ueic8TeB9FpDuJvPE16nqec1265Ff9rpzvjmg9riZEci1xH0qdpF4JWT7pkRG/PRSmZTpn5oUGKmXT614IngWTzykULFFMEC0nilhALP5zvY/va6Vi8iRIdbFYFjKy75tXnje+E2K6yuOOT3E8SAnZldn84H1y1WO3LEyYdzgWNZUd+IsYrv2nbg7U/eeqcvXliG5a3EN3t1HQ0uvP3MpkwVXjUiQhWFttBoXKZ9qDgOx0bsTuZwZjicGz8/PI5UbIHSRRFbnNpt2oFj6TCAzTZ37WhsdmZ0Zmr5pAKuQfI37brx1vhSzcPp3a0gPShuFXRmMr20V7Q8G6K5ETYDLsB5yo5q6eJ0qTzyulxv7biNFVdYXEFbRHszwwmxL5qXZP4NjTJOM36Q2IyjfjiOxTaVpbuWtlA/Vf698d/7Y36BpwPRjbqoDqZ3PIt61lYQlNaKxWLtARGWIKpJyjIwnMCw255bKZ4cT2w9fLh3Vhx3PGzGRno0Wxf0w5wI8x6ZMyJSssmaA6GiYHz3uLpUmJqaOh2b2KkELnqX+cUMqfCTLxtmRI6G09XJKxoRGAZG4VruSOe6pkWCAeVl8/Aen/FEurxhLOOmjB3/nG0/PBZsx/M9x9aUN9c7SwRwq+ue/h7L8Tywh2191iW1guEa+k4BxQts64geNaHLthUQRcpyfc9aqdRqlfEHjibMuaVM1ayHsjDn0ZJM9ctR66TEDDTTjeN7wdQLwWA818eD+2wZbZCli7hFU6yjvu/bRozhijeDdZTSS1uu+VaUxYZLf9L2V/UH9y/oyLHs121B7+iyjbaeIyTYuq40BA6dZ133eZYx14IX3OtcuX0qe3AWcQiHSYumHptLNlImq9/R9rfXJVlSQE3uMqsNT/jFTU+ZcYa+n8Kw/ZV06KSw7XhUEwrRzoQ1RBCEMc+dXdCZY0dAniRwZuax4xiinWWrDEMdd3E006BLwQu2W7Q5RWS6GrkGMXWyK5o8Z8p2Un7i5q/2zrSnbSQO44ENKgoJW0IoEFoCWkQhINLSBRXCpS3aL+BoZiRQQmwrI5kX+f73Zo7/OGFZNqhNG9vP703VqiAHY8/1HNeTvcSGT3chGGPPa6MSuEkA3fv7bqf00kbrzFbNp7TAuyEh9GBq4K8PT7nm2lZK6S8VR1/vTzdnZn4r02zizq4dzJ1vB9vzv9zS2HzkJKXgw9mC1sJMMVTGe2433KnySX9ddDphN+7GjtlauQ/GymoqfF33/Yf4xT4YVjuVrf95tgrzlbZPA7HVNLU7fmf96+iJwm2gdRfdtxu5l17veq2+Vu76nfa9fYWYoaIXvG18zv1yFi4lE9S9qgWSNmwqtrG6A1Ux1N7AtXRa2RvOJ32J89uB3+363cqYZ9DLR6X3vaDbU8H63aDz/mBrjLny4upZbacX+F07jwt6O+t7W08PkYpn7cD3g5GcYDORG82RMz/a3Ub5Tn3LXkdF/HeD7k7tdjrKYQ+lbV5R2ifTBMDJqW723igkzvjf9MyOqt6E+IGWlv/ei/1QWlpq7I5/jJev7u6VKuXtcqW0vzt2k8LK3PyHj0u19fJ6ZengbH7uuTfYzOp+6eNa9d8HLnet507ZFjbUtxxcib6Uo7lpKQ8sXvRd4TlljXFbz8KpAcRZU4XHh3ww6j9c/ZSLLBReOxAuFhZmFwpq6H3NV+YXV5aXlwuLLwwHxfwYBy4j37KwPGsvZWo48SJKI7GBklSw54xLVLZu/4G5nVou6/nc1PJzJkxka3rhPH0Kq8Tqj8LFwPOhNh+atvG4w83YYAT9QvxgS0syeZVGbmqeh1nd8OIJFxPsQikEeR/IwmIFF9qPrlb28k0ON701tgR6mmj2mevwUS4lFwtNumjGGXP161Sv+v2xvyl60lXO2W6iLnvlRgqyPTA6NdXZ0NxEVTDOOCUXuIP274/9TQfzbTum/5Gs6z6MQu4W5kIM1fvYGZtNpLFWNkJeLOKek/7u/mE1WdedP5b6xW6XY9a/wik8yPPiWifdvE3V6Fe45Sq61Gg3W3MJu/CTzYjbQZuZrXY6dKPDNUaRFZyTmUnW0WqcM/FHOg8hccXe15LGaTb8AmexKZWNaqq4J0+ruOP6GNXUAdeWk3bps6e6ZN0sxamdT0vk9OvcBAdrJY2eyKuxXTZxx3MuKrrlHyTvvXcuXdAQF/GszW3buJBBYQt6J2NpSR7WJvNcn+f0/8J+k9TlxGzqq2lucLlhVhhL9oaJaqQSxFrPqKWSNnnXfBGRiZAhwbPQ8ZHCVrRQQrheujPu9Y/zuOEDqmWbYVJO4j6VUk7FLhZzjipctJzZk+eu+SOclKUlaXOhkjVMBfuJvH5leBH2gX6SS0HZJHqUVw5X9niNG74w+9dRzWqi7lsbyfwQyvBicqJ0tC/3Yp0UqejUsl1JayZoaUnMe32vVt7udKz6zT9I5mg3o5RTOkJSuxhF3NXijlqZsSp7bPIaqan/YdUC27RulOzvkvpJDpXhhTbceRxZoA/Rue1L1oUdN4WsP+ifglasuL3vriX2gxQu+rRCpxp0Tq4XHm/YsDDEcs30PpMfolFM7ie58sK4qIPuuwn1druxwhPyGJvuDRvhrxxrD3tJfvGZqGByqgsS0ng6a8oIJ7kQ0SY0Urkt/8HsyfT88t/J3rKobkamtcFO3HXWs/GtORG0J7Fcy+WKty1/QOf3yqfEq4eaj/Yg3XNFy7FWxkSTyEtopBRz+6WDxtG7YvI/ycql1I+2YJyTAt4IqIxoRnAvOscNt6NhWqY2h3KkpU/YkzXmDl6gkUof+QtpxBRcsLi5yx6rKqU7NFIpfGWdbMY7NFYFb9s+dOxEv47TtRRS74uhIk5TtybIzBidYrmWRqqnkVZM6AecM2pVtyM6NFLppCntKG4qG5h+1HW6jIClJa2s3Eiu1JHMuFUFs85lT3ghLC1p5QuLTMiQjRmyDevMk8dYrqWV4rHUAfDcCmNtsaYXYrmWYk42I7f/zlz/GptY7C+YBq6lVbtz5rJJoJFKOSYqmNn4CWaUNH1suqebc0kmdVvmxFkfGqmUU1ANL7Qlw7RVWUIjlfplmwhdlaoyMfJHWFpST77e58Iuz9WfITRSGeCzLll3mbCwtGSCN32bG6mO17BcywYLl9ITgnFtZJNYrmWDQ2kSCITH5Tcs17JB8ULqLg8hQoHlWla4CkPToCyhkcoOdVX7wBhif7NE9c9ISWIR+5spmlIFxsHSkilWbqQXIvY3a8u2KOrD0pK1ZdvxIzRSWWPmxMNyLXt3vYnlWgbvOn4EAAAAAAAAAAAAAAAAAAAAAAAAAAAAAAAAAAAAAAAAAAAAAAAAAAAAAAAAAAAAAAAAAAAAAAAAAAAAAAAAAAAAAAAAAABezT+zKEau+I976gAAAABJRU5ErkJggg==;" vertex="1" parent="1">
          <mxGeometry x="168.32999999999998" y="170" width="83.33" height="50" as="geometry" />
        </mxCell>
        <mxCell id="flliIf5FsEkTjVaYl4Cn-61" value="Resopnse" style="text;html=1;strokeColor=none;fillColor=none;align=center;verticalAlign=middle;whiteSpace=wrap;rounded=0;fontSize=16;" vertex="1" parent="1">
          <mxGeometry x="354" y="256" width="60" height="30" as="geometry" />
        </mxCell>
        <mxCell id="flliIf5FsEkTjVaYl4Cn-62" value="Request" style="text;html=1;strokeColor=none;fillColor=none;align=center;verticalAlign=middle;whiteSpace=wrap;rounded=0;fontSize=16;" vertex="1" parent="1">
          <mxGeometry x="354" y="216" width="60" height="30" as="geometry" />
        </mxCell>
        <mxCell id="flliIf5FsEkTjVaYl4Cn-63" value="Browser" style="text;html=1;strokeColor=none;fillColor=none;align=center;verticalAlign=middle;whiteSpace=wrap;rounded=0;fontSize=16;" vertex="1" parent="1">
          <mxGeometry x="180" y="585" width="60" height="30" as="geometry" />
        </mxCell>
      </root>
    </mxGraphModel>
  </diagram>
</mxfile>
